<svg id="Component_113_1" data-name="Component 113 – 1" xmlns="http://www.w3.org/2000/svg" xmlns:xlink="http://www.w3.org/1999/xlink" width="227" height="227" viewBox="0 0 227 227">
  <defs>
    <radialGradient id="radial-gradient" cx="0.5" cy="0.5" r="0.5" gradientUnits="objectBoundingBox">
      <stop offset="0" stop-color="#6dd2b2"/>
      <stop offset="0.322" stop-color="#c1e66c"/>
      <stop offset="0.523" stop-color="#81eaca"/>
      <stop offset="0.803" stop-color="#77debe"/>
      <stop offset="1" stop-color="#f7ec2f"/>
    </radialGradient>
    <clipPath id="clip-path">
      <path id="Path_11630" data-name="Path 11630" d="M160.033,0,145.3,29.619l44.905,89.408h30.207l14.9-29.668L190.507,0Z" transform="translate(-145.3)" fill="none"/>
    </clipPath>
    <linearGradient id="linear-gradient" x1="-0.082" y1="1.095" x2="-0.08" y2="1.095" gradientUnits="objectBoundingBox">
      <stop offset="0" stop-color="#f7ec2f"/>
      <stop offset="1" stop-color="#81eaca"/>
    </linearGradient>
    <clipPath id="clip-path-2">
      <path id="Path_11631" data-name="Path 11631" d="M44.352,0,0,88.749l13.277,30.278H44.655l26.956-53.67L89.561,29.619,74.825,0Z" fill="none" stroke="#ecf0f4" stroke-width="1"/>
    </clipPath>
    <clipPath id="clip-path-3">
      <path id="Path_11632" data-name="Path 11632" d="M456.205,0,441.47,29.619l44.906,89.408h31.378l13.277-30.278L486.679,0Z" transform="translate(-441.47)" fill="none"/>
    </clipPath>
    <clipPath id="clip-path-4">
      <path id="Path_11633" data-name="Path 11633" d="M338.748,0,293.94,89.359l14.9,29.668h30.207l44.906-89.408L369.221,0Z" transform="translate(-293.94)" fill="#e4fbf3"/>
    </clipPath>
    <clipPath id="clip-path-5">
      <rect id="Rectangle_3655" data-name="Rectangle 3655" width="179.349" height="145.313" fill="#fff"/>
    </clipPath>
  </defs>
  <rect id="Rectangle_4039" data-name="Rectangle 4039" width="227" height="227" fill="url(#radial-gradient)"/>
  <g id="Component_42_16" data-name="Component 42 – 16" transform="translate(4.939 5.94)">
    <g id="Component_6_3" data-name="Component 6 – 3">
      <rect id="Rectangle_3656" data-name="Rectangle 3656" width="215.12" height="215.12" fill="none"/>
      <g id="Group_74309" data-name="Group 74309" transform="translate(17.897 34.601)">
        <g id="Group_74319" data-name="Group 74319">
          <g id="Group_74310" data-name="Group 74310" transform="translate(29.552)">
            <g id="Group_74309-2" data-name="Group 74309" clip-path="url(#clip-path)">
              <rect id="Rectangle_3651" data-name="Rectangle 3651" width="128.11" height="144.111" transform="translate(-41.41 16.769) rotate(-22.046)" fill="url(#linear-gradient)"/>
            </g>
          </g>
          <g id="Group_74312" data-name="Group 74312">
            <g id="Group_74311" data-name="Group 74311" clip-path="url(#clip-path-2)">
              <rect id="Rectangle_3652" data-name="Rectangle 3652" width="89.561" height="119.027" transform="translate(0)" fill="#fff"/>
            </g>
          </g>
          <g id="Group_74313" data-name="Group 74313" transform="translate(89.789)" clip-path="url(#clip-path-3)">
            <rect id="Rectangle_3653" data-name="Rectangle 3653" width="136.168" height="147.568" transform="matrix(0.874, -0.487, 0.487, 0.874, -50.606, 28.195)" fill="#fff"/>
          </g>
          <g id="Group_74316" data-name="Group 74316" transform="translate(59.783)">
            <g id="Group_74315" data-name="Group 74315" clip-path="url(#clip-path-4)">
              <rect id="Rectangle_3654" data-name="Rectangle 3654" width="148.098" height="137.502" transform="matrix(0.501, -0.866, 0.866, 0.501, -51.575, 89.211)" fill="#e4fbf3"/>
            </g>
          </g>
          <path id="Path_11634" data-name="Path 11634" d="M65.07,643.16h0Zm12.512,0-4.607,10.767L68.369,643.16h-3.3v14.483h2.9v-9.421l3.9,9.421h2.2l3.881-9.421v9.421h2.9V643.16Z" transform="translate(-51.836 -512.351)" fill="#fff"/>
          <path id="Path_11635" data-name="Path 11635" d="M220.468,646.42l2.1,6.059h-4.192Zm-1.68-3.36-5.209,14.5h3.051l.954-2.76h5.768l.956,2.76h3.071l-5.209-14.5Z" transform="translate(-170.141 -512.271)" fill="#fff"/>
          <path id="Path_11636" data-name="Path 11636" d="M364.6,643.16l-2.573,11.184-2.78-11.184h-3.236l-2.947,11.245-2.552-11.245H347.4l3.9,14.5,3.4-.02,2.843-10.312,2.717,10.312h3.423l4.045-14.483Z" transform="translate(-276.744 -512.351)" fill="#fff"/>
          <path id="Path_11637" data-name="Path 11637" d="M517.83,643.04v14.5h8.4v-2.366h-5.5V651.34h4.875v-2.3h-4.875v-3.63h5.5V643.04Z" transform="translate(-412.511 -512.255)" fill="#fff"/>
          <g id="Group_74318" data-name="Group 74318">
            <g id="Group_74317" data-name="Group 74317" clip-path="url(#clip-path-5)">
              <path id="Path_11638" data-name="Path 11638" d="M646,650.413c0,4.379-3.008,7.22-7.635,7.22H633.3V643.15h5.062c4.627,0,7.635,2.865,7.635,7.262m-7.739,4.751c3.051,0,4.772-1.743,4.772-4.751s-1.722-4.814-4.772-4.814H636.2v9.565Z" transform="translate(-504.496 -512.343)" fill="#fff"/>
              <path id="Path_11639" data-name="Path 11639" d="M761.71,643.16h3.279l3.112,6.618,3.091-6.618h3.236l-4.9,9.441v5.042h-2.9V652.6Z" transform="translate(-606.789 -512.351)" fill="#fff"/>
            </g>
          </g>
        </g>
      </g>
    </g>
  </g>
</svg>
