<svg xmlns="http://www.w3.org/2000/svg" width="959.75" height="590.784" viewBox="0 0 959.75 590.784">
  <g id="Group_82896" data-name="Group 82896" transform="translate(-2263.523 -1150.249)">
    <g id="Group_82575" data-name="Group 82575" transform="translate(2263.523 1709.585)" opacity="0.2">
      <g id="Group_82574" data-name="Group 82574">
        <g id="Group_82573" data-name="Group 82573">
          <g id="Group_82572" data-name="Group 82572">
            <g id="Group_82571" data-name="Group 82571">
              <ellipse id="Ellipse_372" data-name="Ellipse 372" cx="479.875" cy="15.724" rx="479.875" ry="15.724" fill="#9fa6bc"/>
            </g>
          </g>
        </g>
      </g>
    </g>
    <g id="Group_82586" data-name="Group 82586" transform="translate(2665.672 1661.57)">
      <g id="Group_82580" data-name="Group 82580" transform="translate(0.571)">
        <g id="Group_82579" data-name="Group 82579">
          <g id="Group_82578" data-name="Group 82578">
            <g id="Group_82577" data-name="Group 82577">
              <g id="Group_82576" data-name="Group 82576">
                <path id="Path_11997" data-name="Path 11997" d="M3431.143,2603.043l-12-11.414-18.522,22.87s-4.748,2.963.963,9.917l24.682,25.133s9.192-5.437,7.063-14.407c0,0-9.348-9.145-8.312-20.09Z" transform="translate(-3398.767 -2591.63)" fill="#ffaa85"/>
              </g>
            </g>
          </g>
        </g>
      </g>
      <g id="Group_82585" data-name="Group 82585" transform="translate(0 10.288)">
        <g id="Group_82584" data-name="Group 82584">
          <g id="Group_82583" data-name="Group 82583">
            <g id="Group_82582" data-name="Group 82582">
              <g id="Group_82581" data-name="Group 82581">
                <path id="Path_11998" data-name="Path 11998" d="M3431.224,2652.58c-8.872-3.143-12.965,7.346-12.965,7.346l-13.341-14.43c6.969-5.182,4.745-19.837,4.745-19.837,5.9,4.869,10.315,7.373,14.311,8.107l1.3-2.554a20.421,20.421,0,0,1-15.509-10.58l-10.4,11.587a8.273,8.273,0,0,0-2.155,6.454c1.463,12.254,21.757,27.549,29.635,33.061a8.033,8.033,0,0,0,8.985.289C3443.855,2666.715,3431.224,2652.58,3431.224,2652.58Z" transform="translate(-3397.156 -2620.632)" fill="#ffc363"/>
              </g>
            </g>
          </g>
        </g>
      </g>
    </g>
    <g id="Group_82597" data-name="Group 82597" transform="translate(2770.567 1681.371)">
      <g id="Group_82591" data-name="Group 82591" transform="translate(0.598)">
        <g id="Group_82590" data-name="Group 82590">
          <g id="Group_82589" data-name="Group 82589">
            <g id="Group_82588" data-name="Group 82588">
              <g id="Group_82587" data-name="Group 82587">
                <path id="Path_11999" data-name="Path 11999" d="M3712.187,2648.192l-16.323-.743-1.125,28.169s-2.035,5.214,6.7,7.374l34.811,5.391s4.117-9.854-2.952-15.771c0,0-12.961-1.742-18.674-11.135Z" transform="translate(-3694.533 -2647.449)" fill="#ffaa85"/>
              </g>
            </g>
          </g>
        </g>
      </g>
      <g id="Group_82596" data-name="Group 82596" transform="translate(0 11.202)">
        <g id="Group_82595" data-name="Group 82595">
          <g id="Group_82594" data-name="Group 82594">
            <g id="Group_82593" data-name="Group 82593">
              <g id="Group_82592" data-name="Group 82592">
                <path id="Path_12000" data-name="Path 12000" d="M3730.594,2692.6c-8.99,2.784-6,13.639-6,13.639l-19.321-3.592c2.488-8.321-8.056-18.739-8.056-18.739,7.636.379,12.677-.257,16.319-2.056l-.518-2.825a20.334,20.334,0,0,1-18.721.789l-1.413,15.5a8.3,8.3,0,0,0,2.139,6.485c8.508,8.939,33.906,9.067,43.512,8.776a8.032,8.032,0,0,0,7.374-5.14C3749.171,2696.379,3730.594,2692.6,3730.594,2692.6Z" transform="translate(-3692.847 -2679.028)" fill="#ffc363"/>
              </g>
            </g>
          </g>
        </g>
      </g>
    </g>
    <g id="Group_82688" data-name="Group 82688" transform="translate(2916.701 1150.249)">
      <g id="Group_82602" data-name="Group 82602" transform="translate(78.269 59.504)">
        <g id="Group_82601" data-name="Group 82601">
          <g id="Group_82600" data-name="Group 82600">
            <g id="Group_82599" data-name="Group 82599">
              <g id="Group_82598" data-name="Group 82598">
                <path id="Path_12001" data-name="Path 12001" d="M4344.823,1460.8s-30.812-49.429-14.764-96.29,23.751-42.368,33.38-44.935,20.542-5.777,35.949,23.751c16.1,30.856,32.688,68,14.764,100.142,0,0,5.136,35.306-27.6,21.826S4344.823,1460.8,4344.823,1460.8Z" transform="translate(-4325.427 -1317.987)" fill="#fec56b"/>
              </g>
            </g>
          </g>
        </g>
      </g>
      <g id="Group_82607" data-name="Group 82607" transform="translate(99.598 114.014)">
        <g id="Group_82606" data-name="Group 82606">
          <g id="Group_82605" data-name="Group 82605">
            <g id="Group_82604" data-name="Group 82604">
              <g id="Group_82603" data-name="Group 82603">
                <path id="Path_12002" data-name="Path 12002" d="M4388.258,1477.661l-2.707,33.872h23.755l-2.572-39.885Z" transform="translate(-4385.552 -1471.647)" fill="#f79b86"/>
              </g>
            </g>
          </g>
        </g>
      </g>
      <g id="Group_82612" data-name="Group 82612" transform="translate(50.725 33.679)">
        <g id="Group_82611" data-name="Group 82611">
          <g id="Group_82610" data-name="Group 82610">
            <g id="Group_82609" data-name="Group 82609">
              <g id="Group_82608" data-name="Group 82608">
                <path id="Path_12003" data-name="Path 12003" d="M4298.25,1345.466s2.221,24.973,21,1.865c8.388-4.375,16.612-9.127,24.6-14.188a133.185,133.185,0,0,0,16.348-11.7c10.422-9.073,10.417-25.422,9.617-38.06,0,0,9.746-6.407,19.856-2.555,0,0,11.571,33.9-8.167,53.638s-28.421,27.723-29.865,31.574-10.591,3.37-18.294,59.215l-1.926,14.291-66.216,3.412s-12.255-43.7-2.146-84.62c0,0-31.132-70.288-4.493-111.691,0,0,13.159-4.333,20.38,1.926C4278.94,1248.575,4253.477,1329.1,4298.25,1345.466Z" transform="translate(-4247.783 -1245.188)" fill="#7db5ff"/>
              </g>
            </g>
          </g>
        </g>
      </g>
      <g id="Group_82617" data-name="Group 82617" transform="translate(58.614 0)">
        <g id="Group_82616" data-name="Group 82616">
          <g id="Group_82615" data-name="Group 82615">
            <g id="Group_82614" data-name="Group 82614">
              <g id="Group_82613" data-name="Group 82613">
                <path id="Path_12004" data-name="Path 12004" d="M4273.53,1187.309l.492-2.432a12.9,12.9,0,0,0-1.543-7.427c-3.073-5.6-3.687-19.928.623-24.143,5.86-5.733,11.621-4.938,12.072,15.9,0,0,5.373-15.934,7.253-5.118s-2.2,25.664-2.2,25.664Z" transform="translate(-4270.022 -1150.249)" fill="#ffa289"/>
              </g>
            </g>
          </g>
        </g>
      </g>
      <g id="Group_82622" data-name="Group 82622" transform="translate(172.754 34.428)">
        <g id="Group_82621" data-name="Group 82621">
          <g id="Group_82620" data-name="Group 82620">
            <g id="Group_82619" data-name="Group 82619">
              <g id="Group_82618" data-name="Group 82618">
                <path id="Path_12005" data-name="Path 12005" d="M4608.766,1285.37l.367-3.147a12.909,12.909,0,0,1,2.234-7.248c3.585-5.283,5.544-19.493,1.649-24.1-5.3-6.258-11.105-6.008-13.512,14.693,0,0-3.852-16.368-6.74-5.777s1.471,26.1,1.471,26.1Z" transform="translate(-4591.775 -1247.299)" fill="#ffa289"/>
              </g>
            </g>
          </g>
        </g>
      </g>
      <g id="Group_82627" data-name="Group 82627" transform="translate(131.418 96.072)">
        <g id="Group_82626" data-name="Group 82626">
          <g id="Group_82625" data-name="Group 82625">
            <g id="Group_82624" data-name="Group 82624">
              <g id="Group_82623" data-name="Group 82623">
                <path id="Path_12006" data-name="Path 12006" d="M4476.468,1422.278s8.2-4.323,7.342,3.38-8.559,5.777-8.559,5.777Z" transform="translate(-4475.251 -1421.069)" fill="#f79b86"/>
              </g>
            </g>
          </g>
        </g>
      </g>
      <g id="Group_82632" data-name="Group 82632" transform="translate(128.333 98.023)">
        <g id="Group_82631" data-name="Group 82631">
          <g id="Group_82630" data-name="Group 82630">
            <g id="Group_82629" data-name="Group 82629">
              <g id="Group_82628" data-name="Group 82628">
                <path id="Path_12007" data-name="Path 12007" d="M4466.555,1426.571" transform="translate(-4466.555 -1426.571)" fill="#f79b86"/>
              </g>
            </g>
          </g>
        </g>
      </g>
      <g id="Group_82637" data-name="Group 82637" transform="translate(138.756 464.571)">
        <g id="Group_82636" data-name="Group 82636">
          <g id="Group_82635" data-name="Group 82635">
            <g id="Group_82634" data-name="Group 82634">
              <g id="Group_82633" data-name="Group 82633">
                <path id="Path_12008" data-name="Path 12008" d="M4495.938,2470.893l13.415,17.357,10.122-15.959-10.122-12.445Z" transform="translate(-4495.938 -2459.846)" fill="#ffa083"/>
              </g>
            </g>
          </g>
        </g>
      </g>
      <g id="Group_82642" data-name="Group 82642" transform="translate(132.68 471.856)">
        <g id="Group_82641" data-name="Group 82641">
          <g id="Group_82640" data-name="Group 82640">
            <g id="Group_82639" data-name="Group 82639">
              <g id="Group_82638" data-name="Group 82638">
                <path id="Path_12009" data-name="Path 12009" d="M4489.416,2490.007s7.373,11.219,14.81-9.624l18.574,22.5,5.379.2,2.394,5.258-15.492,11.285-1.158-3.7s-7.718,16.739-29.266,28.667c0,0-14.826-7,2.735-21.876C4487.392,2522.707,4498.6,2515.979,4489.416,2490.007Z" transform="translate(-4478.809 -2480.383)" fill="#664106"/>
              </g>
            </g>
          </g>
        </g>
      </g>
      <g id="Group_82647" data-name="Group 82647" transform="translate(61.006 424.037)">
        <g id="Group_82646" data-name="Group 82646">
          <g id="Group_82645" data-name="Group 82645">
            <g id="Group_82644" data-name="Group 82644">
              <g id="Group_82643" data-name="Group 82643">
                <path id="Path_12010" data-name="Path 12010" d="M4276.764,2357.474l14.507,16.455,12.486-13.612-14.319-14.733Z" transform="translate(-4276.764 -2345.584)" fill="#ffa083"/>
              </g>
            </g>
          </g>
        </g>
      </g>
      <g id="Group_82652" data-name="Group 82652" transform="translate(61.004 433.365)">
        <g id="Group_82651" data-name="Group 82651">
          <g id="Group_82650" data-name="Group 82650">
            <g id="Group_82649" data-name="Group 82649">
              <g id="Group_82648" data-name="Group 82648">
                <path id="Path_12011" data-name="Path 12011" d="M4283.826,2382.455s8.6,10.7,14.675-10.575l20.033,21.209,5.38-.152,2.729,5.092-14.731,12.262-1.395-3.622s-6.622,17.2-27.354,30.5c0,0-15.248-6.031,1.316-22.007C4284.479,2415.158,4294.665,2407.78,4283.826,2382.455Z" transform="translate(-4276.76 -2371.88)" fill="#664106"/>
              </g>
            </g>
          </g>
        </g>
      </g>
      <g id="Group_82657" data-name="Group 82657" transform="translate(0 228.039)">
        <g id="Group_82656" data-name="Group 82656">
          <g id="Group_82655" data-name="Group 82655">
            <g id="Group_82654" data-name="Group 82654">
              <g id="Group_82653" data-name="Group 82653">
                <path id="Path_12012" data-name="Path 12012" d="M4172.934,1796.489s3.656,2.6,2.571,30.638a18.728,18.728,0,0,1-4.936,11.944c-15.506,16.87-65.33,72.024-65.737,84.625-.481,14.924,2.408,44.772,63.067,81.843l14.924-14.924s-33.739-30.33-39.015-46.217,61.161-76.547,61.161-76.547-39.958,83.768-13.479,114.1l49.1,61.141,16.369-13.48c-6.805-9.218-13.155-18.83-19.047-28.653a164.742,164.742,0,0,1-11.918-22.92c-5.6-13.892-2.12-33.265.638-47.932,3.98-21.173,13.233-41.109,23.588-59.847,30.33-54.882-11.072-77.18-11.072-77.18Z" transform="translate(-4104.792 -1793.077)" fill="#d15f54"/>
              </g>
            </g>
          </g>
        </g>
      </g>
      <g id="Group_82662" data-name="Group 82662" transform="translate(103.449 150.165)">
        <g id="Group_82661" data-name="Group 82661">
          <g id="Group_82660" data-name="Group 82660">
            <g id="Group_82659" data-name="Group 82659">
              <g id="Group_82658" data-name="Group 82658">
                <circle id="Ellipse_373" data-name="Ellipse 373" cx="2.461" cy="2.461" r="2.461" fill="#d15f54"/>
              </g>
            </g>
          </g>
        </g>
      </g>
      <g id="Group_82667" data-name="Group 82667" transform="translate(103.449 159.794)">
        <g id="Group_82666" data-name="Group 82666">
          <g id="Group_82665" data-name="Group 82665">
            <g id="Group_82664" data-name="Group 82664">
              <g id="Group_82663" data-name="Group 82663">
                <path id="Path_12013" data-name="Path 12013" d="M4401.331,1603.16a2.461,2.461,0,1,1-2.46-2.461A2.461,2.461,0,0,1,4401.331,1603.16Z" transform="translate(-4396.409 -1600.699)" fill="#d15f54"/>
              </g>
            </g>
          </g>
        </g>
      </g>
      <g id="Group_82672" data-name="Group 82672" transform="translate(103.449 169.423)">
        <g id="Group_82671" data-name="Group 82671">
          <g id="Group_82670" data-name="Group 82670">
            <g id="Group_82669" data-name="Group 82669">
              <g id="Group_82668" data-name="Group 82668">
                <path id="Path_12014" data-name="Path 12014" d="M4401.331,1630.3a2.461,2.461,0,1,1-2.46-2.461A2.46,2.46,0,0,1,4401.331,1630.3Z" transform="translate(-4396.409 -1627.843)" fill="#d15f54"/>
              </g>
            </g>
          </g>
        </g>
      </g>
      <g id="Group_82677" data-name="Group 82677" transform="translate(101.935 114.334)">
        <g id="Group_82676" data-name="Group 82676">
          <g id="Group_82675" data-name="Group 82675">
            <g id="Group_82674" data-name="Group 82674">
              <g id="Group_82673" data-name="Group 82673">
                <path id="Path_12015" data-name="Path 12015" d="M4392.14,1483.188c3.5,2.969,3.409,8.223,19.53-1.762l-.684-8.875-18.477,6.014Z" transform="translate(-4392.14 -1472.551)" fill="#da765e"/>
              </g>
            </g>
          </g>
        </g>
      </g>
      <g id="Group_82682" data-name="Group 82682" transform="translate(91.749 73.284)">
        <g id="Group_82681" data-name="Group 82681">
          <g id="Group_82680" data-name="Group 82680">
            <g id="Group_82679" data-name="Group 82679">
              <g id="Group_82678" data-name="Group 82678">
                <path id="Path_12016" data-name="Path 12016" d="M4404.649,1382.509c2.871,14.35-8.2,25.568-21.848,27.36a15.077,15.077,0,0,1-14.464-6.416c-5.729-8.407-10.586-24.552,10.634-46.621h20.542S4404.641,1382.464,4404.649,1382.509Z" transform="translate(-4363.429 -1356.832)" fill="#f79b86"/>
              </g>
            </g>
          </g>
        </g>
      </g>
      <g id="Group_82687" data-name="Group 82687" transform="translate(90.175 64.895)">
        <g id="Group_82686" data-name="Group 82686">
          <g id="Group_82685" data-name="Group 82685">
            <g id="Group_82684" data-name="Group 82684">
              <g id="Group_82683" data-name="Group 82683">
                <path id="Path_12017" data-name="Path 12017" d="M4358.99,1363.67l18.4-15.94-3.608,7.549,11.312-7.549,16.354,17.84,1.841-28.748-26.319-3.638Z" transform="translate(-4358.99 -1333.185)" fill="#fec56b"/>
              </g>
            </g>
          </g>
        </g>
      </g>
    </g>
    <g id="Group_82829" data-name="Group 82829" transform="translate(2391.019 1150.249)">
      <g id="Group_82693" data-name="Group 82693" transform="translate(10.37 503.106)">
        <g id="Group_82692" data-name="Group 82692">
          <g id="Group_82691" data-name="Group 82691">
            <g id="Group_82690" data-name="Group 82690">
              <g id="Group_82689" data-name="Group 82689">
                <path id="Path_12018" data-name="Path 12018" d="M2661.068,2568.474l-8.91,16.085,17.277.753,5.7-11.685Z" transform="translate(-2652.158 -2568.474)" fill="#f3a88b"/>
              </g>
            </g>
          </g>
        </g>
      </g>
      <g id="Group_82717" data-name="Group 82717" transform="translate(0 512.341)">
        <g id="Group_82698" data-name="Group 82698">
          <g id="Group_82697" data-name="Group 82697">
            <g id="Group_82696" data-name="Group 82696">
              <g id="Group_82695" data-name="Group 82695">
                <g id="Group_82694" data-name="Group 82694">
                  <path id="Path_12019" data-name="Path 12019" d="M2636.463,2594.507l-11.709,14.215a7.372,7.372,0,0,0-.707,8.766c4.64,7.408,14.477,21.249,25.215,24.995,9.188,3.2,11.512-2.3,11.947-6.981.575-6.22-7.383-6.606-8.732-11.206-.884-3.015.171-7.694.244-10.869l-.621-13.027-15.637-5.892" transform="translate(-2622.927 -2594.507)" fill="#1558a0"/>
                </g>
              </g>
            </g>
          </g>
        </g>
        <g id="Group_82707" data-name="Group 82707" transform="translate(18.924 13.414)">
          <g id="Group_82702" data-name="Group 82702" transform="translate(0.356 1.786)">
            <g id="Group_82701" data-name="Group 82701">
              <g id="Group_82700" data-name="Group 82700">
                <g id="Group_82699" data-name="Group 82699">
                  <line id="Line_74" data-name="Line 74" x1="10.391" y1="2.071" fill="#f3a88b"/>
                </g>
              </g>
            </g>
          </g>
          <g id="Group_82706" data-name="Group 82706">
            <g id="Group_82705" data-name="Group 82705">
              <g id="Group_82704" data-name="Group 82704">
                <g id="Group_82703" data-name="Group 82703">
                  <rect id="Rectangle_3973" data-name="Rectangle 3973" width="3.642" height="10.596" transform="translate(0 3.572) rotate(-78.726)"/>
                </g>
              </g>
            </g>
          </g>
        </g>
        <g id="Group_82716" data-name="Group 82716" transform="translate(18.807 21.64)">
          <g id="Group_82711" data-name="Group 82711" transform="translate(0.349 1.787)">
            <g id="Group_82710" data-name="Group 82710">
              <g id="Group_82709" data-name="Group 82709">
                <g id="Group_82708" data-name="Group 82708">
                  <line id="Line_75" data-name="Line 75" x1="10.639" y1="2.075" fill="#f3a88b"/>
                </g>
              </g>
            </g>
          </g>
          <g id="Group_82715" data-name="Group 82715">
            <g id="Group_82714" data-name="Group 82714">
              <g id="Group_82713" data-name="Group 82713">
                <g id="Group_82712" data-name="Group 82712">
                  <rect id="Rectangle_3974" data-name="Rectangle 3974" width="3.643" height="10.839" transform="translate(0 3.575) rotate(-78.963)"/>
                </g>
              </g>
            </g>
          </g>
        </g>
      </g>
      <g id="Group_82828" data-name="Group 82828" transform="translate(7.441 0)">
        <g id="Group_82722" data-name="Group 82722" transform="translate(165.552)">
          <g id="Group_82721" data-name="Group 82721">
            <g id="Group_82720" data-name="Group 82720">
              <g id="Group_82719" data-name="Group 82719">
                <g id="Group_82718" data-name="Group 82718">
                  <path id="Path_12020" data-name="Path 12020" d="M3127.572,1188.321l.367-3.146a12.907,12.907,0,0,1,2.234-7.249c3.585-5.283,5.544-19.493,1.65-24.1-5.3-6.258-11.105-6.008-13.512,14.693,0,0-3.851-16.369-6.74-5.777s1.471,26.1,1.471,26.1Z" transform="translate(-3110.582 -1150.25)" fill="#ffa289"/>
                </g>
              </g>
            </g>
          </g>
        </g>
        <g id="Group_82827" data-name="Group 82827">
          <g id="Group_82727" data-name="Group 82727" transform="translate(99.924 136.148)">
            <g id="Group_82726" data-name="Group 82726">
              <g id="Group_82725" data-name="Group 82725">
                <g id="Group_82724" data-name="Group 82724">
                  <g id="Group_82723" data-name="Group 82723">
                    <rect id="Rectangle_3975" data-name="Rectangle 3975" width="22.189" height="28.997" fill="#ffa289"/>
                  </g>
                </g>
              </g>
            </g>
          </g>
          <g id="Group_82732" data-name="Group 82732" transform="translate(23.534 37.371)">
            <g id="Group_82731" data-name="Group 82731">
              <g id="Group_82730" data-name="Group 82730">
                <g id="Group_82729" data-name="Group 82729">
                  <g id="Group_82728" data-name="Group 82728">
                    <path id="Path_12021" data-name="Path 12021" d="M2869.617,1256.284l-15.353.556c11.795,78.773-27.1,105.753-37.24,110.393-1.448.663-2.29.941-2.29.941l-5.914-2.111c-2.454,10.611-11.848,28.881-22.189-.214l-6.56,2.325c-64.511-29.848-44.679-111.674-44.679-111.674l-17.681-.9c-29.367,79.435,37.326,136.167,37.326,136.167l-4.814,112.172h90.508L2843,1391.312C2899.33,1314.766,2869.617,1256.284,2869.617,1256.284Z" transform="translate(-2710.241 -1255.597)" fill="#d35e54"/>
                  </g>
                </g>
              </g>
            </g>
          </g>
          <g id="Group_82737" data-name="Group 82737" transform="translate(99.924 138.045)">
            <g id="Group_82736" data-name="Group 82736">
              <g id="Group_82735" data-name="Group 82735">
                <g id="Group_82734" data-name="Group 82734">
                  <g id="Group_82733" data-name="Group 82733">
                    <path id="Path_12022" data-name="Path 12022" d="M2925.58,1539.389s8.708,22.964,22.189,0Z" transform="translate(-2925.58 -1539.389)" fill="#da765e"/>
                  </g>
                </g>
              </g>
            </g>
          </g>
          <g id="Group_82742" data-name="Group 82742" transform="translate(90.476 95.066)">
            <g id="Group_82741" data-name="Group 82741">
              <g id="Group_82740" data-name="Group 82740">
                <g id="Group_82739" data-name="Group 82739">
                  <g id="Group_82738" data-name="Group 82738">
                    <path id="Path_12023" data-name="Path 12023" d="M2898.946,1446.675s19.738,47.661,40.44,0v-28.439h-40.44Z" transform="translate(-2898.946 -1418.236)" fill="#ffa289"/>
                  </g>
                </g>
              </g>
            </g>
          </g>
          <g id="Group_82747" data-name="Group 82747" transform="translate(130.915 114.759)">
            <g id="Group_82746" data-name="Group 82746">
              <g id="Group_82745" data-name="Group 82745">
                <g id="Group_82744" data-name="Group 82744">
                  <g id="Group_82743" data-name="Group 82743">
                    <path id="Path_12024" data-name="Path 12024" d="M3012.943,1476.959s6.282-7.222,4.677,0-4.677,5.536-4.677,5.536Z" transform="translate(-3012.943 -1473.749)" fill="#ffa289"/>
                  </g>
                </g>
              </g>
            </g>
          </g>
          <g id="Group_82752" data-name="Group 82752" transform="translate(85.536 114.759)">
            <g id="Group_82751" data-name="Group 82751">
              <g id="Group_82750" data-name="Group 82750">
                <g id="Group_82749" data-name="Group 82749">
                  <g id="Group_82748" data-name="Group 82748">
                    <path id="Path_12025" data-name="Path 12025" d="M2889.96,1476.959s-6.282-7.222-4.677,0,4.677,5.536,4.677,5.536Z" transform="translate(-2885.021 -1473.749)" fill="#ffa289"/>
                  </g>
                </g>
              </g>
            </g>
          </g>
          <g id="Group_82757" data-name="Group 82757" transform="translate(82.576 76.612)">
            <g id="Group_82756" data-name="Group 82756">
              <g id="Group_82755" data-name="Group 82755">
                <g id="Group_82754" data-name="Group 82754">
                  <g id="Group_82753" data-name="Group 82753">
                    <path id="Path_12026" data-name="Path 12026" d="M2884.577,1407.616c-.428.084-2.439-3.6-2.637-3.926a40.914,40.914,0,0,1-4.348-9.75c-2.624-9.215.4-17.751,9-22.45,6.577-3.6,15.266-3.937,22.54-5.277l-3.475,3.285c1.053-.574,7.252-3.1,15.544.5a19.459,19.459,0,0,1,10.2,10.942,22.1,22.1,0,0,1,1.472,8.1,25.489,25.489,0,0,1-2.7,10.452c-1.324,2.86-2.577,6.632-5.152,8.607,0,0-15.887-2.888-33.7-21.182C2891.317,1386.915,2889.391,1406.653,2884.577,1407.616Z" transform="translate(-2876.677 -1366.214)" fill="#2d2121"/>
                  </g>
                </g>
              </g>
            </g>
          </g>
          <g id="Group_82762" data-name="Group 82762" transform="translate(93.364 147.623)">
            <g id="Group_82761" data-name="Group 82761">
              <g id="Group_82760" data-name="Group 82760">
                <g id="Group_82759" data-name="Group 82759">
                  <g id="Group_82758" data-name="Group 82758">
                    <path id="Path_12027" data-name="Path 12027" d="M2913.649,1566.39l-6.56,2.325,11.362,23.138,6.152-9.415,7.329,9.415,9.82-23.138-5.914-2.111S2926.692,1601.594,2913.649,1566.39Z" transform="translate(-2907.089 -1566.39)" fill="#fec56b"/>
                  </g>
                </g>
              </g>
            </g>
          </g>
          <g id="Group_82767" data-name="Group 82767" transform="translate(25.679)">
            <g id="Group_82766" data-name="Group 82766">
              <g id="Group_82765" data-name="Group 82765">
                <g id="Group_82764" data-name="Group 82764">
                  <g id="Group_82763" data-name="Group 82763">
                    <path id="Path_12028" data-name="Path 12028" d="M2722.049,1187.643l.261-2.468a12.9,12.9,0,0,0-2.235-7.249c-3.585-5.283-5.544-19.493-1.65-24.1,5.3-6.258,11.106-6.008,13.513,14.693,0,0,3.851-16.369,6.74-5.777s.226,25.757.226,25.757Z" transform="translate(-2716.289 -1150.25)" fill="#ffa289"/>
                  </g>
                </g>
              </g>
            </g>
          </g>
          <g id="Group_82772" data-name="Group 82772" transform="translate(107.455 489.67)">
            <g id="Group_82771" data-name="Group 82771">
              <g id="Group_82770" data-name="Group 82770">
                <g id="Group_82769" data-name="Group 82769">
                  <g id="Group_82768" data-name="Group 82768">
                    <path id="Path_12029" data-name="Path 12029" d="M2957.909,2530.6l-11.1,13.749,14.9,6.032,5.784-8.693Z" transform="translate(-2946.811 -2530.601)" fill="#f3a88b"/>
                  </g>
                </g>
              </g>
            </g>
          </g>
          <g id="Group_82788" data-name="Group 82788" transform="translate(117.422 517.275)">
            <g id="Group_82777" data-name="Group 82777" transform="translate(0.11)">
              <g id="Group_82776" data-name="Group 82776">
                <g id="Group_82775" data-name="Group 82775">
                  <g id="Group_82774" data-name="Group 82774">
                    <g id="Group_82773" data-name="Group 82773">
                      <path id="Path_12030" data-name="Path 12030" d="M2975.217,2608.417" transform="translate(-2975.217 -2608.417)" fill="#f3a88b" stroke="#000" stroke-width="4"/>
                    </g>
                  </g>
                </g>
              </g>
            </g>
            <g id="Group_82782" data-name="Group 82782" transform="translate(9.753 1.916)">
              <g id="Group_82781" data-name="Group 82781">
                <g id="Group_82780" data-name="Group 82780">
                  <g id="Group_82779" data-name="Group 82779">
                    <g id="Group_82778" data-name="Group 82778">
                      <path id="Path_12031" data-name="Path 12031" d="M3002.4,2613.818" transform="translate(-3002.4 -2613.818)" fill="#f3a88b" stroke="#000" stroke-width="4"/>
                    </g>
                  </g>
                </g>
              </g>
            </g>
            <g id="Group_82787" data-name="Group 82787" transform="translate(0 7.634)">
              <g id="Group_82786" data-name="Group 82786">
                <g id="Group_82785" data-name="Group 82785">
                  <g id="Group_82784" data-name="Group 82784">
                    <g id="Group_82783" data-name="Group 82783">
                      <path id="Path_12032" data-name="Path 12032" d="M2974.906,2629.937" transform="translate(-2974.906 -2629.937)" fill="#f3a88b" stroke="#000" stroke-width="4"/>
                    </g>
                  </g>
                </g>
              </g>
            </g>
          </g>
          <g id="Group_82793" data-name="Group 82793" transform="translate(1.412 285.71)">
            <g id="Group_82792" data-name="Group 82792">
              <g id="Group_82791" data-name="Group 82791">
                <g id="Group_82790" data-name="Group 82790">
                  <g id="Group_82789" data-name="Group 82789">
                    <path id="Path_12033" data-name="Path 12033" d="M2709.985,1955.649s-2.407,100.136-62.1,216.16l29.848,14.925s65.473-175.236,83.77-194.979c-.061.053,15.809,26.488,16.9,28.437,12.388,22.055,26.446,48.128,19.806,73.936-5.976,23.229-21.833,44.191-39.119,60.35l26,24.553c1.3,1.1,33.8-44.623,36.222-49.118,13.894-25.747,13.489-60.646,9.646-88.9-4.111-30.222-14.978-59.158-30.463-85.363Z" transform="translate(-2647.881 -1955.649)" fill="#73b0ff"/>
                  </g>
                </g>
              </g>
            </g>
          </g>
          <g id="Group_82798" data-name="Group 82798" transform="translate(0 494.366)">
            <g id="Group_82797" data-name="Group 82797">
              <g id="Group_82796" data-name="Group 82796">
                <g id="Group_82795" data-name="Group 82795">
                  <g id="Group_82794" data-name="Group 82794">
                    <path id="Path_12034" data-name="Path 12034" d="M2647.844,2543.838l31.381,16.823-2.874,6.2-32.45-16.225Z" transform="translate(-2643.901 -2543.838)" fill="#1558a0"/>
                  </g>
                </g>
              </g>
            </g>
          </g>
          <g id="Group_82803" data-name="Group 82803" transform="translate(109.22 480.862)">
            <g id="Group_82802" data-name="Group 82802">
              <g id="Group_82801" data-name="Group 82801">
                <g id="Group_82800" data-name="Group 82800">
                  <g id="Group_82799" data-name="Group 82799">
                    <path id="Path_12035" data-name="Path 12035" d="M2957.194,2505.771l28.4,26.457-4.928,6.46-28.88-26.788Z" transform="translate(-2951.786 -2505.771)" fill="#1558a0"/>
                  </g>
                </g>
              </g>
            </g>
          </g>
          <g id="Group_82808" data-name="Group 82808" transform="translate(95.066 498.882)">
            <g id="Group_82807" data-name="Group 82807">
              <g id="Group_82806" data-name="Group 82806">
                <g id="Group_82805" data-name="Group 82805">
                  <g id="Group_82804" data-name="Group 82804">
                    <path id="Path_12036" data-name="Path 12036" d="M2927.232,2556.567l-13.025,13.02a7.371,7.371,0,0,0-1.549,8.657c3.9,7.821,12.361,22.546,22.687,27.31,8.836,4.076,11.681-1.18,12.565-5.8,1.173-6.135-6.712-7.287-7.611-12-.589-3.086.913-7.641,1.291-10.795l.638-13.027-15-7.372" transform="translate(-2911.885 -2556.567)" fill="#1558a0"/>
                  </g>
                </g>
              </g>
            </g>
          </g>
          <g id="Group_82817" data-name="Group 82817" transform="translate(113.749 514.185)">
            <g id="Group_82812" data-name="Group 82812" transform="translate(0.527 1.744)">
              <g id="Group_82811" data-name="Group 82811">
                <g id="Group_82810" data-name="Group 82810">
                  <g id="Group_82809" data-name="Group 82809">
                    <line id="Line_76" data-name="Line 76" x1="10.143" y1="3.063" fill="#f3a88b"/>
                  </g>
                </g>
              </g>
            </g>
            <g id="Group_82816" data-name="Group 82816">
              <g id="Group_82815" data-name="Group 82815">
                <g id="Group_82814" data-name="Group 82814">
                  <g id="Group_82813" data-name="Group 82813">
                    <rect id="Rectangle_3976" data-name="Rectangle 3976" width="3.644" height="10.595" transform="translate(0 3.488) rotate(-73.201)"/>
                  </g>
                </g>
              </g>
            </g>
          </g>
          <g id="Group_82826" data-name="Group 82826" transform="translate(112.839 522.36)">
            <g id="Group_82821" data-name="Group 82821" transform="translate(0.52 1.746)">
              <g id="Group_82820" data-name="Group 82820">
                <g id="Group_82819" data-name="Group 82819">
                  <g id="Group_82818" data-name="Group 82818">
                    <line id="Line_77" data-name="Line 77" x1="10.389" y1="3.091" fill="#f3a88b"/>
                  </g>
                </g>
              </g>
            </g>
            <g id="Group_82825" data-name="Group 82825" transform="translate(0 0)">
              <g id="Group_82824" data-name="Group 82824">
                <g id="Group_82823" data-name="Group 82823">
                  <g id="Group_82822" data-name="Group 82822">
                    <rect id="Rectangle_3977" data-name="Rectangle 3977" width="3.643" height="10.839" transform="translate(0 3.492) rotate(-73.428)"/>
                  </g>
                </g>
              </g>
            </g>
          </g>
        </g>
      </g>
    </g>
    <g id="Group_82834" data-name="Group 82834" transform="translate(2757.262 1258.826)">
      <g id="Group_82833" data-name="Group 82833" transform="translate(0)">
        <g id="Group_82832" data-name="Group 82832">
          <g id="Group_82831" data-name="Group 82831">
            <g id="Group_82830" data-name="Group 82830">
              <path id="Path_12037" data-name="Path 12037" d="M3679.487,1527.128s-3.241,10.059-10.632,1.638-15.051,8.919-11.672-19.518c0,0-5.988-17.323,3.639-26.6a9.977,9.977,0,0,0,2.912-8.239c-.853-8.177-.035-21.874,16.88-14.63,0,0-.412-3.867,6.7,1.235a8.209,8.209,0,0,0,11.232-1.644c3.255-4.1,9.559-5.847,21.523,6.466,0,0,24.448,30.659,10.263,44.966a11.322,11.322,0,0,0-3.381,8.02c.031,4.661-1.443,11.183-9.394,13.3-12.842,3.423.225,13.615-17.348,3.723S3679.487,1527.128,3679.487,1527.128Z" transform="translate(-3655.342 -1456.32)" fill="#012f51"/>
            </g>
          </g>
        </g>
      </g>
    </g>
    <g id="Group_82839" data-name="Group 82839" transform="translate(2774.005 1330.399)">
      <g id="Group_82838" data-name="Group 82838">
        <g id="Group_82837" data-name="Group 82837">
          <g id="Group_82836" data-name="Group 82836">
            <g id="Group_82835" data-name="Group 82835">
              <path id="Path_12038" data-name="Path 12038" d="M3710.552,1661.009l-8.013,25.665,28.129,4.975V1658.08h-19.625Z" transform="translate(-3702.539 -1658.08)" fill="#fa9173"/>
            </g>
          </g>
        </g>
      </g>
    </g>
    <g id="Group_82844" data-name="Group 82844" transform="translate(2690.388 1198.669)">
      <g id="Group_82843" data-name="Group 82843" transform="translate(0 0)">
        <g id="Group_82842" data-name="Group 82842">
          <g id="Group_82841" data-name="Group 82841">
            <g id="Group_82840" data-name="Group 82840">
              <path id="Path_12039" data-name="Path 12039" d="M3488.17,1413.721s-18.639-8.317-21.343-34.677c0,0,10.548-32.231,31.646-53.04a6.645,6.645,0,0,0,.347-9.146c-6.835-7.72-17.993-22.846-7.661-29.734,0,0,8.111-4.055,12.166,14.193,0,0,6.759-24.332,14.87,6.083,1.406,5.273-2.724,15.07-4.533,19.783-5.955,15.511-35.88,52.29-11.688,66.73l3.988,4.029Z" transform="translate(-3466.828 -1286.741)" fill="#ffaa85"/>
            </g>
          </g>
        </g>
      </g>
    </g>
    <g id="Group_82849" data-name="Group 82849" transform="translate(2766.558 1395.438)">
      <g id="Group_82848" data-name="Group 82848">
        <g id="Group_82847" data-name="Group 82847">
          <g id="Group_82846" data-name="Group 82846">
            <g id="Group_82845" data-name="Group 82845">
              <path id="Path_12040" data-name="Path 12040" d="M3762.735,1841.42s13.865,32.739,1.554,44.242c0,0-19.308,21.9-48.785,18.87a6.645,6.645,0,0,0-7.275,5.554c-1.6,10.186-6.168,28.419-18.058,24.834,0,0-8.29-3.674,3.2-18.417,0,0-23.068,10.274-4.773-15.34,3.172-4.441,13.357-7.491,18.144-9.095,15.753-5.28,43.155,2.15,38.9-25.7l11.591-16.917Z" transform="translate(-3681.547 -1841.42)" fill="#ffaa85"/>
            </g>
          </g>
        </g>
      </g>
    </g>
    <g id="Group_82860" data-name="Group 82860" transform="translate(2707.285 1309.799)">
      <g id="Group_82854" data-name="Group 82854" transform="translate(0 0)">
        <g id="Group_82853" data-name="Group 82853">
          <g id="Group_82852" data-name="Group 82852">
            <g id="Group_82851" data-name="Group 82851">
              <g id="Group_82850" data-name="Group 82850">
                <path id="Path_12041" data-name="Path 12041" d="M3588.458,1627.828s-13.62,37.954,20.849,9.566c0,0,49.79,30.3,49.114,43.144l-20.6,30.059a8.509,8.509,0,0,1-11.206,2.6l-8.75-4.946s-23.132,50.691-31.5,51.367l-61.091-31.091s20.952-33.794,19.6-69.616c0,0-20.953-8.11-30.415-32.442,0,0,9.462-31.766,28.387-25.683l29.063,22.3S3584.4,1623.1,3588.458,1627.828Z" transform="translate(-3514.459 -1600.01)" fill="#f4a910"/>
              </g>
            </g>
          </g>
        </g>
      </g>
      <g id="Group_82859" data-name="Group 82859" transform="translate(54.442 92.566)">
        <g id="Group_82858" data-name="Group 82858">
          <g id="Group_82857" data-name="Group 82857">
            <g id="Group_82856" data-name="Group 82856">
              <g id="Group_82855" data-name="Group 82855">
                <path id="Path_12042" data-name="Path 12042" d="M3667.928,1919.1l55.727-58.152-6.759,15.673h0s-24.289,55.039-31.5,51.367Z" transform="translate(-3667.928 -1860.949)" fill="#bf8010"/>
              </g>
            </g>
          </g>
        </g>
      </g>
    </g>
    <g id="Group_82865" data-name="Group 82865" transform="translate(2686.328 1460.518)">
      <g id="Group_82864" data-name="Group 82864" transform="translate(0)">
        <g id="Group_82863" data-name="Group 82863">
          <g id="Group_82862" data-name="Group 82862">
            <g id="Group_82861" data-name="Group 82861">
              <path id="Path_12043" data-name="Path 12043" d="M3466.924,2241.936c4.285-.239,18.924-8.787,47.627-50.691s45.447-137.2,33.695-157.48l-17.463-8.888-30.11,25.109,2.89,80.639-48.174,89.683S3454.8,2242.612,3466.924,2241.936Z" transform="translate(-3455.383 -2024.877)" fill="#036b6c"/>
            </g>
          </g>
        </g>
      </g>
    </g>
    <g id="Group_82870" data-name="Group 82870" transform="translate(2697.868 1438.315)">
      <g id="Group_82869" data-name="Group 82869" transform="translate(0 0)">
        <g id="Group_82868" data-name="Group 82868">
          <g id="Group_82867" data-name="Group 82867">
            <g id="Group_82866" data-name="Group 82866">
              <path id="Path_12044" data-name="Path 12044" d="M3508.146,1962.288s-52.043,31.766,10.814,109.493l40.553,133.825s20.953,8.111,23.656-3.379l-19.6-129.094-22.3-64.885s-2.637-3.582,10.51-23.757Z" transform="translate(-3487.915 -1962.288)" fill="#0d8f91"/>
            </g>
          </g>
        </g>
      </g>
    </g>
    <g id="Group_82875" data-name="Group 82875" transform="translate(2810.259 1299.941)">
      <g id="Group_82874" data-name="Group 82874">
        <g id="Group_82873" data-name="Group 82873">
          <g id="Group_82872" data-name="Group 82872">
            <g id="Group_82871" data-name="Group 82871">
              <path id="Path_12045" data-name="Path 12045" d="M3805.578,1575.237s8.573-7.145,7.717.559-8.559,5.777-8.559,5.777Z" transform="translate(-3804.736 -1572.221)" fill="#fa9173"/>
            </g>
          </g>
        </g>
      </g>
    </g>
    <g id="Group_82880" data-name="Group 82880" transform="translate(2764.93 1305.297)">
      <g id="Group_82879" data-name="Group 82879" transform="translate(0 0)">
        <g id="Group_82878" data-name="Group 82878">
          <g id="Group_82877" data-name="Group 82877">
            <g id="Group_82876" data-name="Group 82876">
              <path id="Path_12046" data-name="Path 12046" d="M3685.146,1590.495s-9.027-7.522-8.125.588,9.012,6.083,9.012,6.083Z" transform="translate(-3676.957 -1587.319)" fill="#fa9173"/>
            </g>
          </g>
        </g>
      </g>
    </g>
    <g id="Group_82885" data-name="Group 82885" transform="translate(2782.509 1330.399)">
      <g id="Group_82884" data-name="Group 82884" transform="translate(0 0)">
        <g id="Group_82883" data-name="Group 82883">
          <g id="Group_82882" data-name="Group 82882">
            <g id="Group_82881" data-name="Group 82881">
              <path id="Path_12047" data-name="Path 12047" d="M3726.511,1658.08s6.268,18.042,19.625,0Z" transform="translate(-3726.511 -1658.08)" fill="#f4785b"/>
            </g>
          </g>
        </g>
      </g>
    </g>
    <g id="Group_82890" data-name="Group 82890" transform="translate(2770.774 1281.526)">
      <g id="Group_82889" data-name="Group 82889" transform="translate(0)">
        <g id="Group_82888" data-name="Group 82888">
          <g id="Group_82887" data-name="Group 82887">
            <g id="Group_82886" data-name="Group 82886">
              <path id="Path_12048" data-name="Path 12048" d="M3696.1,1520.31l-2.664,33.843s19.56,45.113,44.9,0V1520.31Z" transform="translate(-3693.432 -1520.31)" fill="#fa9173"/>
            </g>
          </g>
        </g>
      </g>
    </g>
    <g id="Group_82895" data-name="Group 82895" transform="translate(2766.558 1267.992)">
      <g id="Group_82894" data-name="Group 82894">
        <g id="Group_82893" data-name="Group 82893">
          <g id="Group_82892" data-name="Group 82892">
            <g id="Group_82891" data-name="Group 82891">
              <path id="Path_12049" data-name="Path 12049" d="M3681.547,1514.863l3.246,4.47s11.7-2.869,16.9-21.628c0,0,6.588,24.063,28.977,21.325l11.238-2.062-9.462-30.542-40.215-4.266Z" transform="translate(-3681.547 -1482.16)" fill="#012f51"/>
            </g>
          </g>
        </g>
      </g>
    </g>
  </g>
</svg>
