<svg xmlns="http://www.w3.org/2000/svg" width="756.969" height="467.101" viewBox="0 0 756.969 467.101">
  <g id="Group_82512" data-name="Group 82512" transform="translate(-15.725 -130.799)">
    <g id="Group_82401" data-name="Group 82401" transform="translate(41.42 365.113)" opacity="0.72">
      <path id="Path_11750" data-name="Path 11750" d="M77.494,287.49c-16.407-21.115-40.44-16.342-45.247,9.492-1.59,8.538-.983,19.165,3.581,32.285,17.389,49.978,50.929,63.24,67.2,30.532C113.074,339.611,93.755,308.414,77.494,287.49Z" transform="translate(-31.453 -274.226)" fill="#bbe2f2"/>
      <path id="Path_11751" data-name="Path 11751" d="M443.795,307.282c-2.431,12.728,8.079,21.744,19.988,16.838,3.936-1.621,7.907-4.746,11.439-10.24,13.455-20.932,6.639-38.888-12.094-37.046C451.565,277.973,446.2,294.668,443.795,307.282Z" transform="translate(229.619 -272.655)" fill="#bbe2f2"/>
    </g>
    <g id="Group_82411" data-name="Group 82411" transform="translate(15.725 156.094)">
      <path id="Path_11752" data-name="Path 11752" d="M499.341,352.6c20.142-20.248,35.48-43.129,20.222-46.7s-40.924,36.305-45.394,72.6L469.7,390.483c3.72-26.394-5.324-58.543-18.567-59.868-13.156-1.317-5.194,19.537,5.257,37.372,7.956,13.576,10.052,24.286,10.575,29.821l-21.127,56.6c5.772-41.814-8.557-92.545-29.508-94.641-20.879-2.088-8.242,31,8.34,59.3,12.532,21.385,15.9,38.3,16.765,47.137l-4.212,11.284q2.762,1.556,5.543,3.079L467.9,413.229a81.217,81.217,0,0,1,22.7-11.542c19.581-6.623,39.261-17.159,28.461-24.786-9.374-6.618-31.413,6.123-46.593,24.105l8.693-23.287C485.072,370.975,490.648,361.335,499.341,352.6Z" transform="translate(231.219 -45.277)" fill="#6bd1bd"/>
      <path id="Path_11753" data-name="Path 11753" d="M96.122,189.439c2.612-24.455.578-48.091-11.593-42.262S76.618,193.62,93.182,220.4l3.455,10.459c-11.732-19.73-35.134-36.446-44.742-30.2-9.546,6.21,7.044,15.922,23.677,22.266,12.659,4.829,19.841,10.892,23.177,14.326l16.319,49.4C96.4,255.461,59.434,229.115,44.235,239c-15.146,9.851,11.178,25.262,37.568,35.327,19.942,7.606,31.324,17.149,36.666,22.618l3.254,9.85q2.7-.444,5.383-.921L107.69,247.107a69.965,69.965,0,0,1,9.02-19.985c9.58-15,17.118-32.687,5.752-31.986-9.864.608-17.8,21.044-18.3,41.3L97.45,216.114C96.447,209.473,94.995,199.994,96.122,189.439Z" transform="translate(-0.475 -146.282)" fill="#83ead6"/>
      <g id="Group_82404" data-name="Group 82404" transform="translate(593.282 191.389)">
        <g id="Group_82402" data-name="Group 82402">
          <path id="Path_11754" data-name="Path 11754" d="M380.193,446.628c.257,1.387.552,2.9.9,4.506v0c3.627,16.861,12.53,44.466,32.564,49.893,0,0-10.9-56.859,27.961-71.667s34.567-28.91,32.347-54.008-10.81-29.883,16.157-53.394,21.81-58.529,21.81-58.529-25.521,39.983-52.781,40.911-32.032,24.2-30.87,41.5-21.988,19.261-34.515,29.3-14.885,62.745-14.885,62.745S379.225,441.339,380.193,446.628Z" transform="translate(-378.88 -263.434)" fill="#83ead6"/>
        </g>
        <g id="Group_82403" data-name="Group 82403" transform="translate(1.313 51.159)">
          <path id="Path_11755" data-name="Path 11755" d="M379.684,426.784c.257,1.387.552,2.9.9,4.506a86.119,86.119,0,0,1,10.407-21.021c8.717-12.916,20.995-23.527,32.038-27.691,17.582-6.626,26.167-23.87,27.832-55.918.964-18.6,20.424-29.591,20.625-29.7a1.181,1.181,0,0,0-1.144-2.067c-.848.469-20.807,11.715-21.841,31.64-1.606,30.981-9.719,47.586-26.3,53.837-11.651,4.39-24.051,15.072-33.165,28.575A89.654,89.654,0,0,0,379.684,426.784Z" transform="translate(-379.684 -294.749)" fill="#62c4b2"/>
        </g>
      </g>
      <g id="Group_82407" data-name="Group 82407" transform="translate(0 272.263)">
        <g id="Group_82405" data-name="Group 82405">
          <path id="Path_11756" data-name="Path 11756" d="M180.128,469.352h27.31c-14.757-2.441-51.344-18.147-54.606-49.643-4.132-39.893-18.338-39.395-42.273-43.566s-30.53,2.64-45.729-28.331-49.105-34.874-49.105-34.874,30.9,33.721,24.989,59.347S55.295,408.148,71.7,411.368s12.478,25.276,18.714,39.442c2.846,6.464,14.5,13.166,26.322,18.542Z" transform="translate(-15.725 -312.938)" fill="#83ead6"/>
        </g>
        <g id="Group_82406" data-name="Group 82406" transform="translate(37.55 49.62)">
          <path id="Path_11757" data-name="Path 11757" d="M106.409,410.835c1.193,11.947,8.062,26.155,18.376,38,.363.417.74.84,1.124,1.266h3.109c-.89-.936-1.732-1.861-2.516-2.761-9.866-11.335-16.7-25.412-17.833-36.735-1.8-18.029-15.731-30.316-45.175-39.836C46.4,365.25,41,344.386,40.953,344.172a1.138,1.138,0,0,0-2.209.551c.225.908,5.739,22.3,24.046,28.217C91.254,382.141,104.708,393.83,106.409,410.835Z" transform="translate(-38.71 -343.311)" fill="#62c4b2"/>
        </g>
      </g>
      <g id="Group_82410" data-name="Group 82410" transform="translate(17.09 73.05)">
        <g id="Group_82408" data-name="Group 82408">
          <path id="Path_11758" data-name="Path 11758" d="M188.228,472.588c-.578,1.938-1.233,4.048-1.973,6.29l0,0c-7.765,23.5-23.693,63.078-53.11,67.742,0,0,23.282-81.008-29.887-108.108S58.388,391.962,65.416,356.5s20.014-40.971-14.842-78.654S28.458,191,28.458,191s30.261,60.961,69.005,66.475,41.976,39.445,37.658,63.954,28.408,30.857,44.734,47.1,11.591,91.8,11.591,91.8S190.424,465.19,188.228,472.588Z" transform="translate(-26.186 -190.997)" fill="#6bd1bd"/>
        </g>
        <g id="Group_82409" data-name="Group 82409" transform="translate(50.322 79.199)">
          <path id="Path_11759" data-name="Path 11759" d="M168.709,441.867c-.578,1.938-1.233,4.048-1.973,6.29a123.638,123.638,0,0,0-11.614-31.587c-10.451-19.768-26.335-36.792-41.448-44.43-24.064-12.153-33.661-38.075-31.107-84.048,1.483-26.686-24.59-45.353-24.858-45.536a1.695,1.695,0,0,1,1.947-2.774c1.139.8,27.882,19.911,26.294,48.494-2.472,44.443,6.549,69.379,29.25,80.846,15.946,8.054,31.991,25.2,42.919,45.862A128.454,128.454,0,0,1,168.709,441.867Z" transform="translate(-56.989 -239.476)" fill="#62c4b2"/>
        </g>
      </g>
    </g>
    <g id="Group_82446" data-name="Group 82446" transform="translate(80.488 132.519)">
      <g id="Group_82412" data-name="Group 82412" transform="translate(135.041 381.145)">
        <path id="Path_11760" data-name="Path 11760" d="M138.445,417.212c.09,6.159.2,12.568.335,19.05h59.4c.113-7.1.2-13.9.265-20.276.18-17.289.2-31.517.186-40.36-.007-6.273-.033-9.83-.033-9.83l-60.572-.642s0,5.233.047,13.79C138.114,388.458,138.22,402.076,138.445,417.212Z" transform="translate(-138.027 -365.155)" fill="#18315b"/>
        <path id="Path_11761" data-name="Path 11761" d="M138.056,374.883c.039,9.513.145,23.131.371,38.269a297.706,297.706,0,0,0,60-1.227c.18-17.288.2-31.517.186-40.36Z" transform="translate(-138.009 -361.093)" fill="#000b29"/>
      </g>
      <g id="Group_82413" data-name="Group 82413" transform="translate(60.517 381.145)">
        <path id="Path_11762" data-name="Path 11762" d="M92.492,403.555c.067,9.681.183,20.774.374,32.708h59.406c.147-6.987.265-13.891.361-20.486.206-14.156.312-26.9.364-36.062.046-9.016.046-14.559.046-14.559l-60.6.642s-.047,6.425-.033,17.235C92.413,388.749,92.439,395.685,92.492,403.555Z" transform="translate(-92.41 -365.155)" fill="#18315b"/>
        <path id="Path_11763" data-name="Path 11763" d="M92.412,377.385c0,5.716.026,12.653.078,20.522a371.4,371.4,0,0,0,60.141,12.222c.206-14.156.312-26.9.364-36.062Z" transform="translate(-92.409 -359.508)" fill="#000b29"/>
      </g>
      <g id="Group_82422" data-name="Group 82422" transform="translate(83.945)">
        <path id="Path_11764" data-name="Path 11764" d="M182.851,194.306s9.546-9.193,9.513-18.271-6.2-6.4-9.513-14.857S169.7,147.56,164.3,148.593s-16.789-20.014-32.242-16.3S117.953,155.815,111.3,158.7s-4.8,14.649-1.291,17.332,4.991,13.46,6.964,13.218S182.851,194.306,182.851,194.306Z" transform="translate(-106.696 -131.852)" fill="#18315b"/>
        <g id="Group_82416" data-name="Group 82416" transform="translate(0 58.232)">
          <path id="Path_11765" data-name="Path 11765" d="M118.661,171.5s-6-8-10.464-1.385,1.848,26.159,12.772,21.388Z" transform="translate(-106.751 -167.496)" fill="#f97853"/>
          <g id="Group_82414" data-name="Group 82414" transform="translate(2.343 7.006)">
            <path id="Path_11766" data-name="Path 11766" d="M117.675,182.749a.925.925,0,0,1-.889-.675c-1.692-6.033-7.945-8.479-8.007-8.5a.923.923,0,0,1,.653-1.727c.292.109,7.182,2.784,9.131,9.732a.925.925,0,0,1-.639,1.139A.952.952,0,0,1,117.675,182.749Z" transform="translate(-108.185 -171.785)" fill="#ea5143"/>
          </g>
          <g id="Group_82415" data-name="Group 82415" transform="translate(4.601 10.632)">
            <path id="Path_11767" data-name="Path 11767" d="M110.49,178.3a.923.923,0,0,1-.776-1.423,8.436,8.436,0,0,1,3.465-2.794.924.924,0,0,1,.755,1.686,6.7,6.7,0,0,0-2.668,2.107A.921.921,0,0,1,110.49,178.3Z" transform="translate(-109.567 -174.004)" fill="#ea5143"/>
          </g>
        </g>
        <g id="Group_82420" data-name="Group 82420" transform="translate(71.45 58.232)">
          <path id="Path_11768" data-name="Path 11768" d="M152.794,171.5s6-8,10.464-1.385-1.848,26.159-12.772,21.388Z" transform="translate(-150.486 -167.496)" fill="#f97853"/>
          <g id="Group_82417" data-name="Group 82417" transform="translate(1.461 7.006)">
            <path id="Path_11769" data-name="Path 11769" d="M152.3,182.749a.926.926,0,0,0,.889-.675c1.692-6.033,7.943-8.479,8.007-8.5a.923.923,0,0,0-.653-1.727c-.292.109-7.182,2.784-9.132,9.732a.926.926,0,0,0,.64,1.139A.951.951,0,0,0,152.3,182.749Z" transform="translate(-151.38 -171.785)" fill="#ea5143"/>
          </g>
          <g id="Group_82419" data-name="Group 82419" transform="translate(4.705 10.632)">
            <g id="Group_82418" data-name="Group 82418">
              <path id="Path_11770" data-name="Path 11770" d="M157.356,178.3a.923.923,0,0,0,.776-1.423,8.436,8.436,0,0,0-3.465-2.794.924.924,0,0,0-.755,1.686,6.688,6.688,0,0,1,2.666,2.107A.924.924,0,0,0,157.356,178.3Z" transform="translate(-153.366 -174.004)" fill="#ea5143"/>
            </g>
          </g>
        </g>
        <path id="Path_11771" data-name="Path 11771" d="M153.038,192.339v19.434s-5.8,9.9-13.635,10.572-14.788-8.521-14.788-8.521V193.7Z" transform="translate(-95.43 -93.522)" fill="#ffa681"/>
        <path id="Path_11772" data-name="Path 11772" d="M153.038,192.339v8.623c-5.26,5.837-14.6,7.294-28.423,5.254V193.7Z" transform="translate(-95.43 -93.522)" fill="#f97853"/>
        <path id="Path_11773" data-name="Path 11773" d="M181.615,171.255a189.175,189.175,0,0,1-2.521,24.549c-.359,1.884-.766,3.656-1.219,5.244-4.091,14.321-14.321,38.88-42.959,28.65-12.65-4.516-18.513-18.6-21.125-32.934a138.57,138.57,0,0,1-1.911-26.59,20.293,20.293,0,0,1,10.3-17.266c16.905-9.583,34.742-6.01,46.487-1.495A20.226,20.226,0,0,1,181.615,171.255Z" transform="translate(-103.518 -122.35)" fill="#ffa681"/>
        <path id="Path_11774" data-name="Path 11774" d="M113.04,177.886s2.779,16.557,5.4,22.592,9.8,7.174,12.493,12.276c3.841,7.273,9.7,13.037,19.327,9.524,8.013-2.923,7.651-7.02,12.14-10.189,7.691-5.43,11.5-11.406,11.813-16.358s4.128-18.805,4.128-18.805l-4.128-.291a107.439,107.439,0,0,1-5.813,10.238c-3.473-7.626-20.2-2.08-20.2-2.08l-3.2,1.034-3.28-1.034s-16.928-5.311-20.271,2.687a30.149,30.149,0,0,1-4.47-10.387ZM145,188.409c19.189-3.293,15.76,7.941,15.636,8.343v.007l0,.007a19.023,19.023,0,0,1-3.944,2.99c-7.435,4.017-8.239,3.411-11.173,3.54a22.055,22.055,0,0,1-11.277-3.076,31.985,31.985,0,0,1-5.373-4.086S125.853,185.828,145,188.409Z" transform="translate(-102.765 -103.473)" fill="#18315b"/>
        <path id="Path_11775" data-name="Path 11775" d="M127.4,172.957c0,2.075-1.07,3.758-2.388,3.758s-2.388-1.683-2.388-3.758,1.068-3.756,2.388-3.756S127.4,170.882,127.4,172.957Z" transform="translate(-96.693 -108.184)" fill="#18315b"/>
        <path id="Path_11776" data-name="Path 11776" d="M144.778,172.957c0,2.075-1.07,3.758-2.388,3.758S140,175.032,140,172.957s1.07-3.756,2.388-3.756S144.778,170.882,144.778,172.957Z" transform="translate(-85.68 -108.184)" fill="#18315b"/>
        <path id="Path_11777" data-name="Path 11777" d="M153.992,164.678s-9.867-3.9-17.466-.618l.76,4.225s11.152-.943,16.771,1.335A7.328,7.328,0,0,0,153.992,164.678Z" transform="translate(-87.882 -112.274)" fill="#18315b"/>
        <path id="Path_11778" data-name="Path 11778" d="M118.676,164.7s9.941-3.929,17.595-.622l-.765,4.257s-11.235-.951-16.9,1.343A7.382,7.382,0,0,1,118.676,164.7Z" transform="translate(-99.488 -112.272)" fill="#18315b"/>
        <g id="Group_82421" data-name="Group 82421" transform="translate(39.722 62.454)">
          <path id="Path_11779" data-name="Path 11779" d="M134.5,188.143a9.837,9.837,0,0,0,3.343-.7.924.924,0,0,0-.7-1.71c-.835.338-2.836.869-3.7.35a1,1,0,0,1-.454-.859c-.333-3.223.549-14.03.557-14.14a.923.923,0,0,0-1.84-.152c-.036.453-.905,11.089-.554,14.483a2.813,2.813,0,0,0,1.343,2.253A3.885,3.885,0,0,0,134.5,188.143Z" transform="translate(-131.065 -170.081)" fill="#f97853"/>
        </g>
        <path id="Path_11780" data-name="Path 11780" d="M125.962,184.973c.7,3.526,3.03,10.014,10.877,10.014,7.868,0,10.075-5.929,10.833-10.014Z" transform="translate(-94.577 -98.189)" fill="#fff"/>
        <path id="Path_11781" data-name="Path 11781" d="M181.615,171.255a189.175,189.175,0,0,1-2.521,24.549l-4.127-.292s1-6.376,1.461-10.531,1.246-11.921-2.3-12.89-1.462-9.82-6.383-13.661-15.852-7.239-23.109-2.769-15.512,1.993-18.854,2.769-7.894,5.383-6.665,9.694-2.455,6.925-3.351,11.384,1.965,16.463,1.965,16.463l-3.942.794a138.57,138.57,0,0,1-1.911-26.59,20.293,20.293,0,0,1,10.3-17.266c16.905-9.583,34.742-6.01,46.487-1.495A20.226,20.226,0,0,1,181.615,171.255Z" transform="translate(-103.518 -122.35)" fill="#18315b"/>
      </g>
      <g id="Group_82443" data-name="Group 82443" transform="translate(47.944 118.485)">
        <g id="Group_82423" data-name="Group 82423">
          <path id="Path_11782" data-name="Path 11782" d="M244.935,496.883a328.415,328.415,0,0,1-56.057,9.2c-.848.062-1.688.124-2.535.181q-3.855.26-7.708.428a318.092,318.092,0,0,1-38.153-.645q-3.847-.3-7.691-.688c-.82-.078-1.639-.165-2.462-.26a334.1,334.1,0,0,1-45.565-8.214c-.152-14,.021-58.259.881-106.257.1-5.769.211-11.591.338-17.422,1.346-63.258,3.945-127.47,8.618-133.9,4.48-6.156,17.982-13.979,30.89-21.037.769-.42,1.541-.84,2.307-1.255,2.9-1.578,5.739-3.106,8.407-4.555,5.72-3.112,10.652-5.88,13.7-8.017V206.2s6.95,9.2,14.782,8.52c7.139-.614,12.575-8.861,13.5-10.34,3.367,2.372,9.417,5.641,16.428,9.346,1.952,1.034,3.97,2.093,6.028,3.184q1.135.6,2.286,1.211c14.275,7.571,29.666,16.107,34.286,22.452a7.865,7.865,0,0,1,.988,2.335c2.733,9.256,4.431,39.973,5.463,77.171l.013.4c.046,1.5.082,3.019.119,4.542.008.2.011.4.016.6.338,13.05.593,26.784.791,40.587.016,1.095.038,2.191.049,3.285,0,.552.013,1.1.016,1.647q.069,4.078.1,8.141.042,2.995.07,5.987C245.351,435.158,245.141,482.216,244.935,496.883Z" transform="translate(-84.714 -204.378)" fill="#006bde"/>
        </g>
        <g id="Group_82424" data-name="Group 82424" transform="translate(137.671 87.014)">
          <path id="Path_11783" data-name="Path 11783" d="M190.394,291.269c-4.5-7.342-9.322-14.836-13.868-21.463-.011-.018-.025-.034-.033-.051-1.91-2.782-3.767-5.409-5.533-7.811a.918.918,0,0,0-.091-.122c-.552-.755-1.1-1.487-1.634-2.2a1.368,1.368,0,0,1-.194-.387l0,0a1.24,1.24,0,0,1,2.178-1.1c5.46,7.236,12.444,17.636,19.047,28.193l.013.4C190.32,288.231,190.356,289.747,190.394,291.269Z" transform="translate(-168.984 -257.64)" fill="#264cbe"/>
        </g>
        <path id="Path_11784" data-name="Path 11784" d="M179.889,225.907s28.173,51.616,45.346,77.775c0,0,9.766-8.972,22.468-20.975,13.772-13.014,32.607-34.763,32.607-34.763l10.423,12.36s-42.319,76.154-61.3,85.725-53.959-58.171-53.959-58.171Z" transform="translate(-27.201 -190.735)" fill="#006bde"/>
        <g id="Group_82425" data-name="Group 82425" transform="translate(11.155 179.592)">
          <path id="Path_11785" data-name="Path 11785" d="M113.789,373.315l-.046,0A1.272,1.272,0,0,1,112.515,372c1.477-41.684-20.137-55.188-20.356-55.32a1.275,1.275,0,0,1,1.309-2.187c.24.144,5.953,3.615,11.488,12.509,5.051,8.119,10.9,22.533,10.106,45.09A1.275,1.275,0,0,1,113.789,373.315Z" transform="translate(-91.542 -314.308)" fill="#264cbe"/>
        </g>
        <g id="Group_82426" data-name="Group 82426" transform="translate(124.243 128.655)">
          <path id="Path_11786" data-name="Path 11786" d="M162.134,353.8a1.275,1.275,0,0,1-1.269-1.175c-.683-8.778,2.209-15.182,5.868-23.287,1.072-2.372,2.179-4.823,3.313-7.574,7.1-17.231,3.534-36.931,3.5-37.129a1.274,1.274,0,0,1,2.5-.469c.157.835,3.744,20.648-3.645,38.57-1.15,2.789-2.266,5.26-3.346,7.651-3.648,8.077-6.283,13.912-5.649,22.04a1.276,1.276,0,0,1-1.171,1.369C162.2,353.8,162.169,353.8,162.134,353.8Z" transform="translate(-160.765 -283.129)" fill="#264cbe"/>
        </g>
        <g id="Group_82439" data-name="Group 82439" transform="translate(51.489)">
          <path id="Path_11787" data-name="Path 11787" d="M116.231,212.457c.544,4.1,1.343,9.426,2.215,15.474.266,1.8.533,3.658.805,5.571.884,6.246,1.8,13.042,2.581,19.913.211,1.844.408,3.7.593,5.54.688,6.8,1.207,13.563,1.394,19.844q.093,2.852.074,5.559a88.352,88.352,0,0,1-.859,12.975q-.559,3.573-.99,6.987-.363,2.833-.65,5.571c-.743,7.089-1.114,13.687-1.22,19.908q-.047,2.83-.018,5.551c.056,7.062.457,13.643,1.039,19.908.173,1.875.366,3.72.564,5.54.761,6.845,1.691,13.364,2.563,19.807q.38,2.769.742,5.522c.379,2.947.737,5.893,1.047,8.858.328,3.145.537,6.822.637,10.9.049,1.784.074,3.646.08,5.571.026,6.1-.129,12.851-.415,19.915q-.11,2.767-.247,5.6c-.315,6.561-.73,13.308-1.194,19.969q-.206,2.813-.415,5.6c-.515,6.933-1.083,13.685-1.66,19.969-.173,1.907-.346,3.771-.52,5.577-.662,6.914-1.305,13.061-1.869,17.962a317.44,317.44,0,0,0,38.155.644c.3-5.218,1.108-13.636,1.907-23.546.149-1.813.291-3.682.433-5.589.477-6.3.91-13.037,1.194-19.833.082-1.862.149-3.733.2-5.6.191-6.785.2-13.525-.093-19.846-.087-1.918-.2-3.793-.346-5.62-.149-1.869-.328-3.689-.546-5.447a111.127,111.127,0,0,1-.817-14.448c.007-1.869.056-3.725.142-5.589.291-6.463,1-12.937,1.813-19.813.217-1.826.446-3.684.675-5.577.737-6.117,1.5-12.6,2.111-19.7.162-1.82.3-3.682.439-5.589.421-6.09.706-12.633.75-19.764q.017-2.757-.02-5.633c-.067-6.172-.327-12.775-.828-19.888-.044-.631-.087-1.269-.137-1.913-.093-1.243-.173-2.5-.229-3.756a188.924,188.924,0,0,1,.124-19.815q.15-2.8.366-5.608c.513-6.661,1.263-13.259,2.129-19.585q.38-2.823.792-5.577c1.041-6.932,2.16-13.457,3.187-19.287.341-1.92.668-3.764.979-5.522.7-3.937,1.305-7.446,1.751-10.418-7.013-3.707-13.061-6.976-16.428-9.346-.921,1.478-6.357,9.724-13.5,10.338-7.83.68-14.782-8.518-14.782-8.518V204.44C126.883,206.575,121.951,209.343,116.231,212.457Z" transform="translate(-116.231 -204.378)" fill="#fff"/>
          <g id="Group_82438" data-name="Group 82438" transform="translate(2.215 18.586)">
            <g id="Group_82427" data-name="Group 82427">
              <path id="Path_11788" data-name="Path 11788" d="M117.587,220.722c.266,1.8.533,3.658.805,5.571,7.025.16,15.277-.892,25.218-3.187a67.156,67.156,0,0,1,27.439-.65c.341-1.92.668-3.764.979-5.522a72.725,72.725,0,0,0-29.669.75C132.548,219.942,124.377,220.981,117.587,220.722Z" transform="translate(-117.587 -215.755)" fill="#e3e3e3"/>
            </g>
            <g id="Group_82428" data-name="Group 82428" transform="translate(3.387 25.45)">
              <path id="Path_11789" data-name="Path 11789" d="M119.66,236.334c.211,1.844.408,3.7.593,5.54a112.268,112.268,0,0,0,22.043-3.181,67.047,67.047,0,0,1,23.46-1.245q.38-2.823.792-5.577a73.125,73.125,0,0,0-25.5,1.394A107.243,107.243,0,0,1,119.66,236.334Z" transform="translate(-119.66 -231.333)" fill="#e3e3e3"/>
            </g>
            <g id="Group_82429" data-name="Group 82429" transform="translate(5.373 50.91)">
              <path id="Path_11790" data-name="Path 11790" d="M120.876,251.842q.093,2.852.074,5.559a116.854,116.854,0,0,0,20.576-3.125,67.41,67.41,0,0,1,20.965-1.511q.149-2.8.366-5.608a73.406,73.406,0,0,0-22.582,1.691A113.581,113.581,0,0,1,120.876,251.842Z" transform="translate(-120.876 -246.917)" fill="#e3e3e3"/>
            </g>
            <g id="Group_82430" data-name="Group 82430" transform="translate(2.947 76.371)">
              <path id="Path_11791" data-name="Path 11791" d="M119.391,273.059a109.87,109.87,0,0,0,23.076-3.2,67.285,67.285,0,0,1,21.207-1.485c-.044-.631-.087-1.269-.137-1.913-.093-1.243-.173-2.5-.229-3.756a73.33,73.33,0,0,0-22.092,1.727,107.562,107.562,0,0,1-21.174,3.057Q119.679,270.321,119.391,273.059Z" transform="translate(-119.391 -262.502)" fill="#e3e3e3"/>
            </g>
            <g id="Group_82431" data-name="Group 82431" transform="translate(1.698 101.83)">
              <path id="Path_11792" data-name="Path 11792" d="M118.637,288.643c6.827.056,14.793-1,24.314-3.2a67.421,67.421,0,0,1,22.055-1.423q.017-2.757-.02-5.633a73.4,73.4,0,0,0-23.287,1.627c-8.993,2.075-16.606,3.12-23.045,3.078Q118.609,285.922,118.637,288.643Z" transform="translate(-118.626 -278.086)" fill="#e3e3e3"/>
            </g>
            <g id="Group_82432" data-name="Group 82432" transform="translate(2.748 127.288)">
              <path id="Path_11793" data-name="Path 11793" d="M119.269,298.676c.173,1.875.366,3.72.564,5.54a110.727,110.727,0,0,0,22.712-3.189A67.305,67.305,0,0,1,163.41,299.5c.162-1.82.3-3.682.439-5.589a73.264,73.264,0,0,0-22.556,1.689A105.3,105.3,0,0,1,119.269,298.676Z" transform="translate(-119.269 -293.669)" fill="#e3e3e3"/>
            </g>
            <g id="Group_82433" data-name="Group 82433" transform="translate(5.875 152.746)">
              <path id="Path_11794" data-name="Path 11794" d="M121.183,314.148q.38,2.769.742,5.522a120.455,120.455,0,0,0,19.407-3.058,67.721,67.721,0,0,1,18.08-1.707c.217-1.826.446-3.684.675-5.577a73.758,73.758,0,0,0-20.006,1.856A115.778,115.778,0,0,1,121.183,314.148Z" transform="translate(-121.183 -309.252)" fill="#e3e3e3"/>
            </g>
            <g id="Group_82434" data-name="Group 82434" transform="translate(8.301 178.208)">
              <path id="Path_11795" data-name="Path 11795" d="M122.668,329.551c.049,1.784.074,3.646.08,5.571a125.13,125.13,0,0,0,17.642-2.934,68.425,68.425,0,0,1,16.124-1.758c.007-1.869.056-3.725.142-5.589a74.241,74.241,0,0,0-17.518,1.925A124.1,124.1,0,0,1,122.668,329.551Z" transform="translate(-122.668 -324.838)" fill="#e3e3e3"/>
            </g>
            <g id="Group_82435" data-name="Group 82435" transform="translate(7.719 203.667)">
              <path id="Path_11796" data-name="Path 11796" d="M122.312,350.764a125.075,125.075,0,0,0,18.3-2.991,67.646,67.646,0,0,1,17.833-1.7c-.087-1.918-.2-3.793-.346-5.62a74.038,74.038,0,0,0-18.738,1.9,122.114,122.114,0,0,1-16.806,2.817Q122.448,347.928,122.312,350.764Z" transform="translate(-122.312 -340.421)" fill="#e3e3e3"/>
            </g>
            <g id="Group_82436" data-name="Group 82436" transform="translate(6.11 229.12)">
              <path id="Path_11797" data-name="Path 11797" d="M121.327,366.455a119.756,119.756,0,0,0,19.913-3.1,67.965,67.965,0,0,1,17.727-1.72c.082-1.862.149-3.733.2-5.6a73.9,73.9,0,0,0-19.178,1.889,116.909,116.909,0,0,1-18.247,2.928Q121.536,363.673,121.327,366.455Z" transform="translate(-121.327 -356.001)" fill="#e3e3e3"/>
            </g>
            <g id="Group_82437" data-name="Group 82437" transform="translate(3.931 254.582)">
              <path id="Path_11798" data-name="Path 11798" d="M119.993,382.124a112.459,112.459,0,0,0,22.092-3.182,67.853,67.853,0,0,1,16.1-1.758c.149-1.813.291-3.682.433-5.589a73.964,73.964,0,0,0-17.784,1.918,110.754,110.754,0,0,1-20.321,3.034C120.339,378.453,120.166,380.317,119.993,382.124Z" transform="translate(-119.993 -371.587)" fill="#e3e3e3"/>
            </g>
          </g>
        </g>
        <g id="Group_82442" data-name="Group 82442" transform="translate(40.774 12.529)">
          <g id="Group_82440" data-name="Group 82440" transform="translate(60.853)">
            <path id="Path_11799" data-name="Path 11799" d="M146.921,501.4c.848-.056,1.689-.118,2.539-.18,5.014-29.477,2.122-72.745,1.046-86-1.114-13.766,1.028-31.47,5.875-48.553,3.762-13.272,1.454-44.041-.4-68.764-.52-6.94-1.015-13.494-1.305-18.881-.948-17.405,5.354-49.618,8.827-65.763-.768-.408-1.529-.81-2.284-1.212-3.48,15.982-10.01,48.926-9.02,67.112.3,5.409.792,11.977,1.312,18.928,1.84,24.531,4.13,55.054.49,67.9-4.927,17.363-7.1,35.383-5.961,49.434C149.112,428.7,152.021,472.235,146.921,501.4Z" transform="translate(-146.921 -212.047)" fill="#264cbe"/>
          </g>
          <g id="Group_82441" data-name="Group 82441" transform="translate(0 0.105)">
            <path id="Path_11800" data-name="Path 11800" d="M119.167,381.425c2.947,18.124,2.018,29.9.941,43.521-.346,4.408-.706,8.957-.959,13.984-.786,15.772-3.454,47.532-4.636,61.268.823.093,1.64.18,2.464.26,1.183-13.736,3.857-45.577,4.648-61.405.248-4.989.608-9.526.954-13.908,1.083-13.785,2.024-25.695-.972-44.116-.637-3.955-1.318-7.966-1.993-11.959-3.336-19.753-6.791-40.179-5.156-49.966.4-2.388.9-5.1,1.447-7.972,2.217-11.81,4.983-26.5,4.11-39.256-.866-12.64-6.046-46.866-8.034-59.765-.768.415-1.534.836-2.308,1.256,2.073,13.489,7.031,46.4,7.873,58.676.85,12.436-1.88,26.962-4.073,38.632-.544,2.884-1.059,5.607-1.461,8.021-1.7,10.2,1.634,29.91,5.162,50.79C117.849,373.47,118.523,377.476,119.167,381.425Z" transform="translate(-109.672 -212.111)" fill="#264cbe"/>
          </g>
        </g>
      </g>
      <g id="Group_82445" data-name="Group 82445" transform="translate(0 154.778)">
        <path id="Path_11801" data-name="Path 11801" d="M104.856,238.692s-25.219,84.1-31.465,114.072-6.729,92.279-6.729,92.279-11.024,22.886-11.286,33.072c-.278,10.858,5.422,19.5,4.772,26.6s8,3.248,5.558-11.145,4.489-27.428,7.481-27.01-2.475,15.714.181,21.227,6.1-5.2,9.516-11.692c3.552-6.747,3.344-21.467,1.728-31.975s17.431-74.331,17.523-92.825l24.12-81.5S118.287,235.771,104.856,238.692Z" transform="translate(-55.367 -219.039)" fill="#ffa681"/>
        <path id="Path_11802" data-name="Path 11802" d="M125.753,275.3c-.854,5.4-3.844,14.682-7.706,26.356v.007c-.328.983-.663,1.987-1,3.008a.931.931,0,0,0-.049.144c-.965,2.9-1.975,5.942-3.016,9.087l-.018.056c-4.277,12.986-9.013,27.843-12.986,43.106-1.367,5.225-2.643,10.5-3.775,15.765-1.449,6.718-2.674,13.414-3.573,19.97-3.225,23.613-9.389,53.525-9.389,53.525-9.044,3.713-23.182-1.189-23.182-1.189s-.366-43.075,1.653-59.813c2.495-20.694,5.669-35.427,9.606-52.337,10.833-46.542,29.9-92.081,35.128-104.159.415-.966.743-1.714.972-2.233h4.5C121.78,232.219,128.063,260.742,125.753,275.3Z" transform="translate(-51.774 -226.593)" fill="#006bde"/>
        <path id="Path_11803" data-name="Path 11803" d="M60.6,355.085,61.311,365s13.442,4.368,23.519,1.292l2.665-8.842C77.792,357.962,68.828,357.723,60.6,355.085Z" transform="translate(-52.05 -145.169)" fill="#009cf8"/>
        <g id="Group_82444" data-name="Group 82444" transform="translate(45.431 73.837)">
          <path id="Path_11804" data-name="Path 11804" d="M104.017,273.017v.007a1.3,1.3,0,0,1-.074.426c-.3.836-.614,1.7-.923,2.581a.931.931,0,0,0-.049.144c-.992,2.81-2,5.867-3.016,9.087l-.018.056a488.78,488.78,0,0,0-13.086,51.247c.024-2.705.056-5.424.1-8.141-1.367,5.225-2.643,10.5-3.775,15.765a189.846,189.846,0,0,1,3.842-20.7c3.888-16.948,9.856-37.937,14.6-50.888a1.238,1.238,0,0,1,2.4.415Z" transform="translate(-83.176 -271.789)" fill="#264cbe"/>
        </g>
      </g>
    </g>
    <g id="Group_82487" data-name="Group 82487" transform="translate(412.947 130.799)">
      <g id="Group_82450" data-name="Group 82450" transform="translate(182.414 407.85)">
        <g id="Group_82448" data-name="Group 82448">
          <g id="Group_82447" data-name="Group 82447">
            <path id="Path_11805" data-name="Path 11805" d="M373.051,426.571h59.571c-.2-4.133-.392-8.093-.583-11.834-1.039-20.4-1.921-34.288-1.921-34.288L381.67,382.6l-4.017.183-7.126.319s.688,12.419,1.758,30.615C372.522,417.741,372.778,422.053,373.051,426.571Z" transform="translate(-370.527 -380.449)" fill="#18315b"/>
          </g>
        </g>
        <path id="Path_11806" data-name="Path 11806" d="M377.653,382.784l-7.126.319s.688,12.419,1.758,30.615a432.751,432.751,0,0,0,59.754,1.019c-1.039-20.4-1.921-34.288-1.921-34.288L381.67,382.6Z" transform="translate(-370.527 -380.449)" fill="#000b29"/>
        <g id="Group_82449" data-name="Group 82449" transform="translate(7.123 2.155)">
          <path id="Path_11807" data-name="Path 11807" d="M381.378,425.735c-1.09-18.882-1.982-35.012-2.473-43.967l-4.017.181c.488,8.915,1.377,24.969,2.464,43.786Z" transform="translate(-374.887 -381.768)" fill="#000b29"/>
        </g>
      </g>
      <g id="Group_82454" data-name="Group 82454" transform="translate(107.887 407.85)">
        <g id="Group_82452" data-name="Group 82452">
          <g id="Group_82451" data-name="Group 82451">
            <path id="Path_11808" data-name="Path 11808" d="M384.482,426.571c.307-5.115.595-9.967.856-14.437,1.026-17.332,1.67-29.032,1.67-29.032l-7.732-.345-4.011-.181-47.854-2.127s-.524,8.278-1.245,21.436c-.381,7.013-.817,15.415-1.258,24.687Z" transform="translate(-324.908 -380.449)" fill="#18315b"/>
          </g>
        </g>
        <path id="Path_11809" data-name="Path 11809" d="M325.678,401.885a526.317,526.317,0,0,0,59.172,10.25c1.026-17.332,1.67-29.032,1.67-29.032l-7.732-.345-4.011-.181-47.854-2.127S326.4,388.727,325.678,401.885Z" transform="translate(-324.42 -380.449)" fill="#000b29"/>
        <g id="Group_82453" data-name="Group 82453" transform="translate(47.88 2.129)">
          <path id="Path_11810" data-name="Path 11810" d="M358.24,425.746c1.086-18.835,1.975-34.9,2.46-43.814l-4.011-.18c-.49,8.949-1.384,25.093-2.473,43.994Z" transform="translate(-354.216 -381.752)" fill="#000b29"/>
        </g>
      </g>
      <g id="Group_82465" data-name="Group 82465" transform="translate(101.755 121.225)">
        <g id="Group_82456" data-name="Group 82456">
          <g id="Group_82455" data-name="Group 82455">
            <path id="Path_11811" data-name="Path 11811" d="M470.055,500.913a286.108,286.108,0,0,1-36.4,7.553q-6.332.889-12.653,1.474-8.53.789-17.056,1.059a270.008,270.008,0,0,1-28.2-.614,285.752,285.752,0,0,1-54.537-9.47c-.168-16.951.087-77.742,1.359-136.375.062-2.632.119-5.264.185-7.881.008-.557.024-1.113.038-1.668.011-.606.029-1.211.046-1.812.041-1.861.09-3.715.136-5.559q.142-5.651.3-11.2.1-3.318.2-6.589c.011-.453.028-.9.041-1.349q.069-2.156.135-4.287v0c.016-.439.029-.881.046-1.322.041-1.309.087-2.611.127-3.9.041-1.1.078-2.181.116-3.269,1.408-39.553,3.467-70.752,6.414-75.148,5-7.458,22.025-17.356,35.721-25.414,4.878-2.865,10.706-5.847,14.04-8.059,4.863,3.916,8.392,7.453,15.6,7.211,8.066-.276,10.055-5.127,13.13-9.286,1.879,1.219,6.646,5.131,9.126,6.584,2.121,1.251,4.418,2.578,6.814,3.957,3.705,2.121,7.646,4.373,11.55,6.67,5.785,3.406,11.486,6.919,16.218,10.274s8.474,6.563,10.331,9.341c2.676,4.019,4.409,30.039,5.525,64.279.046,1.2.078,2.413.124,3.637,0,.147,0,.3,0,.448.046,1.245.083,2.521.113,3.8q.167,5.781.32,11.794c.021.843.041,1.7.054,2.544.016.639.038,1.281.041,1.911.038,1.647.074,3.3.111,4.965.008.333.013.668.021,1,.09,4.393.176,8.848.255,13.341q.037,1.97.065,3.949C470.523,415.138,470.288,482.7,470.055,500.913Z" transform="translate(-321.155 -205.003)" fill="#32685f"/>
          </g>
        </g>
        <path id="Path_11812" data-name="Path 11812" d="M468.856,310.032l-19.215,19.492-17.9-18.149-17.9,18.149L395.87,311.3l-17.977,18.224L359.8,311.181l-18.093,18.343-19.532-19.808c.041-1.861.09-3.715.136-5.559q.142-5.651.3-11.2l19.1-19.369L359.8,291.936l18.088-18.348,17.977,18.224,17.969-18.224,17.9,18.15,17.9-18.15,18.9,19.155c.09,4.393.176,8.848.255,13.341Q468.828,308.054,468.856,310.032Z" transform="translate(-320.506 -161.542)" fill="#307a6c"/>
        <g id="Group_82458" data-name="Group 82458" transform="translate(29.079 203.848)">
          <g id="Group_82457" data-name="Group 82457">
            <path id="Path_11813" data-name="Path 11813" d="M425.057,374.889h0c-25.731-.113-47.692-11.821-61.585-21.623a141.042,141.042,0,0,1-24.223-21.45,1.238,1.238,0,0,1,1.9-1.594,138.367,138.367,0,0,0,23.811,21.061c13.591,9.58,35.052,21.021,60.111,21.132a1.237,1.237,0,0,1,0,2.475Z" transform="translate(-338.954 -329.781)" fill="#307a6c"/>
          </g>
        </g>
        <g id="Group_82460" data-name="Group 82460" transform="translate(56.529 209.714)">
          <g id="Group_82459" data-name="Group 82459">
            <path id="Path_11814" data-name="Path 11814" d="M398.36,357.4c-21.908-4.306-41.3-21.084-42.18-21.855a1.238,1.238,0,1,1,1.629-1.864c.229.2,23.05,19.933,46.305,22.055a1.238,1.238,0,1,1-.225,2.465A53.948,53.948,0,0,1,398.36,357.4Z" transform="translate(-355.757 -333.371)" fill="#307a6c"/>
          </g>
        </g>
        <g id="Group_82462" data-name="Group 82462" transform="translate(54.021 13.814)">
          <g id="Group_82461" data-name="Group 82461">
            <path id="Path_11815" data-name="Path 11815" d="M355.458,242.978a1.239,1.239,0,0,1-.229-2.455c31.368-5.952,40.824-26.132,40.916-26.335a1.238,1.238,0,1,1,2.256,1.019c-.4.877-10.088,21.56-42.711,27.748A1.242,1.242,0,0,1,355.458,242.978Z" transform="translate(-354.221 -213.459)" fill="#307a6c"/>
          </g>
        </g>
        <g id="Group_82464" data-name="Group 82464" transform="translate(2.348 96.163)">
          <g id="Group_82463" data-name="Group 82463">
            <path id="Path_11816" data-name="Path 11816" d="M337.225,265.358v.008a1.2,1.2,0,0,1-.168.4c-.469.753-.959,1.532-1.449,2.326a1.294,1.294,0,0,0-.073.132c-1.57,2.535-3.2,5.308-4.888,8.235a.1.1,0,0,1-.029.049c-2.63,4.607-5.357,9.6-8.025,14.675q.069-2.156.136-4.287v0c.016-.439.029-.881.046-1.322,4.3-7.987,8.593-15.461,12.192-21.127a1.239,1.239,0,0,1,2.259.918Z" transform="translate(-322.592 -263.866)" fill="#307a6c"/>
          </g>
        </g>
      </g>
      <g id="Group_82468" data-name="Group 82468" transform="translate(213.083)">
        <path id="Path_11817" data-name="Path 11817" d="M435.475,284.886s40.115-12.893,51.986-39.217c3.434-7.624-24.852-85.027-24.852-85.027l-13.653.662s3.891,26.855,6.249,42.061c1.941,12.5,5.074,27.443,6.13,32.363.23,1.067.359,1.66.359,1.66-.67.116-1.341.245-2.024.381C440.927,241.575,417,253.783,417,253.783Z" transform="translate(-371.747 -111.889)" fill="#ffa681"/>
        <g id="Group_82467" data-name="Group 82467" transform="translate(87.923 123.839)">
          <g id="Group_82466" data-name="Group 82466">
            <path id="Path_11818" data-name="Path 11818" d="M455.219,215.681a1.287,1.287,0,0,0,1.8-.283,1.264,1.264,0,0,0-.283-1.794,100.826,100.826,0,0,0-11.949-7c.23,1.067.359,1.66.359,1.66-.67.116-1.341.245-2.024.381A101.332,101.332,0,0,1,455.219,215.681Z" transform="translate(-443.118 -206.603)" fill="#f97853"/>
          </g>
        </g>
        <path id="Path_11819" data-name="Path 11819" d="M391.648,218.977s-12.133,28.475,18.756,44.328c21.38,10.972,70.08-17.673,70.08-17.673l-17.363-36.864S418.563,227.149,391.648,218.977Z" transform="translate(-389.299 -81.392)" fill="#32685f"/>
        <path id="Path_11820" data-name="Path 11820" d="M450.433,136.035c-1.207.848-.961,6.077-.43,11-.17.026-.343.054-.52.085-1.436-6.574-4.293-17.755-6.739-15.621-1.6,1.4.542,11.039,2,16.806q-.453.14-.907.286c-1.841-6.845-5.809-20.031-8.451-17.467-1.763,1.712,1.621,13.321,3.5,19.245q-.395.152-.77.3c-1.8-5.744-5.636-16.615-8.266-14.061-2.382,2.312,4.442,18.743,4.442,18.743h0l1.79,6.45s-2.127.918-5.445-2.836-7.288-4.414-4.532,1.016c3.115,6.138,7.726,10.539,9.755,14.881s8.415,5.78,8.415,5.78l12.82-.621s2.487-21.668-2.3-32h0C453.981,141.89,452.537,134.559,450.433,136.035Z" transform="translate(-366.56 -130.799)" fill="#ffa681"/>
      </g>
      <g id="Group_82485" data-name="Group 82485" transform="translate(131.204 15.702)">
        <path id="Path_11821" data-name="Path 11821" d="M343.549,179.914c0,21.838,13.444,36.882,35.27,36.882s37.059-16.175,37.059-38.011a46.8,46.8,0,0,0-2.872-16.621c-.111-.3-.222-.593-.343-.881-.232-.565-.472-1.129-.732-1.676-.379-.843-.805-1.668-1.25-2.465-5.688-10.227-15.879-16.731-29.573-16.731C354.926,140.411,343.549,158.078,343.549,179.914Z" transform="translate(-336.413 -140.411)" fill="#18315b"/>
        <g id="Group_82471" data-name="Group 82471" transform="translate(0 44.856)">
          <path id="Path_11822" data-name="Path 11822" d="M351.22,171.916s-6.066-8.088-10.576-1.4,1.866,26.443,12.909,21.62Z" transform="translate(-339.181 -167.868)" fill="#f97853"/>
          <g id="Group_82469" data-name="Group 82469" transform="translate(2.367 7.081)">
            <path id="Path_11823" data-name="Path 11823" d="M350.223,183.286a.934.934,0,0,1-.9-.683c-1.711-6.1-8.03-8.57-8.093-8.595a.934.934,0,0,1,.662-1.746c.3.113,7.258,2.815,9.229,9.838a.932.932,0,0,1-.645,1.15A.912.912,0,0,1,350.223,183.286Z" transform="translate(-340.63 -172.202)" fill="#ea5143"/>
          </g>
          <g id="Group_82470" data-name="Group 82470" transform="translate(4.65 10.748)">
            <path id="Path_11824" data-name="Path 11824" d="M342.96,178.791a.926.926,0,0,1-.5-.149.935.935,0,0,1-.279-1.291,8.521,8.521,0,0,1,3.5-2.823.933.933,0,0,1,.761,1.7,6.744,6.744,0,0,0-2.7,2.13A.93.93,0,0,1,342.96,178.791Z" transform="translate(-342.027 -174.447)" fill="#ea5143"/>
          </g>
        </g>
        <g id="Group_82476" data-name="Group 82476" transform="translate(72.222 44.856)">
          <path id="Path_11825" data-name="Path 11825" d="M385.722,171.916s6.066-8.088,10.577-1.4-1.866,26.443-12.909,21.62Z" transform="translate(-383.389 -167.868)" fill="#f97853"/>
          <g id="Group_82472" data-name="Group 82472" transform="translate(1.476 7.081)">
            <path id="Path_11826" data-name="Path 11826" d="M385.228,183.286a.935.935,0,0,0,.9-.683c1.71-6.1,8.03-8.57,8.093-8.595a.934.934,0,0,0-.662-1.746c-.3.113-7.258,2.815-9.23,9.838a.933.933,0,0,0,.647,1.15A.913.913,0,0,0,385.228,183.286Z" transform="translate(-384.293 -172.202)" fill="#ea5143"/>
          </g>
          <g id="Group_82475" data-name="Group 82475" transform="translate(4.756 10.748)">
            <g id="Group_82474" data-name="Group 82474">
              <g id="Group_82473" data-name="Group 82473">
                <path id="Path_11827" data-name="Path 11827" d="M390.334,178.791a.916.916,0,0,0,.5-.149.932.932,0,0,0,.279-1.291,8.495,8.495,0,0,0-3.5-2.823.933.933,0,0,0-.761,1.7,6.743,6.743,0,0,1,2.7,2.13A.93.93,0,0,0,390.334,178.791Z" transform="translate(-386.3 -174.447)" fill="#ea5143"/>
              </g>
            </g>
          </g>
        </g>
        <path id="Path_11828" data-name="Path 11828" d="M385.968,192.979v19.645s-5.858,10-13.782,10.686-14.948-8.613-14.948-8.613V194.361Z" transform="translate(-327.738 -107.099)" fill="#ffa681"/>
        <path id="Path_11829" data-name="Path 11829" d="M385.968,192.979V201.7c-5.316,5.9-14.759,7.373-28.73,5.309V194.361Z" transform="translate(-327.738 -107.099)" fill="#f97853"/>
        <path id="Path_11830" data-name="Path 11830" d="M414.855,171.667a191.278,191.278,0,0,1-2.549,24.816c-.363,1.9-.774,3.7-1.232,5.3-4.133,14.474-14.474,39.3-43.425,28.959-12.785-4.565-18.711-18.805-21.352-33.29a140.022,140.022,0,0,1-1.933-26.879,20.51,20.51,0,0,1,10.407-17.451c17.088-9.688,35.119-6.076,46.99-1.511A20.442,20.442,0,0,1,414.855,171.667Z" transform="translate(-335.914 -136.239)" fill="#ffa681"/>
        <path id="Path_11831" data-name="Path 11831" d="M359.958,173.389c0,2.1-1.08,3.8-2.413,3.8s-2.415-1.7-2.415-3.8,1.08-3.8,2.415-3.8S359.958,171.292,359.958,173.389Z" transform="translate(-329.074 -121.92)" fill="#18315b"/>
        <path id="Path_11832" data-name="Path 11832" d="M377.375,173.341c0,2.1-1.082,3.8-2.415,3.8s-2.415-1.7-2.415-3.8,1.082-3.8,2.415-3.8S377.375,171.244,377.375,173.341Z" transform="translate(-318.038 -121.95)" fill="#18315b"/>
        <path id="Path_11833" data-name="Path 11833" d="M384.07,164.458s-7.616-3.009-13.481-.475l.587,3.261s8.608-.727,12.944,1.029A5.658,5.658,0,0,0,384.07,164.458Z" transform="translate(-319.278 -126.117)" fill="#18315b"/>
        <path id="Path_11834" data-name="Path 11834" d="M351.815,164.458s7.616-3.009,13.481-.475l-.586,3.261s-8.608-.727-12.944,1.029A5.657,5.657,0,0,1,351.815,164.458Z" transform="translate(-331.4 -126.117)" fill="#18315b"/>
        <g id="Group_82477" data-name="Group 82477" transform="translate(40.151 49.123)">
          <path id="Path_11835" data-name="Path 11835" d="M367.228,188.738a9.984,9.984,0,0,0,3.378-.711.933.933,0,0,0-.706-1.728c-.843.341-2.867.879-3.744.353a1.011,1.011,0,0,1-.457-.869c-.338-3.259.554-14.182.564-14.293a.933.933,0,1,0-1.861-.152c-.038.456-.915,11.207-.56,14.638a2.853,2.853,0,0,0,1.358,2.279A3.938,3.938,0,0,0,367.228,188.738Z" transform="translate(-363.758 -170.48)" fill="#f97853"/>
        </g>
        <path id="Path_11836" data-name="Path 11836" d="M358.211,184.557c1.552,5.385,5.961,10.756,12.037,10.83,6.069-.074,10.478-5.445,12.03-10.83Z" transform="translate(-327.122 -112.436)" fill="#fff"/>
        <g id="Group_82478" data-name="Group 82478" transform="translate(37.787 85.794)">
          <path id="Path_11837" data-name="Path 11837" d="M367.131,195.933a9.755,9.755,0,0,0,4.55-1.276.933.933,0,0,0-.967-1.6,7.925,7.925,0,0,1-3.583,1.006,7.572,7.572,0,0,1-3.4-1,.933.933,0,0,0-.98,1.588A9.32,9.32,0,0,0,367.131,195.933Z" transform="translate(-362.311 -192.927)" fill="#f97853"/>
        </g>
        <path id="Path_11838" data-name="Path 11838" d="M413.868,185.309h-4.23c.467-4.246,1.137-11.725-2.351-12.8-11.021-3.385,3.261-11.173-1.714-15.054s-17.356-2.225-25.966-2.5c-8.663-.281-22.587-.158-25.966.626s-1.531,6.4-.289,10.758-4.153,9.165-5.059,13.672a19.817,19.817,0,0,0,0,5.3H344.77c-.418-5.486-.48-10.593-.405-14.734a20.51,20.51,0,0,1,10.407-17.451c17.088-9.688,35.119-6.076,46.99-1.511a20.442,20.442,0,0,1,13.094,20.055C414.656,175.849,414.345,180.607,413.868,185.309Z" transform="translate(-335.913 -136.239)" fill="#18315b"/>
        <g id="Group_82484" data-name="Group 82484" transform="translate(6.531 41.332)">
          <g id="Group_82479" data-name="Group 82479" transform="translate(10.948)">
            <path id="Path_11839" data-name="Path 11839" d="M360.445,186.841a10.565,10.565,0,1,1,10.565-10.565A10.577,10.577,0,0,1,360.445,186.841Zm0-19.483a8.918,8.918,0,1,0,8.918,8.918A8.929,8.929,0,0,0,360.445,167.358Z" transform="translate(-349.88 -165.711)" fill="#fff"/>
          </g>
          <g id="Group_82480" data-name="Group 82480" transform="translate(39.826)">
            <path id="Path_11840" data-name="Path 11840" d="M378.122,186.841a10.565,10.565,0,1,1,10.565-10.565A10.577,10.577,0,0,1,378.122,186.841Zm0-19.483a8.918,8.918,0,1,0,8.918,8.918A8.929,8.929,0,0,0,378.122,167.358Z" transform="translate(-367.557 -165.711)" fill="#fff"/>
          </g>
          <g id="Group_82481" data-name="Group 82481" transform="translate(0 1.748)">
            <path id="Path_11841" data-name="Path 11841" d="M355.912,172.2a.817.817,0,0,1-.58-.239h0c-.047-.047-4.847-4.7-11.143-3.235a.824.824,0,0,1-.374-1.6c7.2-1.678,12.458,3.452,12.679,3.671a.823.823,0,0,1-.582,1.407Z" transform="translate(-343.179 -166.781)" fill="#fff"/>
          </g>
          <g id="Group_82482" data-name="Group 82482" transform="translate(58.542 1.521)">
            <path id="Path_11842" data-name="Path 11842" d="M379.836,172.283a.823.823,0,0,1-.451-1.513c.315-.206,7.791-5.029,14.153-3.98a.823.823,0,1,1-.268,1.624c-5.726-.943-12.911,3.689-12.985,3.735A.81.81,0,0,1,379.836,172.283Z" transform="translate(-379.013 -166.642)" fill="#fff"/>
          </g>
          <g id="Group_82483" data-name="Group 82483" transform="translate(30.147 3.873)">
            <path id="Path_11843" data-name="Path 11843" d="M371.892,172.4c-.018-.026-1.973-2.673-4.547-2.673-2.547,0-4.316,2.642-4.334,2.668l-1.379-.9c.091-.139,2.264-3.414,5.713-3.414,3.423,0,5.783,3.218,5.883,3.356Z" transform="translate(-361.632 -168.082)" fill="#fff"/>
          </g>
        </g>
      </g>
      <g id="Group_82486" data-name="Group 82486" transform="translate(0 156.773)">
        <path id="Path_11844" data-name="Path 11844" d="M374.127,287.318S363,308.87,349.892,325.94a100.655,100.655,0,0,1-11.88,13.267c-6.443,5.818-12.726,8.861-17.845,6.278-18.982-9.568-61.3-85.723-61.3-85.723L269.29,247.4s18.833,21.749,32.607,34.765c12.7,12,22.47,20.975,22.47,20.975,1.758-2.676,3.632-5.608,5.579-8.712,2.072-3.3,4.22-6.781,6.407-10.369,15.86-26.039,33.458-57.3,33.458-57.3Z" transform="translate(-258.869 -226.762)" fill="#ffa681"/>
        <path id="Path_11845" data-name="Path 11845" d="M322.322,303.715a100.649,100.649,0,0,1-11.88,13.267L302.376,272.2c2.072-3.3,4.22-6.781,6.407-10.369Z" transform="translate(-231.299 -204.537)" fill="#f97853"/>
        <path id="Path_11846" data-name="Path 11846" d="M341.533,226.762l-38.039,59.826,12.767,52.62,31.478-51.255S351.556,252.886,341.533,226.762Z" transform="translate(-230.591 -226.762)" fill="#32685f"/>
      </g>
    </g>
    <g id="Group_82510" data-name="Group 82510" transform="translate(314.688 137.38)">
      <g id="Group_82493" data-name="Group 82493" transform="translate(5.011 110.35)">
        <path id="Path_11847" data-name="Path 11847" d="M358.151,457.223c-2.717-15.056-5.394-32.037-7.829-48.527q-.8-5.47-1.572-10.828c-1.952-13.653-3.7-26.564-5.1-37.276-.533-4.07-1.013-7.827-1.447-11.179-1.358-10.692-2.155-17.335-2.155-17.335l-60.069,2.271-60.254-2.271s-1.552,13.143-4.038,32.2c-.454,3.468-.939,7.126-1.449,10.946-1.338,10-2.867,21.044-4.512,32.352l-.073.5c-.516,3.524-1.037,7.072-1.578,10.621a1.054,1.054,0,0,1-.025.14v.007c-1.289,8.575-2.64,17.139-4.014,25.378-.565,3.4-1.137,6.741-1.714,9.995q-.267,1.519-.536,3.013Z" transform="translate(-201.791 -120.182)" fill="#071b2d"/>
        <g id="Group_82488" data-name="Group 82488" transform="translate(0.536 224.276)">
          <path id="Path_11848" data-name="Path 11848" d="M225.638,345.317a5.661,5.661,0,1,1-5.661-5.661A5.661,5.661,0,0,1,225.638,345.317Z" transform="translate(-194.389 -339.656)" fill="#264cbe"/>
          <path id="Path_11849" data-name="Path 11849" d="M234.239,358.743a5.662,5.662,0,1,1-5.661-5.662A5.661,5.661,0,0,1,234.239,358.743Z" transform="translate(-188.94 -331.149)" fill="#264cbe"/>
          <path id="Path_11850" data-name="Path 11850" d="M251.157,351.812a5.661,5.661,0,1,1-5.661-5.662A5.66,5.66,0,0,1,251.157,351.812Z" transform="translate(-178.218 -335.541)" fill="#264cbe"/>
          <path id="Path_11851" data-name="Path 11851" d="M224.455,373a5.662,5.662,0,1,1-5.662-5.661A5.663,5.663,0,0,1,224.455,373Z" transform="translate(-195.14 -322.113)" fill="#264cbe"/>
          <path id="Path_11852" data-name="Path 11852" d="M245.6,371.519a5.662,5.662,0,1,1-5.662-5.661A5.661,5.661,0,0,1,245.6,371.519Z" transform="translate(-181.743 -323.052)" fill="#264cbe"/>
          <path id="Path_11853" data-name="Path 11853" d="M214.544,357.1a5.655,5.655,0,0,1-5.131,5.636c.51-3.82.995-7.477,1.449-10.946A5.657,5.657,0,0,1,214.544,357.1Z" transform="translate(-197.497 -331.969)" fill="#264cbe"/>
          <path id="Path_11854" data-name="Path 11854" d="M280.05,391.879a5.662,5.662,0,1,1-5.662-5.661A5.661,5.661,0,0,1,280.05,391.879Z" transform="translate(-159.91 -310.15)" fill="#264cbe"/>
          <path id="Path_11855" data-name="Path 11855" d="M278.413,373a5.662,5.662,0,1,1-5.662-5.661A5.663,5.663,0,0,1,278.413,373Z" transform="translate(-160.948 -322.113)" fill="#264cbe"/>
          <path id="Path_11856" data-name="Path 11856" d="M295.767,383.194a5.662,5.662,0,1,1-2.222-10.871,4.518,4.518,0,0,1,.65.042Q294.969,377.715,295.767,383.194Z" transform="translate(-147.771 -318.955)" fill="#264cbe"/>
          <path id="Path_11857" data-name="Path 11857" d="M281.878,405.714a5.662,5.662,0,1,1-5.661-5.662A5.661,5.661,0,0,1,281.878,405.714Z" transform="translate(-158.752 -301.384)" fill="#264cbe"/>
          <path id="Path_11858" data-name="Path 11858" d="M296.7,400.182a5.662,5.662,0,1,1-5.661-5.662A5.66,5.66,0,0,1,296.7,400.182Z" transform="translate(-149.359 -304.889)" fill="#264cbe"/>
          <path id="Path_11859" data-name="Path 11859" d="M265.085,409.639a5.644,5.644,0,0,0-9.332,0Z" transform="translate(-168.132 -296.873)" fill="#264cbe"/>
          <path id="Path_11860" data-name="Path 11860" d="M222.174,394.893a5.662,5.662,0,1,1-5.661-5.662A5.66,5.66,0,0,1,222.174,394.893Z" transform="translate(-196.586 -308.241)" fill="#264cbe"/>
          <path id="Path_11861" data-name="Path 11861" d="M210.549,383.752a5.65,5.65,0,0,1-4.924,5.6,1.053,1.053,0,0,0,.025-.14c.541-3.548,1.062-7.1,1.578-10.621A5.676,5.676,0,0,1,210.549,383.752Z" transform="translate(-199.897 -314.981)" fill="#264cbe"/>
          <path id="Path_11862" data-name="Path 11862" d="M206.153,405.287a5.675,5.675,0,0,1-4.034,5.427c.577-3.254,1.148-6.594,1.714-9.995A5.663,5.663,0,0,1,206.153,405.287Z" transform="translate(-202.119 -300.961)" fill="#264cbe"/>
          <path id="Path_11863" data-name="Path 11863" d="M230.774,407.178a5.662,5.662,0,1,1-5.662-5.662A5.661,5.661,0,0,1,230.774,407.178Z" transform="translate(-191.136 -300.456)" fill="#264cbe"/>
          <path id="Path_11864" data-name="Path 11864" d="M249.062,404.464A5.662,5.662,0,1,1,243.4,398.8,5.66,5.66,0,0,1,249.062,404.464Z" transform="translate(-179.547 -302.176)" fill="#264cbe"/>
          <path id="Path_11865" data-name="Path 11865" d="M236.015,387.425a5.662,5.662,0,1,1-5.662-5.661A5.663,5.663,0,0,1,236.015,387.425Z" transform="translate(-187.815 -312.973)" fill="#264cbe"/>
          <path id="Path_11866" data-name="Path 11866" d="M254.624,383.96a5.662,5.662,0,1,1-5.662-5.661A5.661,5.661,0,0,1,254.624,383.96Z" transform="translate(-176.022 -315.168)" fill="#264cbe"/>
          <path id="Path_11867" data-name="Path 11867" d="M263,365.674a5.662,5.662,0,1,1-5.662-5.662A5.661,5.661,0,0,1,263,365.674Z" transform="translate(-170.714 -326.757)" fill="#264cbe"/>
          <path id="Path_11868" data-name="Path 11868" d="M291.295,353.868a5.332,5.332,0,0,1-1.215.136,5.66,5.66,0,0,1-.232-11.315C290.282,346.041,290.762,349.8,291.295,353.868Z" transform="translate(-149.966 -337.734)" fill="#264cbe"/>
          <path id="Path_11869" data-name="Path 11869" d="M274.947,351.812a5.662,5.662,0,1,1-5.661-5.662A5.66,5.66,0,0,1,274.947,351.812Z" transform="translate(-163.144 -335.541)" fill="#264cbe"/>
          <path id="Path_11870" data-name="Path 11870" d="M287.64,364.162a5.662,5.662,0,1,1-5.662-5.661A5.663,5.663,0,0,1,287.64,364.162Z" transform="translate(-155.101 -327.714)" fill="#264cbe"/>
          <path id="Path_11871" data-name="Path 11871" d="M266.466,394.893a5.662,5.662,0,1,1-5.661-5.662A5.66,5.66,0,0,1,266.466,394.893Z" transform="translate(-168.518 -308.241)" fill="#264cbe"/>
        </g>
        <path id="Path_11872" data-name="Path 11872" d="M338.557,415.755c-31.689,20.687-89.872,19.067-126.436,0,3.493-21.756,8.092-43.536,7.1-72.493q-.167-4.761-.405-9.454-.213-4.08-.474-8.092c-3.155-48.171-11.375-87.558-7.335-92.648a38.343,38.343,0,0,1,8.33-7.1c1.425-.97,2.947-1.952,4.555-2.936,3.793-2.313,8.012-4.646,12.248-6.919,10.049-5.365,20.251-10.343,25.365-13.744,5.071,2.21,9.111,3.419,13.463,3.395a3.712,3.712,0,0,0,.374-.013,3.385,3.385,0,0,0,.363.013c4.352.025,8.392-1.184,13.468-3.395,4.746,3.155,13.677,7.557,22.795,12.357a197.416,197.416,0,0,1,18.784,10.91,37.667,37.667,0,0,1,8.023,6.894c2,2.522,1.16,13.584-.552,29.975-1.694,16.128-4.23,37.423-5.764,60.83-.425,6.5-.774,13.161-1.008,19.921C330.472,372.219,335.064,394,338.557,415.755Z" transform="translate(-196.642 -202.374)" fill="#c372d6"/>
        <g id="Group_82489" data-name="Group 82489" transform="translate(37.145 144.586)">
          <path id="Path_11873" data-name="Path 11873" d="M309.919,335.613h0c-25.518-.113-47.3-11.723-61.077-21.445a139.718,139.718,0,0,1-24.022-21.274,1.227,1.227,0,0,1,1.879-1.58A137.337,137.337,0,0,0,250.309,312.2c13.478,9.5,34.762,20.848,59.615,20.957a1.228,1.228,0,0,1,0,2.455Z" transform="translate(-224.528 -290.877)" fill="#ad57c1"/>
        </g>
        <g id="Group_82490" data-name="Group 82490" transform="translate(63.389 150.64)">
          <path id="Path_11874" data-name="Path 11874" d="M282.845,318.409c-21.728-4.27-40.96-20.911-41.834-21.676a1.228,1.228,0,1,1,1.617-1.848c.225.2,22.859,19.768,45.921,21.872a1.228,1.228,0,1,1-.222,2.446A53.906,53.906,0,0,1,282.845,318.409Z" transform="translate(-240.592 -294.583)" fill="#ad57c1"/>
        </g>
        <g id="Group_82491" data-name="Group 82491" transform="translate(72.248 32.782)">
          <path id="Path_11875" data-name="Path 11875" d="M247.242,251.716a1.228,1.228,0,0,1-.229-2.434c31.112-5.9,40.488-25.918,40.579-26.119a1.228,1.228,0,0,1,2.238,1.011c-.394.871-10.006,21.382-42.358,27.519A1.25,1.25,0,0,1,247.242,251.716Z" transform="translate(-246.015 -222.44)" fill="#ad57c1"/>
        </g>
        <path id="Path_11876" data-name="Path 11876" d="M301.794,214.732c-6.175,14.084-21.356,28.67-41.1,25.26-19.117-3.3-28.184-13.416-34.727-23.875,10.05-5.367,20.253-10.34,25.365-13.743,5.071,2.207,9.111,3.416,13.46,3.4a3.269,3.269,0,0,0,.376-.015,3.062,3.062,0,0,0,.368.015c4.349.02,8.389-1.189,13.466-3.4C283.749,205.528,292.683,209.929,301.794,214.732Z" transform="translate(-186.469 -202.373)" fill="#ffa681"/>
        <g id="Group_82492" data-name="Group 82492" transform="translate(55.007 1.032)">
          <path id="Path_11877" data-name="Path 11877" d="M279.276,203.006a.97.97,0,0,0-.982.97c-.007.791-.33,19.41-17.043,20.852-15.5,1.348-21.919-13.493-23.9-19.648a.867.867,0,0,0-.83-.6h-.183a.872.872,0,0,0-.83,1.147c2.116,6.352,8.873,21.69,24.665,21.127q.615-.022,1.247-.075c18.5-1.6,18.827-22.576,18.828-22.787A.976.976,0,0,0,279.276,203.006Z" transform="translate(-235.461 -203.006)" fill="#fff"/>
        </g>
      </g>
      <g id="Group_82503" data-name="Group 82503" transform="translate(34.187)">
        <path id="Path_11878" data-name="Path 11878" d="M300.33,142.43s14.937,23.136,13.3,47.235,2.2,51.919-19.362,50.7-60.027,8.645-72.252-10.124S300.33,142.43,300.33,142.43Z" transform="translate(-218.87 -130.01)" fill="#081528"/>
        <path id="Path_11879" data-name="Path 11879" d="M288.909,168.624s3.877,34.932-12.7,44.549-28.57-1.119-28.57-1.119S282.578,163.364,288.909,168.624Z" transform="translate(-201.913 -113.663)" fill="#000b29"/>
        <g id="Group_82502" data-name="Group 82502" transform="translate(6.333 17.371)">
          <g id="Group_82496" data-name="Group 82496" transform="translate(0 33.456)">
            <path id="Path_11880" data-name="Path 11880" d="M235.339,169.912s-5.952-7.936-10.377-1.374,1.831,25.943,12.666,21.212Z" transform="translate(-223.527 -165.939)" fill="#f97853"/>
            <g id="Group_82494" data-name="Group 82494" transform="translate(2.323 6.947)">
              <path id="Path_11881" data-name="Path 11881" d="M234.361,181.066a.919.919,0,0,1-.882-.668c-1.679-5.984-7.878-8.41-7.94-8.433a.916.916,0,0,1,.649-1.714c.289.109,7.121,2.761,9.056,9.652a.918.918,0,0,1-.882,1.163Z" transform="translate(-224.948 -170.192)" fill="#ea5143"/>
            </g>
            <g id="Group_82495" data-name="Group 82495" transform="translate(4.562 10.544)">
              <path id="Path_11882" data-name="Path 11882" d="M227.234,176.656a.916.916,0,0,1-.768-1.411,8.366,8.366,0,0,1,3.436-2.771.916.916,0,1,1,.748,1.673A6.625,6.625,0,0,0,228,176.237.911.911,0,0,1,227.234,176.656Z" transform="translate(-226.319 -172.394)" fill="#ea5143"/>
            </g>
          </g>
          <g id="Group_82499" data-name="Group 82499" transform="translate(70.858 33.456)">
            <path id="Path_11883" data-name="Path 11883" d="M269.19,169.912s5.952-7.936,10.377-1.374-1.831,25.943-12.668,21.212Z" transform="translate(-266.9 -165.939)" fill="#f97853"/>
            <g id="Group_82497" data-name="Group 82497" transform="translate(1.451 6.947)">
              <path id="Path_11884" data-name="Path 11884" d="M268.7,181.066a.916.916,0,0,0,.882-.668c1.679-5.984,7.878-8.41,7.941-8.433a.916.916,0,0,0-.649-1.714c-.291.109-7.121,2.761-9.056,9.652a.915.915,0,0,0,.634,1.129A.934.934,0,0,0,268.7,181.066Z" transform="translate(-267.788 -170.192)" fill="#ea5143"/>
            </g>
            <g id="Group_82498" data-name="Group 82498" transform="translate(4.667 10.544)">
              <path id="Path_11885" data-name="Path 11885" d="M273.714,176.656a.915.915,0,0,0,.769-1.411,8.376,8.376,0,0,0-3.437-2.771.916.916,0,0,0-.748,1.673,6.625,6.625,0,0,1,2.645,2.089A.913.913,0,0,0,273.714,176.656Z" transform="translate(-269.757 -172.394)" fill="#ea5143"/>
            </g>
          </g>
          <path id="Path_11886" data-name="Path 11886" d="M269.431,190.577v19.274s-5.747,9.815-13.52,10.485-14.667-8.453-14.667-8.453V191.933Z" transform="translate(-212.3 -116.87)" fill="#ffa681"/>
          <path id="Path_11887" data-name="Path 11887" d="M269.431,190.577v8.552c-5.216,5.788-14.476,7.838-28.184,5.816l0-13.012Z" transform="translate(-212.3 -116.87)" fill="#f97853"/>
          <path id="Path_11888" data-name="Path 11888" d="M297.773,169.666a187.807,187.807,0,0,1-2.5,24.348c-.358,1.867-.76,3.625-1.209,5.2-4.056,14.2-14.2,38.558-42.6,28.413-12.545-4.478-18.359-18.451-20.95-32.662a137.321,137.321,0,0,1-1.9-26.369,20.119,20.119,0,0,1,10.209-17.123c16.765-9.5,34.456-5.961,46.1-1.483A20.056,20.056,0,0,1,297.773,169.666Z" transform="translate(-220.321 -145.46)" fill="#ffa681"/>
          <path id="Path_11889" data-name="Path 11889" d="M243.711,170.508c0,2.057-1.062,3.725-2.369,3.725s-2.369-1.668-2.369-3.725,1.06-3.725,2.369-3.725S243.711,168.451,243.711,170.508Z" transform="translate(-213.739 -131.948)" fill="#18315b"/>
          <path id="Path_11890" data-name="Path 11890" d="M261.612,170.508c0,2.057-1.06,3.725-2.367,3.725s-2.369-1.668-2.369-3.725,1.06-3.725,2.369-3.725S261.612,168.451,261.612,170.508Z" transform="translate(-202.394 -131.948)" fill="#18315b"/>
          <path id="Path_11891" data-name="Path 11891" d="M239.03,162.863a39.537,39.537,0,0,1,10.132-1.518,1.76,1.76,0,0,1,1.753,2.063l0,.026a1.753,1.753,0,0,1-1.812,1.439c-2.851-.132-10.338.27-13.873,1.7a2.651,2.651,0,0,1,.807-1.884A6.1,6.1,0,0,1,239.03,162.863Z" transform="translate(-216.119 -135.394)" fill="#18315b"/>
          <path id="Path_11892" data-name="Path 11892" d="M265.6,162.91a39.538,39.538,0,0,0-10.132-1.518,1.759,1.759,0,0,0-1.753,2.062l0,.028a1.754,1.754,0,0,0,1.812,1.439c2.851-.132,10.338.268,13.873,1.7a2.651,2.651,0,0,0-.807-1.884A6.1,6.1,0,0,0,265.6,162.91Z" transform="translate(-204.416 -135.365)" fill="#18315b"/>
          <g id="Group_82500" data-name="Group 82500" transform="translate(39.393 37.643)">
            <path id="Path_11893" data-name="Path 11893" d="M251.045,186.415a3.878,3.878,0,0,1-1.991-.474,2.8,2.8,0,0,1-1.331-2.237c-.348-3.365.513-13.914.551-14.362a.915.915,0,1,1,1.825.15c-.01.108-.884,10.826-.554,14.024a1,1,0,0,0,.451.853c.859.515,2.846-.011,3.673-.348a.916.916,0,0,1,.693,1.7A9.785,9.785,0,0,1,251.045,186.415Z" transform="translate(-247.639 -168.502)" fill="#f97853"/>
          </g>
          <path id="Path_11894" data-name="Path 11894" d="M242.606,183.006c.693,3.483,2.993,9.892,10.745,9.892,7.77,0,9.948-5.857,10.7-9.892Z" transform="translate(-211.436 -121.668)" fill="#fff"/>
          <g id="Group_82501" data-name="Group 82501" transform="translate(37.074 73.622)">
            <path id="Path_11895" data-name="Path 11895" d="M250.95,193.475a9.129,9.129,0,0,1-4.295-1.256.915.915,0,0,1,.961-1.559h0a7.368,7.368,0,0,0,3.334.983,7.792,7.792,0,0,0,3.516-.987.915.915,0,0,1,.948,1.567A9.579,9.579,0,0,1,250.95,193.475Z" transform="translate(-246.22 -190.525)" fill="#f97853"/>
          </g>
        </g>
        <path id="Path_11896" data-name="Path 11896" d="M302.345,174.913a3.023,3.023,0,0,1-2.205,1.688,58.451,58.451,0,0,1-.33,6.777c-1.13,13.235-4.47,15.559-5.225,12.287-.5-2.174-.467-14.638-.227-18.7a43.151,43.151,0,0,1-4.85-.608l-3.07-12.849-1.073,12.689c-4.605,1.6-15.349-.964-15.349-.964l-3.6-12.664-2.228,12.186c-6.907,3.364-15.538,1.124-15.538,1.124l-1.983-13.145-4.579,13.145s-14.733,5.285-14.893,0c-.1-3.076,2.155-11.738,4.058-18.448a27.754,27.754,0,0,1,13.383-16.987c18.274-9.809,37.6-4.592,44.23-.632C302.922,148.2,302.345,174.913,302.345,174.913Z" transform="translate(-214.873 -134.827)" fill="#081528"/>
        <path id="Path_11897" data-name="Path 11897" d="M240.084,143.029s-12.13,14.425-16.12,40.19-9.515,44.8,6.01,53.309c16.8,9.207,15.349-9.676,15.107-14.809s-14.537-19.162-5-58.674C243.164,150.289,240.084,143.029,240.084,143.029Z" transform="translate(-219.65 -129.63)" fill="#081528"/>
        <path id="Path_11898" data-name="Path 11898" d="M230.423,175.619v.031c0,.191.018,1.215.091,2.818.038.995.1,2.2.19,3.579.572,8.68,2.259,23.67,7.219,28.871,1.959,2.057,5.734,3.088,10.179,3.506V207.6a26.991,26.991,0,0,1-11.166-10.369,63.786,63.786,0,0,1-6.177-19.042Z" transform="translate(-212.823 -108.978)" fill="#000b29"/>
        <path id="Path_11899" data-name="Path 11899" d="M272.735,181.612a2.146,2.146,0,1,1-2.145-2.145A2.146,2.146,0,0,1,272.735,181.612Z" transform="translate(-188.731 -106.54)" fill="#fff"/>
      </g>
      <g id="Group_82509" data-name="Group 82509" transform="translate(0 140.508)">
        <path id="Path_11900" data-name="Path 11900" d="M341.886,317.006c-6.076,17.4-33.288,16.129-64.282,6.62-.046-.013-.09-.029-.136-.041-.1-.029-.191-.062-.289-.09l-4.264-1.359c-.588-.193-1.18-.389-1.768-.59q-5.011-1.676-10.083-3.609a345.867,345.867,0,0,1-32.757-14.509l.074-.185,3.168-8.232,1.083-2.8s57.458,6.26,86.35.221c.49-.1.967-.2,1.438-.314a18.005,18.005,0,0,0-.332-1.907c-15.308-52.115,1.434-62.108,7.036-69.376C327.124,220.834,353.358,284.166,341.886,317.006Z" transform="translate(-179.977 -220.834)" fill="#bf63d6"/>
        <g id="Group_82504" data-name="Group 82504" transform="translate(139.004 69.376)">
          <path id="Path_11901" data-name="Path 11901" d="M297.352,273.966a1.252,1.252,0,0,1-.536.122,1.23,1.23,0,0,1-1.1-.686c-2.188-4.484-9.621-7.151-11.9-7.883.49-.1.967-.2,1.438-.314-.114-.64-.225-1.278-.332-1.907,2.9.959,10.487,3.883,13,9.028A1.227,1.227,0,0,1,297.352,273.966Z" transform="translate(-283.81 -263.3)" fill="#ad57c1"/>
        </g>
        <g id="Group_82505" data-name="Group 82505" transform="translate(48.853 70.777)">
          <path id="Path_11902" data-name="Path 11902" d="M251.842,271.239c-11.727,0-21.249-.673-22.079-.734a1.225,1.225,0,0,1,.178-2.444c.433.031,43.535,3.079,60.528-3.815a1.225,1.225,0,0,1,.921,2.271C281.983,270.334,265.432,271.239,251.842,271.239Z" transform="translate(-228.627 -264.157)" fill="#ad57c1"/>
        </g>
        <g id="Group_82506" data-name="Group 82506" transform="translate(92.938 77.859)">
          <path id="Path_11903" data-name="Path 11903" d="M255.612,291.935h0c9.833-2.712,18.771-5.354,23.934-7.009,7.167-2.3,13.1-9.542,15.791-15.7a1.226,1.226,0,0,1,2.245.985c-2.914,6.661-9.392,14.517-17.289,17.052-3.746,1.2-9.467,2.916-16.079,4.8a14.879,14.879,0,0,1-8.606-.131Z" transform="translate(-255.612 -268.492)" fill="#ad57c1"/>
        </g>
        <g id="Group_82508" data-name="Group 82508" transform="translate(2.296 0.536)">
          <path id="Path_11904" data-name="Path 11904" d="M317.277,313.5c-88.8,29.908-116.119,10.335-116.119,10.335-5.979-54.062,16.053-102.676,16.053-102.676,6.509,10.732,13.867,29.462,13.867,29.462l1.944,41.44-.147,1.152-.069.542-.368,2.834-.008.057.572.123c26.861,5.667,75.986-.665,75.986-.665Z" transform="translate(-200.129 -221.162)" fill="#bf63d6"/>
          <g id="Group_82507" data-name="Group 82507" transform="translate(17.263 72.596)">
            <path id="Path_11905" data-name="Path 11905" d="M226.306,268.613a87.517,87.517,0,0,0-13.408,13.97,1.227,1.227,0,0,1-1.956-1.482l0,0a89.826,89.826,0,0,1,15.162-15.5l-.368,2.834-.008.057Z" transform="translate(-210.696 -265.599)" fill="#ad57c1"/>
          </g>
          <path id="Path_11906" data-name="Path 11906" d="M266.763,274.977s9.832-22.332,24.778-20.344l4.507,16.146c-8.182,3.475-9.379,17.5-20.995,21.592Z" transform="translate(-157.904 -200.031)" fill="#ffa681"/>
        </g>
        <path id="Path_11907" data-name="Path 11907" d="M251.38,272.3s-6.208-14.573-22.548-18.8-26.748,3.47-27.846,6.375,6.162.129,6.162.129a14.1,14.1,0,0,0-7.44,5.782c-2.712,4.442,6.6-.351,6.6-.351s-6.679,2.928-7.528,5.639,7.959-1.871,9.616-1.782c0,0-7.866,3.125-7.812,5.925s9.034-1.766,15.742-1.4,16.992,3.14,16.992,3.14a112.671,112.671,0,0,0,15.481,2.037Z" transform="translate(-198.724 -200.923)" fill="#ffa681"/>
      </g>
    </g>
    <g id="Group_82511" data-name="Group 82511" transform="translate(63.291 581.923)">
      <rect id="Rectangle_3962" data-name="Rectangle 3962" width="671.795" height="15.977" rx="7.989" transform="translate(0.001)" fill="#0a2440"/>
      <path id="Path_11908" data-name="Path 11908" d="M716.637,416.3v.366H44.841V416.3c0-4.209,5.581-7.623,12.468-7.623H704.165C711.054,408.681,716.637,412.094,716.637,416.3Z" transform="translate(-44.841 -408.68)" fill="#00b074"/>
    </g>
  </g>
</svg>
