<svg xmlns="http://www.w3.org/2000/svg" width="92" height="92" viewBox="0 0 92 92">
  <g id="Group_82568" data-name="Group 82568" transform="translate(-315 -1344)">
    <circle id="Ellipse_366" data-name="Ellipse 366" cx="46" cy="46" r="46" transform="translate(315 1344)" fill="#00b074"/>
    <g id="Group_82534" data-name="Group 82534" transform="translate(339 1365)">
      <path id="Path_11919" data-name="Path 11919" d="M-1221.267-1207.871c1.545,2.652,3.055,5.243,4.561,7.837a1.951,1.951,0,0,1,.276.636c.1.641-.51,1.072-1.234.879q-3.175-.844-6.348-1.7c-.12-.032-.243-.054-.431-.1-.156.555-.313,1.1-.46,1.644q-.67,2.5-1.332,5c-.121.46-.3.87-.841.923-.512.05-.759-.309-.984-.7-1.332-2.322-2.665-4.644-4.021-6.953a1.339,1.339,0,0,0-.63-.478c-.662-.273-1.349-.482-2.014-.747-.583-.232-1.148-.512-1.724-.761a3.1,3.1,0,0,0-2.563,0,21.342,21.342,0,0,1-3.027,1.26,2.7,2.7,0,0,0-1.822,1.515c-1.14,2.079-2.357,4.116-3.537,6.173-.226.393-.479.751-.991.685s-.7-.468-.827-.937c-.576-2.186-1.171-4.367-1.772-6.6a3.849,3.849,0,0,0-.418.064c-2.1.559-4.2,1.115-6.294,1.688a.967.967,0,0,1-1.13-.232.959.959,0,0,1,.034-1.2q2.138-3.683,4.261-7.374c.1-.169.189-.342.3-.551-1.861-.99-2.017-2.656-1.806-4.467.079-.679.147-1.358.232-2.036a3.173,3.173,0,0,0-.879-2.721c-.619-.652-1.231-1.313-1.8-2.007-1.556-1.891-1.555-3.5,0-5.382.562-.678,1.158-1.329,1.771-1.961a3.342,3.342,0,0,0,.893-2.927,29.323,29.323,0,0,1-.274-3.058,3.3,3.3,0,0,1,2.56-3.54c1.06-.326,2.161-.53,3.25-.752a3.164,3.164,0,0,0,2.223-1.631c.55-.967,1.085-1.95,1.716-2.864a3.267,3.267,0,0,1,3.8-1.436,11.926,11.926,0,0,1,1.465.536c.646.27,1.281.564,1.918.856a3.236,3.236,0,0,0,2.814.011c.539-.245,1.084-.479,1.625-.719.279-.124.553-.259.836-.373,2.295-.922,3.77-.461,5.106,1.634.492.771.929,1.579,1.374,2.379a3.087,3.087,0,0,0,2.184,1.6c1.054.217,2.118.415,3.147.726a3.329,3.329,0,0,1,2.681,3.714c-.026,1.076-.165,2.149-.276,3.221a3.03,3.03,0,0,0,.789,2.484c.656.716,1.329,1.42,1.935,2.176,1.482,1.848,1.476,3.414,0,5.266a11.393,11.393,0,0,1-1.337,1.479,4.11,4.11,0,0,0-1.316,4.193,15.317,15.317,0,0,1,.2,1.983A3.466,3.466,0,0,1-1221.267-1207.871Zm-32.833-21.009a4.874,4.874,0,0,1-1.538,3.781c-.551.592-1.119,1.172-1.628,1.8a1.976,1.976,0,0,0,0,3.025c.568.7,1.19,1.347,1.8,2.006a4.83,4.83,0,0,1,1.335,3.952c-.111,1.072-.232,2.146-.261,3.221a1.564,1.564,0,0,0,1.322,1.828,17.351,17.351,0,0,0,2.464.564,5.406,5.406,0,0,1,4.313,3.1c.22.451.475.887.736,1.317a12.288,12.288,0,0,0,.722,1.071,1.561,1.561,0,0,0,1.913.579,23.51,23.51,0,0,0,2.479-1.039,5.555,5.555,0,0,1,5.323-.021c.623.317,1.263.606,1.913.867,1.447.581,2.1.371,2.941-.953a18.761,18.761,0,0,0,1.039-1.825,5.472,5.472,0,0,1,4.425-3.115,17.777,17.777,0,0,0,2.608-.641,1.441,1.441,0,0,0,1.061-1.519,19.419,19.419,0,0,0-.181-2.523,5.513,5.513,0,0,1,1.619-5.269,13.967,13.967,0,0,0,.993-1.065,12.179,12.179,0,0,0,.767-.972,1.729,1.729,0,0,0,0-2.155,13.088,13.088,0,0,0-.841-1.051c-.45-.514-.921-1.01-1.38-1.515a4.72,4.72,0,0,1-1.23-3.827c.107-1.036.231-2.074.264-3.114a1.664,1.664,0,0,0-1.432-1.974,14,14,0,0,0-2.152-.481,5.623,5.623,0,0,1-4.631-3.336,13.958,13.958,0,0,0-1.059-1.812,1.807,1.807,0,0,0-2.614-.839c-.836.322-1.649.709-2.463,1.086a5.186,5.186,0,0,1-4.579,0c-.781-.364-1.561-.733-2.362-1.047-1.363-.534-1.959-.329-2.779.892-.19.283-.356.582-.528.877-.362.62-.709,1.25-1.083,1.863a4.287,4.287,0,0,1-2.756,2.008c-1.013.24-2.041.417-3.049.672-1.484.377-1.869.893-1.784,2.417C-1254.335-1230.988-1254.2-1229.934-1254.1-1228.879Zm9.091,27.758a7.086,7.086,0,0,1-2.438-2.971c-.208-.377-.433-.745-.634-1.125a3.063,3.063,0,0,0-2.259-1.655c-.6-.112-1.2-.224-1.789-.38a.514.514,0,0,0-.679.311c-1.108,1.95-2.236,3.889-3.355,5.833-.063.11-.1.233-.184.42,1.833-.491,3.579-.96,5.327-1.425.975-.259,1.265-.093,1.522.865q.642,2.39,1.281,4.781c.047.174.108.343.193.609Zm14.488.023,3.046,5.262c.519-1.93.993-3.7,1.469-5.466.235-.873.551-1.063,1.406-.833,1.56.42,3.119.845,4.679,1.266.226.061.456.11.793.191-1.27-2.2-2.468-4.29-3.685-6.364a.564.564,0,0,0-.463-.18c-.5.059-.988.187-1.485.26a3.551,3.551,0,0,0-2.877,2.086c-.184.389-.42.753-.627,1.131A6.4,6.4,0,0,1-1230.52-1201.1Z" transform="translate(1259.652 1242.818)" fill="#fff"/>
      <path id="Path_11920" data-name="Path 11920" d="M-1180.861-1157.267a13.483,13.483,0,0,1-13.462-13.439,13.494,13.494,0,0,1,13.493-13.469,13.494,13.494,0,0,1,13.436,13.473A13.481,13.481,0,0,1-1180.861-1157.267Zm-.019-1.741a11.729,11.729,0,0,0,11.758-11.706,11.763,11.763,0,0,0-11.69-11.734,11.752,11.752,0,0,0-11.785,11.689A11.74,11.74,0,0,0-1180.88-1159.008Z" transform="translate(1202.752 1191.742)" fill="#fff"/>
      <path id="Path_11921" data-name="Path 11921" d="M-1148.043-1113.835c.176-.168.32-.3.458-.437q4-4,8.008-8.007a2.508,2.508,0,0,1,.44-.394.8.8,0,0,1,1.076.139.8.8,0,0,1,.087,1.041,2.667,2.667,0,0,1-.392.443q-4.4,4.411-8.8,8.819c-.672.673-1.042.67-1.719-.007l-5.109-5.11c-.076-.076-.156-.149-.228-.229a.872.872,0,0,1-.047-1.215.829.829,0,0,1,1.247-.006c.791.759,1.558,1.542,2.334,2.318C-1149.812-1115.608-1148.939-1114.733-1148.043-1113.835Z" transform="translate(1168.06 1138.303)" fill="#fff"/>
    </g>
  </g>
</svg>
