<svg xmlns="http://www.w3.org/2000/svg" width="92" height="92" viewBox="0 0 92 92">
  <g id="Group_82567" data-name="Group 82567" transform="translate(-968 -1344)">
    <circle id="Ellipse_371" data-name="Ellipse 371" cx="46" cy="46" r="46" transform="translate(968 1344)" fill="#00b074"/>
    <g id="Group_82535" data-name="Group 82535" transform="translate(989 1366.439)">
      <path id="Path_11922" data-name="Path 11922" d="M-745.354-1243.52c.093-.411.178-.824.281-1.232a9.2,9.2,0,0,1,7.69-6.941c.127-.019.252-.055.417-.092,0-1.374.008-2.733-.015-4.09,0-.115-.189-.277-.324-.331a3.38,3.38,0,0,1-1.933-4.371,3.374,3.374,0,0,1,4.349-1.888,3.4,3.4,0,0,1,2.127,3.1,3.357,3.357,0,0,1-2.134,3.132.49.49,0,0,0-.392.557c.015,1.18.011,2.361,0,3.541,0,.246.044.4.327.436a9.174,9.174,0,0,1,4.793,2.088l2.348-2.005c.785-.671,1.579-1.333,2.348-2.022a.938.938,0,0,0,.289-.566,9.291,9.291,0,0,1,8.479-8.466,9.2,9.2,0,0,1,9.631,6.828,1.861,1.861,0,0,0,1.169,1.43c1.679.735,3.315,1.567,4.961,2.376a.7.7,0,0,0,.8-.031,3.176,3.176,0,0,1,3.653.012,3.135,3.135,0,0,1,1.456,3.308,3.2,3.2,0,0,1-2.457,2.711,3.352,3.352,0,0,1-4.108-3.953c.033-.141.069-.281.112-.453l-5.252-2.534a9.371,9.371,0,0,1-3.031,6.36c.261.349.513.687.766,1.024,1.112,1.481,2.217,2.967,3.345,4.436a.805.805,0,0,0,.552.277,9.246,9.246,0,0,1,9.091,7.323,9.261,9.261,0,0,1-7.345,10.987,9.053,9.053,0,0,1-9.585-4.311c-.027-.041-.056-.079-.087-.117a.578.578,0,0,0-.09-.056c-1.052.789-2.125,1.586-3.183,2.4-.074.057-.073.257-.055.383.127.906.257,1.811.413,2.712a.658.658,0,0,0,.283.432q2.82,1.389,5.662,2.733a.567.567,0,0,0,.47-.022,3.262,3.262,0,0,1,3.789-.077,3.127,3.127,0,0,1,1.48,3.3,3.243,3.243,0,0,1-2.63,2.779,1.148,1.148,0,0,0-.177.077h-.984a3.947,3.947,0,0,1-1.98-1.1,3.38,3.38,0,0,1-.68-3.422l-5.464-2.636c-.048.138-.08.213-.1.292a9.155,9.155,0,0,1-6.077,6.421c-.562.2-1.157.3-1.737.449h-2.165a1.02,1.02,0,0,0-.221-.09,9.206,9.206,0,0,1-7.85-7.9c-.046-.3-.153-.41-.467-.405q-1.768.027-3.537,0c-.311,0-.436.1-.552.4a3.344,3.344,0,0,1-4.69,1.709,3.622,3.622,0,0,1-1.774-2.467v-.984a2.333,2.333,0,0,0,.089-.226,3.373,3.373,0,0,1,3.12-2.618,3.4,3.4,0,0,1,3.316,2.233.618.618,0,0,0,.473.269c1.164.023,2.329-.006,3.492.022.4.01.481-.149.54-.5a8.882,8.882,0,0,1,5.866-7.283,8.789,8.789,0,0,1,9.318,1.685,23.114,23.114,0,0,1,2.072,2.293c.926-.694,1.9-1.446,2.9-2.16a.588.588,0,0,0,.251-.767,9.152,9.152,0,0,1,4.324-10.533,23.475,23.475,0,0,1,2.2-.994l-3.711-4.942a9.069,9.069,0,0,1-8.577.567,9.207,9.207,0,0,1-5.374-6.742l-3.9,3.339a9.465,9.465,0,0,1,2.052,5.2.907.907,0,0,0,.338.5c1.31,1.039,2.64,2.053,3.945,3.1a.585.585,0,0,0,.807.067,3.062,3.062,0,0,1,2.412-.369,3.343,3.343,0,0,1,2.492,4.064,3.35,3.35,0,0,1-4.053,2.446,3.324,3.324,0,0,1-2.4-4.194.509.509,0,0,0-.221-.654c-.735-.549-1.451-1.124-2.176-1.687-.407-.316-.818-.629-1.25-.961-.073.284-.129.505-.187.727a9.3,9.3,0,0,1-8.879,6.9,9.3,9.3,0,0,1-8.66-5.988c-.276-.763-.415-1.576-.617-2.366Zm25.19,27.5a7.4,7.4,0,0,0,2.077-8.061,7.512,7.512,0,0,0-7.941-4.991,7.628,7.628,0,0,0-6.616,6.156c-.533,2.955.941,5.9,2.391,6.821a1.342,1.342,0,0,0,.018-.2,2.625,2.625,0,0,1,2.824-2.763c1.474.046,2.952-.011,4.427.022a3.52,3.52,0,0,1,1.375.277A2.576,2.576,0,0,1-720.164-1216.018ZM-731-1237.063a7.461,7.461,0,0,0,1.9-8.3,7.632,7.632,0,0,0-7.755-4.717,7.557,7.557,0,0,0-6.777,6.768c-.286,2.237,1.069,5.666,2.472,6.22.005-.1.01-.2.014-.294a2.469,2.469,0,0,1,2.484-2.623c1.7-.081,3.409-.046,5.112-.006a2.378,2.378,0,0,1,2.255,1.548A7.5,7.5,0,0,1-731-1237.063Zm31.023,10.929a7.363,7.363,0,0,0,2.134-7.79,7.567,7.567,0,0,0-7.53-5.261,7.59,7.59,0,0,0-7.011,5.748,7.311,7.311,0,0,0,2.27,7.286c.012-.172.021-.334.036-.5a2.442,2.442,0,0,1,2.415-2.437c1.764-.082,3.539-.076,5.3.01a2.457,2.457,0,0,1,2.354,2.449C-700-1226.469-699.991-1226.313-699.981-1226.134Zm-21.052-21.806c.013-.188.022-.317.032-.446a2.484,2.484,0,0,1,2.531-2.537c1.719-.064,3.444-.055,5.162.018a2.474,2.474,0,0,1,2.385,2.474c.009.152.021.3.034.488a7.418,7.418,0,0,0,2.116-7.834,7.58,7.58,0,0,0-7.163-5.248,7.573,7.573,0,0,0-7.215,5.241A7.416,7.416,0,0,0-721.034-1247.94Zm16,20.491c-.769,0-1.539-.016-2.307,0-.738.019-1.05.336-1.071,1.048-.011.376.018.754-.009,1.129-.021.3.116.431.374.538a7.6,7.6,0,0,0,5.311.248c1.05-.325,1.048-.331,1.048-1.433,0-.131,0-.262,0-.393-.011-.8-.326-1.124-1.136-1.139C-703.556-1227.46-704.293-1227.45-705.029-1227.449Zm-31.063-10.911v.005c-.8,0-1.6-.023-2.4.007a.881.881,0,0,0-.969.983c-.01.392.016.786-.008,1.177a.482.482,0,0,0,.359.543,7.648,7.648,0,0,0,5.312.253c1.049-.319,1.045-.329,1.045-1.432,0-.131,0-.262,0-.393-.005-.805-.312-1.126-1.125-1.141C-734.62-1238.37-735.356-1238.36-736.093-1238.36Zm7.54,22.574a1.726,1.726,0,0,1,0,.294c-.092.521.132.775.631.953a7.938,7.938,0,0,0,5.371.032c.535-.18.831-.433.721-1.036a4.025,4.025,0,0,1-.007-.686c-.006-.819-.309-1.129-1.128-1.132-1.342-.005-2.684,0-4.027,0C-728.42-1217.362-728.553-1217.228-728.553-1215.786Zm12.588-33.483v0c-.785,0-1.571-.017-2.356.005-.68.02-.975.334-1,1.008-.012.376.016.754-.009,1.128a.51.51,0,0,0,.389.574,7.6,7.6,0,0,0,5.449.184c.892-.3.89-.3.89-1.251,0-.164,0-.327,0-.491-.007-.843-.3-1.148-1.158-1.159C-714.493-1249.277-715.229-1249.269-715.966-1249.269Zm-24.369,27.716a1.668,1.668,0,0,0-1.67-1.693,1.7,1.7,0,0,0-1.669,1.661,1.679,1.679,0,0,0,1.686,1.683A1.644,1.644,0,0,0-740.334-1221.553Zm4.188-36.133a1.67,1.67,0,0,0,1.707-1.657,1.7,1.7,0,0,0-1.648-1.681,1.679,1.679,0,0,0-1.7,1.672A1.645,1.645,0,0,0-736.146-1257.686Zm17.655,20.988a1.666,1.666,0,0,0-1.666-1.65,1.67,1.67,0,0,0-1.679,1.687,1.678,1.678,0,0,0,1.667,1.654A1.678,1.678,0,0,0-718.491-1236.7Zm9.25,21a1.689,1.689,0,0,0,1.643,1.682,1.689,1.689,0,0,0,1.7-1.673,1.664,1.664,0,0,0-1.642-1.671A1.667,1.667,0,0,0-709.241-1215.695Zm9.242-33.592a1.67,1.67,0,0,0,1.677,1.687,1.691,1.691,0,0,0,1.668-1.657,1.678,1.678,0,0,0-1.687-1.683A1.662,1.662,0,0,0-700-1249.287Z" transform="translate(745.354 1262.706)" fill="#fff"/>
      <path id="Path_11923" data-name="Path 11923" d="M-602.462-959.61a3.354,3.354,0,0,1,3.391-3.29,3.379,3.379,0,0,1,3.309,3.387,3.393,3.393,0,0,1-3.382,3.32A3.365,3.365,0,0,1-602.462-959.61Zm1.676.045a1.669,1.669,0,0,0,1.676,1.689,1.7,1.7,0,0,0,1.672-1.657,1.684,1.684,0,0,0-1.689-1.685A1.659,1.659,0,0,0-600.786-959.565Z" transform="translate(619.272 998.169)" fill="#fff"/>
      <path id="Path_11924" data-name="Path 11924" d="M-691.934-1134.663a3.342,3.342,0,0,1-3.343-3.334,3.37,3.37,0,0,1,3.373-3.366,3.391,3.391,0,0,1,3.329,3.372A3.364,3.364,0,0,1-691.934-1134.663Zm.022-1.678a1.677,1.677,0,0,0,1.66-1.66,1.706,1.706,0,0,0-1.7-1.686,1.683,1.683,0,0,0-1.648,1.723A1.652,1.652,0,0,0-691.912-1136.342Z" transform="translate(701.168 1155.638)" fill="#fff"/>
      <path id="Path_11925" data-name="Path 11925" d="M-427.836-1041.866a3.351,3.351,0,0,1-3.351-3.33,3.372,3.372,0,0,1,3.369-3.37,3.39,3.39,0,0,1,3.336,3.364A3.369,3.369,0,0,1-427.836-1041.866Zm.008-1.679a1.678,1.678,0,0,0,1.666-1.654,1.7,1.7,0,0,0-1.688-1.692,1.671,1.671,0,0,0-1.654,1.665A1.651,1.651,0,0,0-427.829-1043.545Z" transform="translate(468.145 1073.756)" fill="#fff"/>
      <path id="Path_11926" data-name="Path 11926" d="M-520.619-1227.461a3.343,3.343,0,0,1-3.347-3.33,3.377,3.377,0,0,1,3.32-3.373,3.408,3.408,0,0,1,3.388,3.371A3.375,3.375,0,0,1-520.619-1227.461Zm0-1.679a1.68,1.68,0,0,0,1.673-1.648,1.711,1.711,0,0,0-1.685-1.7,1.68,1.68,0,0,0-1.659,1.712A1.647,1.647,0,0,0-520.614-1229.139Z" transform="translate(550.009 1237.522)" fill="#fff"/>
    </g>
  </g>
</svg>
