<svg xmlns="http://www.w3.org/2000/svg" width="92" height="92" viewBox="0 0 92 92">
  <g id="Group_82569" data-name="Group 82569" transform="translate(-315 -1474)">
    <circle id="Ellipse_367" data-name="Ellipse 367" cx="46" cy="46" r="46" transform="translate(315 1474)" fill="#00b074"/>
    <g id="Group_82536" data-name="Group 82536" transform="translate(335 1497.874)">
      <path id="Path_11927" data-name="Path 11927" d="M-1787.4-564.991c-.2.869-.355,1.749-.6,2.606a11.647,11.647,0,0,1-2.11,4.037c-.367.468-.781.579-1.151.313-.386-.278-.411-.724-.026-1.223a11.171,11.171,0,0,0,2.373-7.486,11.135,11.135,0,0,0-10.124-10.428,11.081,11.081,0,0,0-11.489,7.588,11.1,11.1,0,0,0,5.425,13.276,10.878,10.878,0,0,0,11.4-.7c.084-.054.163-.115.25-.164a.742.742,0,0,1,1.057.186.708.708,0,0,1-.235,1.042,17.194,17.194,0,0,1-2.747,1.5,12.392,12.392,0,0,1-12.656-2.013,1.554,1.554,0,0,0-.892-.3q-12.821-.024-25.642-.006a3.734,3.734,0,0,1-3.2-1.406,3.814,3.814,0,0,1-.733-2.432q.006-11.449,0-22.9c0-.8-.005-1.6,0-2.395,0-.583.294-.935.749-.933s.736.355.743.94c.007.548,0,1.1,0,1.685h42.6c.014-.021.047-.049.047-.077,0-1.778.041-3.558-.018-5.334a1.889,1.889,0,0,0-1.878-1.839c-.558-.036-1.119-.006-1.735-.006,0,.672.023,1.3,0,1.928a2.961,2.961,0,0,1-2.8,2.855,2.957,2.957,0,0,1-3.03-2.241,5.609,5.609,0,0,1-.108-1.137c-.017-.446,0-.893,0-1.38h-3.9a20.656,20.656,0,0,1-.013,2.191,2.922,2.922,0,0,1-2.893,2.58,2.956,2.956,0,0,1-2.938-2.539,15.018,15.018,0,0,1-.061-1.642c-.005-.194,0-.389,0-.607h-3.861c0,.58.013,1.139,0,1.7a2.947,2.947,0,0,1-2.636,3.051,2.935,2.935,0,0,1-3.277-2.679c-.042-.675-.007-1.354-.007-2.066-.234-.012-.4-.027-.558-.027-1.093,0-2.186,0-3.338,0,0,.686.02,1.314,0,1.941a2.922,2.922,0,0,1-2.111,2.726,2.946,2.946,0,0,1-3.237-1.073,3.228,3.228,0,0,1-.59-2.018c0-.5,0-.994,0-1.624a14.187,14.187,0,0,0-2.285.2,1.831,1.831,0,0,0-1.343,1.739c-.013.115-.006.233-.01.349-.021.557-.289.884-.731.894-.463.01-.754-.337-.764-.91a3.516,3.516,0,0,1,3.392-3.7c.559-.037,1.122-.005,1.781-.005,0-.773-.044-1.47.009-2.161a2.934,2.934,0,0,1,2.956-2.677,2.969,2.969,0,0,1,2.922,2.729c.043.675.007,1.354.007,2.091h3.9c0-.7-.032-1.348.007-1.989a2.809,2.809,0,0,1,1.857-2.6,2.832,2.832,0,0,1,3.142.606,2.977,2.977,0,0,1,.925,2.338c-.006.527,0,1.055,0,1.614h3.863c0-.626-.02-1.224,0-1.819a2.959,2.959,0,0,1,2.076-2.812,2.938,2.938,0,0,1,3.252,1.021,3.181,3.181,0,0,1,.627,2.006c.006.527,0,1.055,0,1.609h3.888c0-.716-.047-1.412.009-2.1a2.935,2.935,0,0,1,2.942-2.693,2.979,2.979,0,0,1,2.945,2.814c.034.645.006,1.292.006,2.006.456,0,.867,0,1.278,0a3.568,3.568,0,0,1,3.872,3.885q.009,6.011-.009,12.023a1.06,1.06,0,0,0,.466.953,12.4,12.4,0,0,1,4.894,8.64,1.837,1.837,0,0,0,.082.284Zm-31.906,6.69h9.469a12.612,12.612,0,0,1-2.716-7.07h-6.753Zm-10.389-15.711h-7.264v7.089h7.264Zm1.56-.011v7.1h7.277v-7.1Zm8.818-1.563h7.289v-7.042h-7.289Zm.008,8.657h6.681a20.754,20.754,0,0,0,.582-7.091h-7.262Zm-10.389-8.64v-7.059h-7.267v7.059Zm1.571-7.077v7.062h7.27v-7.062Zm-.017,24.339h7.29v-7.057h-7.29Zm-1.556.01v-7.06h-7.3c0,1.635,0,3.229,0,4.823a2.055,2.055,0,0,0,2.25,2.263c1.528.01,3.057,0,4.585,0C-1830.011-558.268-1829.866-558.285-1829.7-558.3Zm19.228-17.255c.7,0,1.38.009,2.055-.009a.661.661,0,0,0,.338-.188,12.3,12.3,0,0,1,4.574-2.445.418.418,0,0,0,.348-.492c-.016-1.08-.006-2.16-.006-3.239v-.711h-7.308Zm8.829-7.093v4.029a12.98,12.98,0,0,1,7.286,1.217v-5.246Zm-10.6-9.645c0,.846-.009,1.693,0,2.539a1.506,1.506,0,0,0,1.5,1.589,1.5,1.5,0,0,0,1.47-1.567q.026-2.489,0-4.979a1.505,1.505,0,0,0-1.5-1.588,1.509,1.509,0,0,0-1.468,1.617C-1812.245-593.883-1812.238-593.086-1812.238-592.29Zm-16.663.054c0-.813.005-1.626,0-2.44a1.5,1.5,0,0,0-1.455-1.622,1.475,1.475,0,0,0-1.494,1.535q-.041,2.539,0,5.078a1.473,1.473,0,0,0,1.5,1.523,1.489,1.489,0,0,0,1.442-1.584C-1828.895-590.576-1828.9-591.406-1828.9-592.235Zm29.434.039c0-.863.011-1.726,0-2.589a1.474,1.474,0,0,0-1.414-1.509,1.427,1.427,0,0,0-1.516,1.394q-.068,2.661,0,5.326a1.438,1.438,0,0,0,1.5,1.412,1.484,1.484,0,0,0,1.431-1.544C-1799.458-590.537-1799.466-591.367-1799.467-592.2Zm-19.64-.039h.017c0-.813.01-1.626,0-2.439a1.49,1.49,0,0,0-1.5-1.622,1.49,1.49,0,0,0-1.439,1.634q-.009,2.439,0,4.878a2.054,2.054,0,0,0,.071.587,1.465,1.465,0,0,0,1.526,1.027,1.415,1.415,0,0,0,1.319-1.329C-1819.079-590.409-1819.108-591.323-1819.108-592.235Zm9.319,18.22c-.75-.056-.857.113-.594.81Z" transform="translate(1838.49 597.795)" fill="#fff"/>
      <path id="Path_11928" data-name="Path 11928" d="M-1584.08-391.847a9.389,9.389,0,0,1-9.245-10.233,9.547,9.547,0,0,1,1.272-3.9.766.766,0,0,1,1.077-.4.748.748,0,0,1,.222,1.122,8.153,8.153,0,0,0-1.125,4.429,7.782,7.782,0,0,0,8.092,7.378,7.75,7.75,0,0,0,7.319-6.343,7.7,7.7,0,0,0-4.481-8.5,7.525,7.525,0,0,0-7.585.691c-.152.1-.293.222-.454.306a.691.691,0,0,1-.97-.205.693.693,0,0,1,.125-.986,4.26,4.26,0,0,1,.681-.5,8.926,8.926,0,0,1,10.063.03,8.7,8.7,0,0,1,4.134,8.98,8.877,8.877,0,0,1-6.449,7.612A19.818,19.818,0,0,1-1584.08-391.847Z" transform="translate(1622.619 432.867)" fill="#fff"/>
      <path id="Path_11929" data-name="Path 11929" d="M-1520.624-372.461h2.751c.765,0,1.53-.015,2.294.008a.755.755,0,0,1,.814.761.75.75,0,0,1-.843.721q-2.817.011-5.636,0c-.627,0-.87-.292-.872-1.009-.006-1.762,0-3.524,0-5.287,0-.066,0-.133,0-.2.045-.553.332-.849.8-.824.439.023.687.315.691.863.008,1.446,0,2.893,0,4.339Z" transform="translate(1559.869 404.483)" fill="#fff"/>
    </g>
  </g>
</svg>
