<svg xmlns="http://www.w3.org/2000/svg" width="92" height="92" viewBox="0 0 92 92">
  <g id="Group_82566" data-name="Group 82566" transform="translate(-968 -1474)">
    <circle id="Ellipse_370" data-name="Ellipse 370" cx="46" cy="46" r="46" transform="translate(968 1474)" fill="#00b074"/>
    <g id="Group_82537" data-name="Group 82537" transform="translate(988 1493.048)">
      <path id="Path_11930" data-name="Path 11930" d="M-1275.217-353.991a6.448,6.448,0,0,1-.8.726c-5.269,3.422-10.554,6.818-15.815,10.253a11.592,11.592,0,0,1-5.61,1.738,16.235,16.235,0,0,1-5.737-.934c-2.993-.856-6-1.674-8.987-2.541a3.79,3.79,0,0,0-3.169.368,12.949,12.949,0,0,1-1.279.678.589.589,0,0,0-.372.619c-.019,1.042-.322,1.324-1.376,1.3q-3.5-.09-7-.194a.99.99,0,0,1-1.1-1.165q.166-6.276.346-12.553c.034-1.217.057-2.434.1-3.651.034-.865.358-1.166,1.219-1.145q3.6.091,7.2.2a.953.953,0,0,1,1.044,1.065c0,.466,0,.932,0,1.456.158-.062.293-.109.422-.167a11.969,11.969,0,0,1,10.756.112,11.814,11.814,0,0,0,5.464,1.326c1.784-.006,3.568.069,5.351.124a6.074,6.074,0,0,1,5.213,2.936c.053.082.109.163.178.265l5.613-2.647c.693-.327,1.38-.667,2.081-.974a4.8,4.8,0,0,1,6.032,1.884c.069.111.146.216.219.323Zm-15.27,2.762c-.03-.115-.06-.274-.112-.425a4.185,4.185,0,0,0-3.975-2.819c-1.833-.056-3.668-.085-5.5-.141-.766-.024-1.533-.061-2.3-.139a13.093,13.093,0,0,1-4.013-1.463,10.3,10.3,0,0,0-9.91.526.608.608,0,0,0-.369.577c-.064,2.985-.149,5.969-.226,8.953a3.639,3.639,0,0,0,.041.413c.23-.117.411-.2.579-.3a5.685,5.685,0,0,1,4.715-.524c2.876.842,5.766,1.635,8.651,2.445a15.178,15.178,0,0,0,5.382.942,9.679,9.679,0,0,0,4.626-1.417q7.393-4.818,14.813-9.6c.161-.1.318-.216.485-.33a2.811,2.811,0,0,0-3.24-.474c-2.337,1.1-4.662,2.217-7.006,3.3-.488.225-.739.418-.637,1.048.173,1.074-.252,1.481-1.328,1.453q-5.377-.143-10.753-.3c-.711-.02-1.152-.405-1.137-.987s.446-.935,1.183-.917c2.084.051,4.168.123,6.252.163C-1293.018-351.209-1291.771-351.228-1290.487-351.228Zm-33.642-7.337c-.135,4.929-.268,9.787-.4,14.693l5.655.156c.136-4.923.271-9.783.407-14.69Z" transform="translate(1326.463 392.142)" fill="#fff"/>
      <path id="Path_11931" data-name="Path 11931" d="M-1200.96-623.369a4.227,4.227,0,0,0,2.435-.654,5.778,5.778,0,0,1,6.082,0,4.794,4.794,0,0,0,2.521.662,5.688,5.688,0,0,1,5.4,3.056,3.974,3.974,0,0,0,1.668,1.6,5.5,5.5,0,0,1,3.194,5.337,3.829,3.829,0,0,0,.608,2.177,5.389,5.389,0,0,1,0,6.161,3.826,3.826,0,0,0-.605,2.178,5.487,5.487,0,0,1-3.155,5.31,4.193,4.193,0,0,0-1.735,1.674,5.632,5.632,0,0,1-5.225,3.005,5.4,5.4,0,0,0-2.759.713,5.694,5.694,0,0,1-5.9-.007,5.266,5.266,0,0,0-2.712-.705,5.647,5.647,0,0,1-5.27-3.014,4.2,4.2,0,0,0-1.737-1.671,5.442,5.442,0,0,1-3.135-5.314,3.687,3.687,0,0,0-.593-2.134,5.388,5.388,0,0,1,0-6.242,3.78,3.78,0,0,0,.591-2.185,5.4,5.4,0,0,1,3.054-5.211,4.386,4.386,0,0,0,1.8-1.68A5.793,5.793,0,0,1-1200.96-623.369Zm.251,1.912a4.107,4.107,0,0,0-4.2,2.274,5.344,5.344,0,0,1-2.389,2.206,3.56,3.56,0,0,0-2.092,3.516,5.565,5.565,0,0,1-.9,3.272,3.525,3.525,0,0,0,0,4.166,5.416,5.416,0,0,1,.9,3.223,3.584,3.584,0,0,0,2.1,3.56,6.064,6.064,0,0,1,2.548,2.463,3.759,3.759,0,0,0,3.6,2.015,6.431,6.431,0,0,1,3.575.915,3.865,3.865,0,0,0,4.175,0,6.4,6.4,0,0,1,3.527-.912,3.823,3.823,0,0,0,3.7-2.1,5.666,5.666,0,0,1,2.453-2.351,3.658,3.658,0,0,0,2.151-3.64,5.257,5.257,0,0,1,.865-3.13,3.588,3.588,0,0,0-.005-4.255,4.856,4.856,0,0,1-.853-2.931,3.845,3.845,0,0,0-2.338-3.938,4.96,4.96,0,0,1-2.2-2.124,3.987,3.987,0,0,0-3.98-2.227,5.54,5.54,0,0,1-3.148-.821,4.071,4.071,0,0,0-4.53.006A5.46,5.46,0,0,1-1200.709-621.457Z" transform="translate(1226.479 624.889)" fill="#fff"/>
      <path id="Path_11932" data-name="Path 11932" d="M-1109.4-567.3a3.45,3.45,0,0,1-.237.536q-5.563,8.926-11.138,17.845a.974.974,0,0,1-1.4.431.971.971,0,0,1-.213-1.445q5.565-8.925,11.137-17.846a.972.972,0,0,1,1.17-.529A1,1,0,0,1-1109.4-567.3Z" transform="translate(1147.002 575.119)" fill="#fff"/>
      <path id="Path_11933" data-name="Path 11933" d="M-1051.331-480a4.845,4.845,0,0,1-1.669,3.558,3.778,3.778,0,0,1-5.065.013,5.235,5.235,0,0,1-.426-7.255,3.872,3.872,0,0,1,6.233.415A5.386,5.386,0,0,1-1051.331-480Zm-1.9-.229a3.139,3.139,0,0,0-.926-2.344,1.914,1.914,0,0,0-2.776.013,3.36,3.36,0,0,0-.021,4.572,1.933,1.933,0,0,0,2.884-.051A3.188,3.188,0,0,0-1053.234-480.23Z" transform="translate(1091.676 501.803)" fill="#fff"/>
      <path id="Path_11934" data-name="Path 11934" d="M-1137.265-559.735a5,5,0,0,1-1.221,3.354,3.831,3.831,0,0,1-5.818.163,5.248,5.248,0,0,1,.18-7.269,3.87,3.87,0,0,1,5.923.7A5.169,5.169,0,0,1-1137.265-559.735Zm-1.909-.023a3.124,3.124,0,0,0-.762-2.163,1.948,1.948,0,0,0-2.989-.078,3.378,3.378,0,0,0,.028,4.5,1.934,1.934,0,0,0,2.885-.028A3.091,3.091,0,0,0-1139.174-559.758Z" transform="translate(1167.317 571.783)" fill="#fff"/>
    </g>
  </g>
</svg>
