<svg xmlns="http://www.w3.org/2000/svg" width="92" height="92" viewBox="0 0 92 92">
  <g id="Group_82570" data-name="Group 82570" transform="translate(-315 -1604)">
    <circle id="Ellipse_368" data-name="Ellipse 368" cx="46" cy="46" r="46" transform="translate(315 1604)" fill="#00b074"/>
    <g id="Group_82538" data-name="Group 82538" transform="translate(336 1625.573)">
      <path id="Path_11935" data-name="Path 11935" d="M-762.433-594.4v-.685q0-8.461,0-16.923c0-.981.224-1.208,1.194-1.208H-734.2c.982,0,1.211.225,1.212,1.191,0,.677,0,1.354,0,2.081.776,0,1.5,0,2.232,0,.761,0,1.039.283,1.039,1.056q0,5.675,0,11.35v.683h.563c1.414,0,2.828-.006,4.243,0a4.884,4.884,0,0,1,4.969,4.355,3.009,3.009,0,0,1-.1,1.155q-3.129,11.393-6.28,22.78c-.095.343-.148.7-.209,1.05a4.067,4.067,0,0,1-3.878,3.376c-.715.021-1.431.007-2.147.007q-16.077,0-32.154,0a4.084,4.084,0,0,1-4.226-3.519,4.765,4.765,0,0,1-.044-.764q0-10.839,0-21.677a4.094,4.094,0,0,1,4.3-4.308C-763.951-594.4-763.222-594.4-762.433-594.4Zm14.729,28.634h16.869a2.482,2.482,0,0,0,2.758-2.744q0-8.691,0-17.383a2.486,2.486,0,0,0-2.771-2.78q-9.917,0-19.834.006a1.4,1.4,0,0,1-1.086-.446c-1.1-1.12-2.22-2.214-3.315-3.335a1.014,1.014,0,0,0-.8-.322c-2.88.011-5.76.006-8.639.006a2.494,2.494,0,0,0-2.812,2.791q0,10.711,0,21.422a2.491,2.491,0,0,0,2.767,2.785ZM-760.787-594.4h.541c1.636,0,3.272.01,4.907-.006a1.339,1.339,0,0,1,1.041.431c1.1,1.118,2.219,2.215,3.317,3.334a1.018,1.018,0,0,0,.8.339q7.514-.016,15.028-.008c.165,0,.33-.015.5-.022v-21.208h-26.131Zm34.346,19.789.078,0c.022-.061.047-.121.064-.183q2.356-8.531,4.706-17.063a1.319,1.319,0,0,0,.035-.5,3.191,3.191,0,0,0-2.563-2.767,10.24,10.24,0,0,0-1.779-.091c-1.255-.012-2.511,0-3.79,0v4.974a4.164,4.164,0,0,1,3.248,4.5v11.137Zm-4.943-15.722v-17.933h-1.575v17.933Z" transform="translate(768.978 613.213)" fill="#fff"/>
      <path id="Path_11936" data-name="Path 11936" d="M-663.708-387.459c0-1.332,0-2.591,0-3.85,0-.774.277-1.056,1.036-1.057q3.04,0,6.081,0c.792,0,1.06.276,1.061,1.085,0,1.256,0,2.513,0,3.823h3.708c.972,0,1.2.228,1.2,1.2q0,2.964,0,5.929c0,.768-.28,1.046-1.047,1.048-1.26,0-2.52,0-3.86,0v.5c0,1.141,0,2.283,0,3.424,0,.673-.3.977-.96.979q-3.117.009-6.234,0c-.69,0-.979-.3-.982-1.009,0-1.276,0-2.551,0-3.873-.19-.009-.353-.023-.516-.024-1.141,0-2.283,0-3.424,0-.646,0-.962-.3-.964-.922q-.011-3.169,0-6.337c0-.621.32-.914.968-.917C-666.353-387.463-665.062-387.459-663.708-387.459Zm11.43,1.636c-1.334,0-2.625,0-3.916,0-.666,0-.961-.3-.968-.971-.007-.715,0-1.43,0-2.146v-1.748h-4.908c0,1.233,0,2.425,0,3.617,0,1.04-.211,1.25-1.255,1.25h-3.62v4.909c1.324,0,2.616,0,3.907,0,.666,0,.96.3.966.972.007.749,0,1.5,0,2.248v1.645h4.908c0-1.251,0-2.46,0-3.668,0-.972.226-1.2,1.2-1.2h3.683Z" transform="translate(680.887 419.365)" fill="#fff"/>
      <path id="Path_11937" data-name="Path 11937" d="M-683.082-578.329a2.481,2.481,0,0,1-1.826,1.619,3.817,3.817,0,0,1-.759.067c-1.246.009-1.392.155-1.392,1.421v1.818h-1.61a27.557,27.557,0,0,1,.019-2.8,2.384,2.384,0,0,1,2.358-2.076,3.141,3.141,0,0,0,.813-.019,1.3,1.3,0,0,0,.755-.474,1.07,1.07,0,0,0-.091-.872,3.676,3.676,0,0,1-.605-1.971,14.622,14.622,0,0,1,.093-2.239,3.208,3.208,0,0,1,3.463-2.6,3.276,3.276,0,0,1,2.981,3.16,8.816,8.816,0,0,1-.018,1.785,18.764,18.764,0,0,1-.6,1.863,1.449,1.449,0,0,0-.073.883,1.148,1.148,0,0,0,.711.461,4.281,4.281,0,0,0,.915.024,2.462,2.462,0,0,1,2.333,2.234c.016.186.009.375.009.562,0,.679,0,1.359,0,2.073h-1.636c0-.732,0-1.459,0-2.186,0-.77-.279-1.055-1.045-1.048a2.75,2.75,0,0,1-1.86-.388,13.634,13.634,0,0,1-1.238-1.3Zm-.7-4.11c0,.324-.015.648,0,.971a1.643,1.643,0,0,0,1.6,1.553,1.627,1.627,0,0,0,1.659-1.54c.029-.612.03-1.227,0-1.839a1.627,1.627,0,0,0-1.621-1.527,1.633,1.633,0,0,0-1.637,1.564C-683.8-582.984-683.784-582.711-683.784-582.439Z" transform="translate(698.511 589.73)" fill="#fff"/>
      <path id="Path_11938" data-name="Path 11938" d="M-564.152-581.547c-1.022,0-2.045,0-3.067,0-.734,0-1.018-.288-1.021-1.022,0-.971-.006-1.943,0-2.914,0-.669.3-.968.969-.969q3.118-.008,6.237,0c.668,0,.966.3.97.969q.011,1.483,0,2.965c0,.667-.3.966-.97.97C-562.073-581.542-563.113-581.547-564.152-581.547Zm-2.427-3.251v1.585h4.846V-584.8Z" transform="translate(592.783 589.728)" fill="#fff"/>
      <path id="Path_11939" data-name="Path 11939" d="M-559.766-532.61v1.574h-8.115v-1.574Z" transform="translate(592.463 542.463)" fill="#fff"/>
      <path id="Path_11940" data-name="Path 11940" d="M-567.961-506.06h8.107v1.592h-8.107Z" transform="translate(592.534 519.159)" fill="#fff"/>
      <path id="Path_11941" data-name="Path 11941" d="M-568.024-477.577v-1.576h8.115v1.576Z" transform="translate(592.589 495.541)" fill="#fff"/>
      <path id="Path_11942" data-name="Path 11942" d="M-559.763-452.3v1.573h-8.115V-452.3Z" transform="translate(592.461 471.968)" fill="#fff"/>
    </g>
  </g>
</svg>
