<svg xmlns="http://www.w3.org/2000/svg" width="92" height="92" viewBox="0 0 92 92">
  <g id="Group_82565" data-name="Group 82565" transform="translate(-968 -1604)">
    <circle id="Ellipse_369" data-name="Ellipse 369" cx="46" cy="46" r="46" transform="translate(968 1604)" fill="#00b074"/>
    <g id="Group_82533" data-name="Group 82533" transform="translate(988 1625.702)">
      <path id="Path_11910" data-name="Path 11910" d="M-1667.706-1106.367c.454.314.94.593,1.36.949a5.8,5.8,0,0,1,2.141,4.474c.034,1.995.013,3.991.008,5.986,0,.737-.313,1.045-1.056,1.046q-5.851,0-11.7,0c-.742,0-1.051-.309-1.053-1.047-.005-1.924-.018-3.847,0-5.771a5.959,5.959,0,0,1,3.21-5.42c.106-.061.21-.126.321-.192a5.237,5.237,0,0,1-.156-7.766,5.2,5.2,0,0,1,7.131.072A5.221,5.221,0,0,1-1667.706-1106.367Zm-2.118,1.225c.429,1.075.781,1.994,1.163,2.9a1.284,1.284,0,0,1-.052,1.181c-.524,1-1.022,2.019-1.521,3.035a.947.947,0,0,1-.894.657.955.955,0,0,1-.841-.656c-.491-1-.982-2-1.5-2.985a1.365,1.365,0,0,1-.054-1.28c.385-.885.72-1.792,1.1-2.756a4.576,4.576,0,0,0-.537.049,4.219,4.219,0,0,0-3.3,3.811c-.078,1.813-.016,3.632-.012,5.448,0,.027.042.054.059.074h10.226a.461.461,0,0,0,.048-.123c0-1.69.041-3.382,0-5.071a4.137,4.137,0,0,0-2.553-3.867A10.64,10.64,0,0,0-1669.824-1105.142Zm-1.278-6.039a6.112,6.112,0,0,0-3.111.888.493.493,0,0,0-.267.609,3.459,3.459,0,0,0,3.4,2.821,3.4,3.4,0,0,0,3.343-2.862.674.674,0,0,0-.244-.545A5.786,5.786,0,0,0-1671.1-1111.182Zm-2.653-1.251a7.872,7.872,0,0,1,5.266-.023A3.316,3.316,0,0,0-1673.755-1112.433Zm2.671,8.82c-.859,1.732-.841,2.455.038,3.33.189-.372.386-.733.554-1.107a.776.776,0,0,0,.091-.5C-1670.589-1102.437-1670.825-1102.973-1671.084-1103.613Z" transform="translate(1697.008 1132.766)" fill="#fff"/>
      <path id="Path_11911" data-name="Path 11911" d="M-1811.2-982.041c-.2,0-.323.008-.445,0-.411-.03-.821-.067-1.254-.1a3.463,3.463,0,0,0-1.493-2.173c-1.611-1.38-3.229-2.751-4.837-4.135a3.76,3.76,0,0,1-.616-.673q-2.454-3.482-4.887-6.979a2.462,2.462,0,0,1,.272-3.25,2.479,2.479,0,0,1,3.212-.223c.213.159.4.354.652.583a2.278,2.278,0,0,1,.363-1.894,2.077,2.077,0,0,1,2.023-.879,2.1,2.1,0,0,1,1.749,1.345,1.609,1.609,0,0,1,.115.358c.382,2.356,1.607,4.367,2.694,6.423.2.385.849.535,1.29.794l.12-.145-.246-.493a2.479,2.479,0,0,1,.862-3.267,2.436,2.436,0,0,1,3.314.639q1.728,2.376,3.385,4.8a8.223,8.223,0,0,1,1.347,4.378c.065,1.647.015,3.3.015,4.979h-1.779v-.687c0-1.562.05-3.127-.022-4.686a6.208,6.208,0,0,0-1.178-3.31q-1.505-2.138-3.018-4.271c-.359-.5-.745-.629-1.133-.388-.407.253-.459.672-.143,1.224.448.779.869,1.575,1.36,2.326a3.981,3.981,0,0,1,.633,2.865h-1.691c0-.3.013-.62,0-.936a.945.945,0,0,0-.709-.953c-1.862-.6-3.727-1.194-5.563-1.865a3.9,3.9,0,0,1-1.489-.994c-1.3-1.42-2.519-2.908-3.779-4.362a.755.755,0,0,0-1.094-.185.776.776,0,0,0-.1,1.147c.058.091.124.177.186.265,1.051,1.5,2.152,2.972,3.139,4.515a17.772,17.772,0,0,0,3.889,4.287c.994.8,1.969,1.625,2.937,2.456a4.664,4.664,0,0,1,1.876,2.862C-1811.222-982.469-1811.216-982.291-1811.2-982.041Zm-4.88-12.061.168-.16a16.176,16.176,0,0,1-2.1-5.383c0-.017-.007-.041-.02-.049-.176-.12-.354-.238-.531-.357-.12.192-.332.38-.341.578-.016.333.136.669.149,1.007a4.878,4.878,0,0,0,1.707,3.675C-1816.742-994.533-1816.4-994.329-1816.075-994.1Z" transform="translate(1825.214 1033.74)" fill="#fff"/>
      <path id="Path_11912" data-name="Path 11912" d="M-1574.7-999.029a2.42,2.42,0,0,1,.269-.356,2.469,2.469,0,0,1,3.213-.173,2.47,2.47,0,0,1,.693,3.142,4.866,4.866,0,0,1-.318.5q-2.318,3.315-4.642,6.626a4.24,4.24,0,0,1-.665.774c-1.591,1.376-3.2,2.734-4.8,4.1a3.611,3.611,0,0,0-1.6,2.261l-1.653.132a2.3,2.3,0,0,1,.416-1.805,16.423,16.423,0,0,1,1.938-2.074c1.446-1.3,2.946-2.531,4.417-3.8a3.092,3.092,0,0,0,.5-.557q2.343-3.331,4.664-6.676a1.178,1.178,0,0,0,.25-.778.843.843,0,0,0-.535-.572,1.1,1.1,0,0,0-.832.312c-1.06,1.174-2.124,2.352-3.093,3.6a5.671,5.671,0,0,1-3.051,2.068c-1.518.432-3,.983-4.5,1.483-.77.256-.889.421-.893,1.24,0,.216,0,.431,0,.689h-1.692a3.721,3.721,0,0,1,.363-2.373c.568-.958,1.118-1.927,1.671-2.894.277-.485.216-.883-.16-1.134s-.778-.151-1.106.311c-1.073,1.509-2.154,3.013-3.2,4.544a7.7,7.7,0,0,0-1.156,4.314c-.027,1.364-.006,2.728-.006,4.142h-1.6c-.1-2.309-.376-4.632.249-6.906a9.161,9.161,0,0,1,1.094-2.5c1.04-1.616,2.177-3.172,3.312-4.725a2.325,2.325,0,0,1,2.565-.956,2.265,2.265,0,0,1,1.857,2,4.891,4.891,0,0,1-.239,1.561,2.664,2.664,0,0,1-.287.569c.816-.18,1.533-.357,1.768-1.236a2.387,2.387,0,0,1,.213-.435,20.5,20.5,0,0,0,2.2-5.532,2.057,2.057,0,0,1,1.906-1.646,2.094,2.094,0,0,1,2.118,1.19A8.755,8.755,0,0,1-1574.7-999.029Zm-4.8,4.762.124.162a7.564,7.564,0,0,0,.961-.679,7.47,7.47,0,0,0,.979-1.146,3.071,3.071,0,0,0,.482-1.038c.168-.752.248-1.524.385-2.284.062-.341.121-.693-.3-.788s-.54.252-.6.588a15.194,15.194,0,0,1-1.738,4.612C-1579.317-994.654-1579.4-994.458-1579.5-994.267Z" transform="translate(1622.038 1033.746)" fill="#fff"/>
      <path id="Path_11913" data-name="Path 11913" d="M-1816.516-1195.883a8.648,8.648,0,0,1,8.606,8.688,8.653,8.653,0,0,1-8.661,8.581,8.649,8.649,0,0,1-8.605-8.69A8.646,8.646,0,0,1-1816.516-1195.883Zm-6.934,8.61a6.928,6.928,0,0,0,6.869,6.932,6.925,6.925,0,0,0,6.945-6.911,6.925,6.925,0,0,0-6.9-6.9A6.927,6.927,0,0,0-1823.45-1187.274Z" transform="translate(1825.182 1202.791)" fill="#fff"/>
      <path id="Path_11914" data-name="Path 11914" d="M-1548.86-1178.614a8.649,8.649,0,0,1-8.649-8.646,8.646,8.646,0,0,1,8.616-8.623,8.647,8.647,0,0,1,8.65,8.644A8.652,8.652,0,0,1-1548.86-1178.614Zm-.027-1.727a6.926,6.926,0,0,0,6.918-6.884,6.925,6.925,0,0,0-6.869-6.931,6.925,6.925,0,0,0-6.944,6.91A6.928,6.928,0,0,0-1548.887-1180.341Z" transform="translate(1592.05 1202.791)" fill="#fff"/>
      <path id="Path_11915" data-name="Path 11915" d="M-1669.111-1241.657a7.786,7.786,0,0,1-7.792,7.776,7.787,7.787,0,0,1-7.748-7.767,7.783,7.783,0,0,1,7.792-7.775A7.785,7.785,0,0,1-1669.111-1241.657Zm-1.728-.02a6.059,6.059,0,0,0-6.066-6.018,6.06,6.06,0,0,0-6.017,6.067,6.063,6.063,0,0,0,6.067,6.019A6.061,6.061,0,0,0-1670.839-1241.677Z" transform="translate(1702.787 1249.423)" fill="#fff"/>
      <path id="Path_11916" data-name="Path 11916" d="M-1796.306-1164.022a2.541,2.541,0,0,1-.844-.018,1.444,1.444,0,0,1-.792-.583.988.988,0,0,1,.229-.895c1.428-1.2,2.9-2.358,4.365-3.514a.791.791,0,0,1,1.046.034q2.152,1.709,4.292,3.434a.713.713,0,0,1,.262.951,1.8,1.8,0,0,1-.815.574,2.542,2.542,0,0,1-.835.017c0,.49,0,.966,0,1.442,0,.629.008,1.258,0,1.887a.88.88,0,0,1-1,.987q-2.452.011-4.905,0a.877.877,0,0,1-.993-1C-1796.312-1161.779-1796.306-1162.857-1796.306-1164.022Zm1.766.024v2.524h3.384V-1164Zm3.528-1.763c-.641-.51-1.183-.948-1.735-1.372a.26.26,0,0,0-.241.022c-.54.418-1.071.847-1.7,1.35Z" transform="translate(1801.491 1179.563)" fill="#fff"/>
      <path id="Path_11917" data-name="Path 11917" d="M-1523-1166.548c.6,0,1.119-.01,1.639,0a.86.86,0,0,1,.947.934q.021,1.645,0,3.289a.874.874,0,0,1-.984.953c-.5.011-1.006.012-1.509.019-.013,0-.026.022-.093.082,0,.466.008.983,0,1.5a.882.882,0,0,1-1,.989q-1.59.013-3.181,0a.881.881,0,0,1-.991-1c-.008-.5,0-1,0-1.588-.534,0-1.047.005-1.56,0-.708-.009-1.023-.316-1.028-1.018q-.012-1.564,0-3.128c0-.711.313-1.02,1.013-1.033.485-.009.97-.009,1.455-.014a.7.7,0,0,0,.12-.05c0-.482-.006-1,0-1.509.01-.7.32-1.012,1.029-1.016q1.564-.01,3.127,0c.7.005,1.011.319,1.021,1.026C-1522.993-1167.611-1523-1167.111-1523-1166.548Zm-6,1.726v1.728c.544,0,1.046-.007,1.548,0a.884.884,0,0,1,1,.992c.009.516,0,1.031,0,1.563h1.669c.027-.048.043-.062.043-.077.006-.484.008-.969.016-1.453.012-.706.317-1.016,1.019-1.025.513-.007,1.026,0,1.528,0v-1.727h-.793c-.251,0-.5,0-.754,0a.885.885,0,0,1-1-.992c-.009-.516,0-1.032,0-1.565h-1.727c0,.549.009,1.067,0,1.584a.875.875,0,0,1-.964.972C-1527.937-1164.813-1528.455-1164.822-1529-1164.822Z" transform="translate(1568.763 1179.5)" fill="#fff"/>
      <path id="Path_11918" data-name="Path 11918" d="M-1642.837-1229.152h1.776c-.244.772.212,1.11.763,1.481a2.305,2.305,0,0,1,.937,1.925h-1.674a3.343,3.343,0,0,0-.159-.369.8.8,0,0,0-1-.426.8.8,0,0,0-.61.851.824.824,0,0,0,.727.815c.263.054.54.045.8.117a2.47,2.47,0,0,1,1.869,2.02,2.288,2.288,0,0,1-.958,2.466c-.551.37-.873.725-.694,1.425h-1.772c.24-.763-.209-1.105-.764-1.476a2.315,2.315,0,0,1-.943-1.923h1.677a3.319,3.319,0,0,0,.159.368.8.8,0,0,0,1,.426.8.8,0,0,0,.61-.851.824.824,0,0,0-.727-.815c-.245-.05-.5-.041-.744-.1a2.473,2.473,0,0,1-1.921-2.033,2.28,2.28,0,0,1,.959-2.464C-1642.975-1228.09-1642.658-1228.447-1642.837-1229.152Z" transform="translate(1667.855 1231.767)" fill="#fff"/>
    </g>
  </g>
</svg>
