<svg xmlns="http://www.w3.org/2000/svg" xmlns:xlink="http://www.w3.org/1999/xlink" width="761.453" height="572.536" viewBox="0 0 761.453 572.536">
  <defs>
    <linearGradient id="linear-gradient" y1="0.5" x2="1" y2="0.5" gradientUnits="objectBoundingBox">
      <stop offset="0" stop-color="#65a3f8"/>
      <stop offset="1" stop-color="#5884e7"/>
    </linearGradient>
    <linearGradient id="linear-gradient-4" x1="-2.27" y1="-2.29" x2="7.93" y2="7.878" xlink:href="#linear-gradient"/>
    <linearGradient id="linear-gradient-5" x1="-4.999" y1="-4.686" x2="17.489" y2="16.53" xlink:href="#linear-gradient"/>
    <linearGradient id="linear-gradient-6" x1="-5.351" y1="-4.098" x2="20.336" y2="16.092" xlink:href="#linear-gradient"/>
    <linearGradient id="linear-gradient-7" x1="1.341" y1="0.675" x2="0.885" y2="0.68" xlink:href="#linear-gradient"/>
    <linearGradient id="linear-gradient-8" x1="1.378" y1="0.662" x2="0.67" y2="1.033" xlink:href="#linear-gradient"/>
    <linearGradient id="linear-gradient-9" x1="1.797" y1="0.702" x2="1.209" y2="0.872" xlink:href="#linear-gradient"/>
    <linearGradient id="linear-gradient-10" x1="1.354" y1="0.804" x2="0.354" y2="0.804" gradientUnits="objectBoundingBox">
      <stop offset="0" stop-color="#fbc733"/>
      <stop offset="1" stop-color="#fb7f37"/>
    </linearGradient>
    <linearGradient id="linear-gradient-11" x1="0.821" y1="0.217" x2="-0.046" y2="0.91" xlink:href="#linear-gradient-10"/>
    <linearGradient id="linear-gradient-12" x1="3.14" y1="-2.069" x2="-0.172" y2="1.206" xlink:href="#linear-gradient-10"/>
    <linearGradient id="linear-gradient-13" x1="0.75" y1="0.084" x2="0.221" y2="0.936" xlink:href="#linear-gradient"/>
  </defs>
  <g id="Group_82562" data-name="Group 82562" transform="translate(-78.324 -250.687)">
    <g id="Group_82561" data-name="Group 82561" transform="translate(78.324 250.687)">
      <g id="Group_82548" data-name="Group 82548" transform="translate(0 0)">
        <g id="Group_82563" data-name="Group 82563">
          <path id="Path_11946" data-name="Path 11946" d="M1089.717,436.631a257.954,257.954,0,0,1-75.12,176.627c-25.474,25.5-54.849,45.16-89.848,56.013-15.459,4.794-31.168,8.856-47.393,11.006-15.958,2.114-31.926,2.009-47.859,1.41-33.879-1.275-65.237-17.521-97.056-27.254-62.85-19.229-125.022,17.353-183.134,35.621-63.389,19.927-139.119,9.96-161.158-61.654a98.591,98.591,0,0,1-3.981-20.877c-4.892-59.184,30.219-100.647,83.712-122.341,37.782-15.321,71.371-48.211,76.755-89.168,7.839-59.622,5.414-123.9,34.311-178.759,27.276-51.785,88.924-87.1,148.922-84.388,29.328,1.326,55.146,18.084,71.867,40.939,27.569,37.679,26.691,92.679,63.983,123.921,40.2,33.685,90.9-7.18,138,1.8,64.9,12.377,88.684,78.675,88.027,135.385C1089.737,435.486,1089.727,436.058,1089.717,436.631Z" transform="translate(-328.304 -126.537)" opacity="0.2" fill="url(#linear-gradient)"/>
          <path id="Path_11947" data-name="Path 11947" d="M434.192,324.169c-.49-.035-.983-.072-1.475-.115-42.127-3.573-71.883-38.338-69.651-78.945,2.248-40.886,33.246-77.489,68.868-96.861,33.5-18.219,78.677-25.073,115.131-11.149,21.618,8.256,43.72,25.687,45.667,49.731,2.075,25.607-19.166,41.5-34.063,59.5-8.554,10.337-16.758,20.991-25.893,30.823C507.365,304.5,473.789,326.913,434.192,324.169Z" transform="translate(-351.25 -129.698)" opacity="0.2" fill="url(#linear-gradient)"/>
          <path id="Path_11948" data-name="Path 11948" d="M502.137,275.669c-.431,18.3-10.691,38.96-21.178,50.959-18.343,20.991-77.454,51.834-87.941,6.912-6.447-27.614,11.274-61.1,31.185-79.707,15.084-14.092,35.658-18.812,55.392-11.835C496.586,248.005,502.482,261.088,502.137,275.669Z" transform="translate(-319.514 -15.553)" opacity="0.2" fill="url(#linear-gradient)"/>
          <path id="Path_11949" data-name="Path 11949" d="M360.766,345.44a37.1,37.1,0,0,0,12.55,11.159c7.186,3.81,18.113,6.366,25.855,2.646,15.248-7.327,4.406-28.891-6.226-34.85-9.367-5.246-22.839-4.563-31.069,2.558C355.453,332.509,356.709,339.47,360.766,345.44Z" transform="translate(-357.391 70.381)" opacity="0.2" fill="url(#linear-gradient-4)"/>
          <path id="Path_11950" data-name="Path 11950" d="M383.129,303.08c-4.4.747-8.3,3.294-8.584,7.515-.276,4.1,2.808,7.9,6.643,9.617,5.989,2.682,16.694,3.472,15.47-5.4C395.78,308.445,390.315,301.864,383.129,303.08Z" transform="translate(-338.455 51.526)" opacity="0.2" fill="url(#linear-gradient-5)"/>
          <path id="Path_11951" data-name="Path 11951" d="M444.1,224.648c-.282.376-.573.749-.886,1.111a7.375,7.375,0,0,0-1.617,2.9,8.234,8.234,0,0,0,1.019,6.566,9.683,9.683,0,0,0,10.535,3.546A10.991,10.991,0,0,0,460.6,230.4c.751-3.912-.882-8.344-4.423-10.343a8.3,8.3,0,0,0-7.146-.319,8.774,8.774,0,0,0-3.5,2.944C445.04,223.338,444.585,224,444.1,224.648Z" transform="translate(-264.65 -36.189)" opacity="0.2" fill="url(#linear-gradient-6)"/>
        </g>
      </g>
      <path id="Path_11954" data-name="Path 11954" d="M488.456,340.9c-.918.025-1.134.618-1.462,1.109-3.352,4.988-5.825,10.452-8.342,15.892-.334.724-.552,1.537.31,1.913.805.35,1.428-.3,1.768-.982,2.66-5.363,5.118-10.828,8.324-15.9C489.469,342.273,489.58,341.141,488.456,340.9Z" transform="translate(-15.866 75.092)"/>
      <g id="Group_82560" data-name="Group 82560" transform="translate(124.775 72.153)">
        <g id="Group_82550" data-name="Group 82550" transform="translate(521.604 82.262)">
          <path id="Path_11955" data-name="Path 11955" d="M430.62,188.192c11.074-.078,22.152-.4,33.226-.256,4.454.059,10.4-.89,14.314,1.639,3.534,2.281,5.41,6.668,5.463,10.82.111,8.974.129,17.951-.065,26.923q-.148,6.85-.471,13.695c-.179,3.843-.1,7.425-2.954,10.39-3.224,3.345-7.867,3.337-12.153,3.061-4.774-.309-9.548-.52-14.326-.522-6.747,0-13.492.02-20.239-.043-2.215-.025-3.584.585-4.595,2.695a54.712,54.712,0,0,1-4.117,6.8c-2.167,3.212-4.355,3.3-6.948.336-1.929-2.2-2.944-4.968-4.212-7.56-.8-1.633-1.736-2.578-3.668-2.24-10.52,1.835-16.233-7.118-16.378-17.672-.163-11.775-.274-23.553-.207-35.328.034-6.069,4.25-11.53,9.294-12.117a70.394,70.394,0,0,1,10.617-.808C419.007,188.207,424.813,188.233,430.62,188.192Z" transform="translate(-393.269 -187.81)" fill="#34a6f4"/>
          <g id="Group_82549" data-name="Group 82549" transform="translate(13.042 24.053)">
            <path id="Path_11956" data-name="Path 11956" d="M408.313,215.774a8.268,8.268,0,0,1-8.5-8.477,7.689,7.689,0,0,1,7.645-7.73,8.9,8.9,0,0,1,8.91,8.671C416.371,212.645,412.99,215.808,408.313,215.774Z" transform="translate(-352.153 -199.566)" fill="#fff"/>
            <path id="Path_11957" data-name="Path 11957" d="M439.4,207.927c.028,4.757-2.728,7.708-7.232,7.745-4.738.037-7.959-3.163-8.054-7.9-.093-4.618,2.495-7.558,7.494-8.131C435.788,199.157,439.376,203.214,439.4,207.927Z" transform="translate(-424.114 -199.531)" fill="#fff"/>
            <path id="Path_11958" data-name="Path 11958" d="M419.427,215.226a7.657,7.657,0,0,1-7.9-7.722,7.574,7.574,0,0,1,7.776-7.775c4.4.014,8.12,3.386,7.951,7.747C427.056,212.634,423.311,215.664,419.427,215.226Z" transform="translate(-386.629 -199.395)" fill="#fff"/>
          </g>
        </g>
        <g id="Group_82552" data-name="Group 82552" transform="translate(5.835 121.299)">
          <path id="Path_11959" data-name="Path 11959" d="M656.817,232.52c-11.074-.078-22.152-.4-33.226-.256-4.454.059-10.4-.89-14.316,1.639-3.531,2.281-5.408,6.668-5.461,10.82-.111,8.974-.129,17.951.065,26.923q.148,6.85.471,13.695c.179,3.842.1,7.425,2.954,10.39,3.224,3.345,7.867,3.337,12.153,3.061,4.774-.309,9.548-.52,14.326-.522,6.747,0,13.492.02,20.239-.043,2.215-.025,3.584.587,4.595,2.695a54.864,54.864,0,0,0,4.117,6.805c2.166,3.21,4.355,3.3,6.948.334,1.929-2.2,2.944-4.968,4.212-7.56.8-1.633,1.736-2.578,3.669-2.241,10.52,1.835,16.232-7.118,16.378-17.672.163-11.777.274-23.553.207-35.328-.034-6.069-4.25-11.53-9.294-12.117a70.384,70.384,0,0,0-10.617-.808C668.431,232.535,662.624,232.561,656.817,232.52Z" transform="translate(-603.732 -232.138)" fill="#34a6f4"/>
          <g id="Group_82551" data-name="Group 82551" transform="translate(13.178 24.053)">
            <path id="Path_11960" data-name="Path 11960" d="M641.937,260.1a8.268,8.268,0,0,0,8.5-8.477,7.689,7.689,0,0,0-7.645-7.73,8.9,8.9,0,0,0-8.909,8.672C633.879,256.975,637.259,260.136,641.937,260.1Z" transform="translate(-633.881 -243.894)" fill="#fff"/>
            <path id="Path_11961" data-name="Path 11961" d="M610.21,252.255c-.028,4.757,2.728,7.708,7.232,7.745,4.738.037,7.959-3.163,8.054-7.9.093-4.618-2.495-7.558-7.494-8.131C613.824,243.485,610.236,247.542,610.21,252.255Z" transform="translate(-561.283 -243.859)" fill="#fff"/>
            <path id="Path_11962" data-name="Path 11962" d="M630.41,259.554a7.657,7.657,0,0,0,7.9-7.722,7.574,7.574,0,0,0-7.776-7.775c-4.4.014-8.121,3.386-7.951,7.747C622.781,256.962,626.526,259.992,630.41,259.554Z" transform="translate(-598.991 -243.723)" fill="#fff"/>
          </g>
        </g>
        <g id="Group_82553" data-name="Group 82553" transform="translate(0 263.674)">
          <path id="Path_11963" data-name="Path 11963" d="M619.026,424.523c1.458,2.462,3.127,4.79,4.788,7.125,1.2,1.7,2.4,3.4,3.5,5.177,2.6,4.2,4.6,8.682,3.409,13.916a3.586,3.586,0,0,0,2.229,4.424c2.447,1.021,3.987-.61,5.076-2.513.127-.227.254-.444.379-.669a68.117,68.117,0,0,0,8.03-21c1-5.455,2.3-10.92,1.637-16a54.365,54.365,0,0,0-.378-7.777c-.368-3.2-.894-6.284-1.246-9.392-.576-5.04.785-9.821,2.924-14.321,2.648-5.553,5.609-10.965,8.265-16.52,6.254-13.1,5.261-26.2-.411-39.171-2.63-6.02-5.686-11.851-6.646-18.372a27.7,27.7,0,0,1-.3-5.089,4.156,4.156,0,0,0-.268-1.946c-.719-1.533-2.746-.039-3.882.655-4.407,2.695-7.49,6.947-10.6,10.934-5.442,6.988-11.847,13.3-13.6,22.851-1.52,8.244-.924,15.956,2.972,23.107,4.7,8.637,3.841,16.269-2,23.007-.457.532-.95,1.054-1.474,1.578C608.188,397.711,612.446,413.449,619.026,424.523Z" transform="translate(-583.862 -301.721)" fill="url(#linear-gradient-7)"/>
          <path id="Path_11964" data-name="Path 11964" d="M638.4,417.862c4.1,7.634,9.294,14.6,12.979,22.483,1.937,4.158,5.2,3.937,8.152-.012a67.032,67.032,0,0,0,10.691-22.055,80.1,80.1,0,0,0,2.891-18.65,127.621,127.621,0,0,0-3.8-30.056c-2.877-11.534-7.111-21.9-11.761-32.148-3.087-6.8-6.127-13.615-9.244-20.4-.475-1.033-.761-2.547-2.209-2.521a1.991,1.991,0,0,0-1,.268,5.2,5.2,0,0,0-1.719,2.359c-.036.078-.081.164-.111.241-1.931,4.111-.306,8.2.5,12.121,1.883,9.091,1.087,17.67-3.622,25.634-5.9,9.969-9.648,20.74-9.866,32.255C630.071,398.125,633.279,408.331,638.4,417.862Z" transform="translate(-630.267 -288.351)" fill="url(#linear-gradient-8)"/>
          <path id="Path_11965" data-name="Path 11965" d="M607.444,401.587a33.744,33.744,0,0,0,1.419,8.058,35.343,35.343,0,0,0,1.722,4.569c.358.8.757,1.592,1.184,2.371s.856,1.545,1.319,2.294c.969,1.535-.217,4.141,1.806,4.583a17.99,17.99,0,0,0,8.783.033c1.458-.421,2.682-1.316,2.557-2.717-.922-10.437,5.819-17.265,11.118-24.774,4.055-5.758,7.373-11.661,8.412-19,1.206-8.563-.644-16.451-3.455-24.2a130.616,130.616,0,0,1-4.315-13.58c-.288-1.174-.624-2.541-1.544-3.229a2.259,2.259,0,0,0-1.969-.358c-3.755,1-3.94,11.573-3.685,14.159.892,8.843-2.766,16.06-9.739,21.99-.1.086-.2.164-.292.25A36.861,36.861,0,0,0,609.6,387.117a32.8,32.8,0,0,0-1.508,5.216A36.343,36.343,0,0,0,607.444,401.587Z" transform="translate(-557.227 -266.324)" fill="url(#linear-gradient-9)"/>
          <path id="Path_11966" data-name="Path 11966" d="M622.059,427.394a64.692,64.692,0,0,1,.771,17.306,49.562,49.562,0,0,1-1.184,6.767c-.252,1.021-.618,2.527.433,2.838,1.635.471,1.814-1.459,2-2.41.171-.872.326-1.745.473-2.625a41.441,41.441,0,0,0,.481-11.644,51.735,51.735,0,0,0-1.466-15.452c-.534-2.466-1.143-4.917-1.707-7.366-3.189-13.934-1.54-27.267,6.145-38.962,10.448-15.911,11.66-33.035,9.508-51.137a82.71,82.71,0,0,1-.447-11.215,16.28,16.28,0,0,1,.844-4.411,27.677,27.677,0,0,1-.3-5.089,4.153,4.153,0,0,0-.268-1.946c-.95.391-1.609,2.811-1.907,3.671a26.822,26.822,0,0,0-1.27,8.749c-.014,5.772,1.162,11.442,1.631,17.177,1.069,12.977.191,25.6-6.707,37.074-5.044,8.383-9.258,16.981-10.528,26.984-1.077,8.43.167,16.465,2.05,24.539C621.169,422.623,621.664,425,622.059,427.394Z" transform="translate(-571.193 -301.38)" fill="#e0e8f3" opacity="0.5"/>
          <path id="Path_11967" data-name="Path 11967" d="M647.447,346.671c1.373,8.473-.461,16.42-2.1,24.5-1.039,5.14-2.3,10.265-2.833,15.458-.638,6.22,1.1,12.277,2.972,18.106a98.094,98.094,0,0,1,4.671,32.408c-.018.894-.977,2.38.739,2.533,1.482.135,1.349-1.314,1.349-2.339.006-2.419-.048-4.837-.076-7.511a70.017,70.017,0,0,0-4.194-24.987,49.449,49.449,0,0,1-.578-31.832,62.28,62.28,0,0,0,2.008-28.965,83.12,83.12,0,0,0-3.7-14.173c-.828-2.363-1.754-4.692-2.732-7-.469-1.127-1.75-6.079-3.121-8.242a5.205,5.205,0,0,0-1.72,2.359c-.036.078-.08.164-.111.241.328,1.267.6,2.527,1.029,3.808,1.1,3.3,2.974,6.277,4.118,9.559A95.848,95.848,0,0,1,647.447,346.671Z" transform="translate(-625.019 -288.213)" fill="#e0e8f3" opacity="0.5"/>
          <path id="Path_11968" data-name="Path 11968" d="M612.69,418.811c1.4.066,1.4-1.174,1.281-2.306-.189-1.792-.32-3.6-.481-5.4-1.17-9.87,3.687-17.482,9.163-24.715,6.073-8.037,9.9-16.766,9.056-27.058a135.923,135.923,0,0,0-1.975-13.758,29.159,29.159,0,0,1-.606-5.741c0-.385-.129-2.193-.173-3.826a2.258,2.258,0,0,0-1.969-.358,6.532,6.532,0,0,0-.419,1.584A29.776,29.776,0,0,0,626.99,345c1.178,6.472,2.583,12.856,2.211,19.573-.447,7.943-4.093,14.274-8.454,20.445-1.891,2.684-3.727,5.422-5.418,8.244a27.644,27.644,0,0,0-4.045,15c.036,2.674.807,5.383-.332,8.066A1.743,1.743,0,0,0,612.69,418.811Z" transform="translate(-549.732 -266.324)" fill="#e0e8f3" opacity="0.5"/>
          <path id="Path_11969" data-name="Path 11969" d="M638.179,375.234c-9.771.121-17.521.145-25.267.336-5.243.129-6.6,1.338-5.863,6.6,1.405,10.071,3.085,20.121,5.126,30.082,2.491,12.144,5.457,24.187,8.247,36.268,1.319,5.711,3.892,7.72,9.679,7.783,12.951.139,25.9.376,38.854.43,5.952.025,6.655-.863,8.16-6.627,5.173-19.806,10.213-39.644,14.527-59.667a31.715,31.715,0,0,0,.538-5.373c.3-6.742-1.526-8.236-8.287-8.639C667.988,375.484,652.088,374.8,638.179,375.234Z" transform="translate(-602.245 -224.959)" fill="url(#linear-gradient-10)"/>
        </g>
        <g id="Group_82556" data-name="Group 82556" transform="translate(120.071)">
          <g id="Group_82554" data-name="Group 82554">
            <path id="Path_11970" data-name="Path 11970" d="M543.3,240.1c2.352,16.234,11.318,31.529,29.274,33.174,11.179,1.023,21.01-4.544,27.029-13.918a156.1,156.1,0,0,0,16.6-33.734c3.3-9.654,11.632-21.734,9.036-32.49-2.074-8.6-12.419-16.342-20.308-18.714-29.8-8.96-59.1,22.333-61.96,50.451A62.943,62.943,0,0,0,543.3,240.1Z" transform="translate(-526.572 -172.856)" fill="#11093f"/>
            <path id="Path_11971" data-name="Path 11971" d="M492.885,264.276c-.35,15.927,1.554,30.076,7.971,43.339,2.775,5.737,7.15,10.312,10.923,15.313a7.152,7.152,0,0,1,1.621,4.418,182.989,182.989,0,0,1-.8,21.736,2.706,2.706,0,0,1-2.136,2.813c-7.969,2.7-15.629,6.183-23.332,9.578-2.714,1.2-2.2,2.173-1.407,3.863,3.526,7.513,9.055,13.279,15.244,18.605,12.169,10.474,26.028,17.083,42.013,16.484,19.337-.728,35.135-9.5,46.873-25.347,1.724-2.328,1.146-4.248-1.051-6.181a38.494,38.494,0,0,0-10.335-6.417c-3.155-1.35-6.594-1.743-9.82-2.871-5.519-1.931-3.02-11.243,2.146-11.771a83.211,83.211,0,0,0,41.58-16.123c9.944-7.544,18.775-17.47,21.687-30.037a43.826,43.826,0,0,0,.093-19.141c-1.383-6.343-5.328-11.951-4.516-18.691.7-5.78,2.98-11.211,3.743-16.977,1.357-10.259-2.016-17.543-8.179-25.329-8.946-11.3-19.919-19.972-34.038-23.285-12.059-2.828-24.053-1.31-35.9,2.331a114.241,114.241,0,0,0-47.46,28.065c-6.149,6.057-10.3,13.525-13.851,21.255C491.709,254.782,493.08,260.353,492.885,264.276Z" transform="translate(-420.077 -147.822)" fill="#f8c4b7"/>
            <path id="Path_11972" data-name="Path 11972" d="M439.4,476.169a26.038,26.038,0,0,0,15.337-6.566c12.053-10.5,18.141-28.161,24.991-42.263C495.43,395,511.044,362.374,524.732,329.1c3.735-9.079,10.412-14.223,18.832-17.813a21.1,21.1,0,0,1,2.865-1.154c16.063-4.178,23.37-17.834,31.793-30.285.92-1.363,1.873-2.713,2.672-4.15.912-1.641,2.4-3.3,1-5.33-1.242-1.794-3.226-1.825-5.177-1.827-7.12-.012-12.417,3.374-16.523,9.046a33.543,33.543,0,0,0-2.738,3.546c-4.593,8.569-12.649,6.059-19.774,6.431-1.651.086-1.627-.97-.745-2.04,1.331-1.614,2.722-3.182,4.073-4.78,2.752-3.255,4.842-6.879,5.013-11.256.137-3.491-2.466-5.741-5.024-4.131-9.63,6.069-20.491,10.576-27.006,20.809-3.556,5.584-4.247,13.144-7.269,19.2-3.723,7.462-8.646,14.239-12.848,21.38-6.922,11.763-13.836,23.532-21.079,35.1-11.517,18.391-23.388,36.568-36.1,54.148-3.079,4.258-3.27,4.229-6.087-.569-2.348-4-4.649-8.029-7.081-11.976-2-3.237-3.773-3.264-5.3.018-6.926,14.9-13.716,29.871-20.642,44.773-3.517,7.567,6.82,14.059,12.051,17.713C418.517,472.152,429.189,476.989,439.4,476.169Z" transform="translate(-189.769 -76.647)" fill="#f8c4b7"/>
            <path id="Path_11973" data-name="Path 11973" d="M507.738,278.926c19.088-.606,39.663-4.943,55.578-15.569a46.387,46.387,0,0,0,15.983-18.4c2.261-4.555,2.342-4.409,4.909-.28,9.989,16.062,23.892,26.407,42.545,29.566,10.84,1.837,22.6-6.9,24.161-17.582.807-5.518-4.393-3.36-7.347-5.848-4.051-3.407-4.077-11.311-4.518-16.052-1.3-14.01-8.1-26.448-17.857-36.239-24.778-24.875-62.987-28.2-93.826-14.577-26.149,11.55-44.008,34.651-50.4,62.669a83.848,83.848,0,0,0-1.83,20.619C475.391,278.641,494.781,279,502.9,279Q505.3,279,507.738,278.926Z" transform="translate(-415.818 -169.558)" fill="#1b0f4c"/>
            <path id="Path_11974" data-name="Path 11974" d="M646.378,432.088c8.108,8.066,16.092,15.788,23.817,23.768,5.63,5.819,6.069,5.93,9.314-1.655,9.536-22.284,20.765-43.8,29.121-66.622a11.841,11.841,0,0,0,.064-9.017,300.264,300.264,0,0,0-26.395-51.7c-9.389-14.8-19.329-31.181-34.507-40.462-6.083-3.72-6.057-3.624-10.424,1.772A62.715,62.715,0,0,1,606.9,309.143c-23.243,7.266-46.857-2.5-59.818-24.476-.381-.647-.721-1.322-1.085-1.979-3.679-6.654-5.024-7-11.106-2.29-13.6,10.538-23.487,24.208-31.547,39.318-18.866,35.365-27.609,75.42-28.666,115.448-.109,4.16,1.325,5.909,5.539,6.891,17.541,4.08,33.8,11.438,49.145,20.973,3.344,2.079,4.432,4.829,4.462,8.655.046,6.034.445,12.072.884,18.094.272,3.749,1.421,6.163,6.209,6.055,17.284-.389,34.616.438,51.855-.552,11.5-.661,22.881.192,34.312.307,3.411.033,4.925-.246,5.305-4.61.644-7.4,2.984-14.622,4.172-21.992,1.935-12,4.438-23.813,8.976-35.107C645.756,433.342,646.028,432.831,646.378,432.088Z" transform="translate(-473.507 -63.675)" fill="url(#linear-gradient-11)"/>
            <path id="Path_11975" data-name="Path 11975" d="M617.658,435.535c27.1.6,55.058-3.329,81.87,2.093,5.32,1.076,17.058,3.73,20.437-2.4,1.071-1.942.542-4.542.151-6.619-2.5-13.263-7.115-21.953-24.268-25.959-12.781-2.985-25.642-2.7-38.546-2.627-5.553.031-11.237-3.151-16.5-4.712-17.785-5.275-36.627-7.652-55.254-8.407-9.435-.381-18.88-.372-28.321-.19-9.365.182-18.876-.164-28.152,1.361-1.816.3-2.466-.62-2.708-2.109-1.893-11.638-9.216-18.026-19.7-21.769-11.127-3.969-22.263-7.853-33.663-10.953-2.251-.612-2.69-.647-3.288,2.036-2.036,9.136-2.5,18.433-3.582,27.668-1.645,14.02-3.137,32.331,6.741,43.779,4.989,5.78,12.81,12.884,20.171,15.131,9,2.748,18.866,1.465,27.985.094,9.884-1.49,19.812-3.073,29.779-3.881C571.711,436.376,592.615,434.984,617.658,435.535Z" transform="translate(-464.936 15.496)" fill="#f8c4b7"/>
            <path id="Path_11976" data-name="Path 11976" d="M529.8,273.993c7.46.258,16.951-2.6,19.722-9.852,2.2-5.762-6.945-6.91-10.416-8.146-8.841-3.151-17.724-6.212-26.779-8.68-3.425-.931-5.009,2.173-5.259,5.261-.918,11.293,9.914,19.53,19.782,21.134A23.3,23.3,0,0,0,529.8,273.993Z" transform="translate(-378.911 -95.137)" fill="#fff"/>
            <path id="Path_11977" data-name="Path 11977" d="M505.528,306.914c0-2.116.044-3.783-.02-5.447-.032-.837.254-2.058-.926-2.23-1.317-.19-1.009,1.156-1.283,1.9-1.714,4.679-.058,9.341.479,13.891a62.175,62.175,0,0,0,11.008,28.685c4.591,6.546,5.088,13.032,2.058,20.7-4.709,11.917-11.8,22.184-19.08,32.441-1.991,2.805-3.7,5.821-5.517,8.755a1.444,1.444,0,0,0,.179,2.04c.8.6,1.379-.027,1.776-.7,8.672-14.65,20.36-27.422,25.72-44.17,2.114-6.607,1.869-12.3-1.778-17.975-4.959-7.732-9.308-15.739-11.112-24.926C506.162,315.449,505.236,311.029,505.528,306.914Z" transform="translate(-319.919 -40.665)" fill="#fb5d13" opacity="0.5"/>
            <path id="Path_11978" data-name="Path 11978" d="M544.977,256.536c2.764-.753,5.376-2.464,6.332-4.986,1.49-3.924-1.45-9.089-4.744-11.008-3.85-2.243-11.952-1.512-14.155,2.928-2.776,5.6,2.177,12.232,7.647,13.335A11,11,0,0,0,544.977,256.536Z" transform="translate(-430.301 -103.337)" fill="#efa49e"/>
            <path id="Path_11979" data-name="Path 11979" d="M561.919,355.66c-10.5.681-20.513-2.406-29.61-8.743-1.061-.739-2.434-2.153-3.391-.581-.8,1.312,1.1,1.811,2,2.464,12.419,9.023,26.395,10.679,41.085,8.921.588-.07,1.244-.186,1.325-.9.121-1.086-.749-1.142-1.466-1.15C568.737,355.642,565.608,355.66,561.919,355.66Z" transform="translate(-446.124 7.881)" fill="#fb5d13" opacity="0.5"/>
            <path id="Path_11980" data-name="Path 11980" d="M504.3,228.151c-3.093-1.07-6.316-.162-7.055,3.509-.928,4.61,4.4,7.065,7.873,4.567C507.81,234.291,507.673,229.319,504.3,228.151Z" transform="translate(-316.176 -115.45)"/>
            <path id="Path_11981" data-name="Path 11981" d="M523.966,236.777c2.414,1.422,6.141,1.164,7.714-1.451a5.265,5.265,0,0,0-.628-6.1c-3.02-3.245-8.372-1.322-9.212,2.993A4.166,4.166,0,0,0,523.966,236.777Z" transform="translate(-391.107 -115.589)"/>
            <path id="Path_11982" data-name="Path 11982" d="M508.358,197.911a79.273,79.273,0,0,0,7.806,21.548c.513.956,1.2,2.085,2.36,1.453,1.514-.823.121-1.794-.3-2.564a84.537,84.537,0,0,1-7.653-21.01c-.248-1.037.3-2.908-1.569-2.521C507.757,195.077,508.54,196.63,508.358,197.911Z" transform="translate(-350.824 -149.935)" fill="#332376"/>
            <path id="Path_11983" data-name="Path 11983" d="M542.657,275.284c1.007,0,1.6.043,2.19-.01.719-.068,1.623-.108,1.555-1.129-.062-.953-.958-.915-1.667-1.019-3.487-.514-6.969-1.084-10.462-1.539a36.052,36.052,0,0,1-11.322-3.507c-.858-.419-2.243-1.776-2.97-.023-.527,1.275.969,1.533,1.832,2.036,4.289,2.5,9.057,3.4,13.818,4.283C538.088,274.828,540.589,275.024,542.657,275.284Z" transform="translate(-401.355 -74.178)" fill="#efa49e"/>
            <path id="Path_11984" data-name="Path 11984" d="M589.479,369.827a69.647,69.647,0,0,0-25.813,6.66c-.928.43-2.674.968-1.738,2.517.691,1.142,1.79-.035,2.684-.391,7.283-2.918,14.507-6.046,22.563-5.983a6.581,6.581,0,0,0,2.142-.565c.759-.272,2.036-.178,1.722-1.5C590.765,369.408,589.6,369.848,589.479,369.827Z" transform="translate(-530.179 33.132)" fill="#efa49e"/>
            <path id="Path_11985" data-name="Path 11985" d="M515.131,249.291c-.151,2.989-2.126,4.125-4.115,5.23a.889.889,0,0,1-1.289-.354.972.972,0,0,1,.453-1.31c4.6-2.015,2.249-5.758,2.017-8.837-.256-3.4-1.262-6.728-1.166-10.182.02-.749-.042-1.753.938-1.78,1.047-.027.791,1.056.9,1.725C513.709,239.025,513.909,244.364,515.131,249.291Z" transform="translate(-349.458 -110.923)" fill="#efa49e"/>
            <path id="Path_11986" data-name="Path 11986" d="M622.039,386.375c.089,1.655.834,4.761-.067,6.273-1.893,3.169-14.408-4.634-16.641-5.831-12.359-6.627-26.155-10.441-39.522-14.384-3.989-1.177-3.8-2.922-4.484-6.861a24.585,24.585,0,0,1,.916-12.3,9.089,9.089,0,0,1,4.49-5.4,12.637,12.637,0,0,1,6.308-.587,152.915,152.915,0,0,1,39.339,8.655c2.583.939,5.612,2,7.667,3.931,1.915,1.8,1.564,2.877,1.482,5.326-.175,5.152.028,10.306.193,15.456C621.731,381,621.888,383.61,622.039,386.375Z" transform="translate(-560.052 9.495)" fill="url(#linear-gradient-12)"/>
            <path id="Path_11987" data-name="Path 11987" d="M553.022,405.854c0,3.478-.02,6.959.014,10.437.008.9.113,2.024,1.264,2.036,1.548.018,1.315-1.221,1.266-2.3-1.406-31.68,5.052-62.155,13.621-92.321.535-1.889,2.452-5.066.487-5.682-2.316-.724-2.084,2.91-2.662,4.7-5.738,17.85-9.312,36.237-12.01,54.75C553.642,386.815,552.513,396.311,553.022,405.854Z" transform="translate(-491.989 -21.095)" fill="#fb5d13" opacity="0.5"/>
          </g>
          <g id="Group_82555" data-name="Group 82555" transform="translate(57.627 4.054)">
            <path id="Path_11988" data-name="Path 11988" d="M570.618,174.921c-1.858.078-3.314.186-3.912.237-14.448,1.264-23.288,11.219-30.792,22.9a132.624,132.624,0,0,0-16.48,36.46c-.739,2.691-.675,4.814,1.216,7.049,5.889,6.961,10.631,14.855,16.845,21.57.6.645.743,1.706,1.909,1.058.546-.3.669-.782.657-1.479-.278-15.143,4.979-28.738,11.612-41.888a126.089,126.089,0,0,1,30.238-38.735c1.119-.972,3.578-2.607,3.878-4.145C586.406,174.757,576.5,174.68,570.618,174.921Z" transform="translate(-496.628 -174.837)" fill="#6ba7fd"/>
            <path id="Path_11989" data-name="Path 11989" d="M564.055,274.636c4.114.34,8.471-.864,12.522,2.429,2.016,1.637,4.893-.364,6.421-2.566a4.932,4.932,0,0,0-.461-6.611c-2-2.161-4.917-2.752-6.834-1.095-2.795,2.414-5.738,2.308-8.763,2.026-8.108-.761-16.19-1.8-24.286-2.689-1.814-.2-2.6-1.1-2.62-2.942-.062-4.984-.324-9.975.59-14.916.735-3.978-.036-4.888-4.76-5.561-3.286-.469-4.935.956-5.017,4.551-.137,5.887-1.188,11.706-.966,17.633.274,7.387,1.528,9.083,8.579,8.786C546.973,273.32,555.382,274.965,564.055,274.636Z" transform="translate(-516.724 -103.924)" fill="#4975ce"/>
            <path id="Path_11990" data-name="Path 11990" d="M587.526,241.9a48.641,48.641,0,0,0-1.754-20.486c-2.877-9.474-11.753-16.383-21.387-16.506a22.751,22.751,0,0,0-21.937,15.767c-2.688,8.412-2.215,17.255-2.909,25.922-.515,6.427-1.061,12.915.338,19.33,2.789,12.766,10.6,18.992,23.8,18.99,9.147,0,17.711-7.675,20.223-18.493A183.18,183.18,0,0,0,587.526,241.9Z" transform="translate(-538.988 -143.384)" fill="#0d1c81"/>
            <path id="Path_11991" data-name="Path 11991" d="M547.811,231.965c.161,3.2-.775,6.57.1,10.069.805,3.219,2.7,5.332,5.614,5.576,3.362.278,7.331-.231,8.565-4.1a41.956,41.956,0,0,0,1.4-22.129c-.834-3.685-4.3-4.866-7.665-4.96-3.051-.086-5.05,1.907-6.347,4.684C547.89,224.5,548.315,228.183,547.811,231.965Z" transform="translate(-532.663 -131.338)" fill="#4975ce"/>
          </g>
        </g>
        <g id="Group_82559" data-name="Group 82559" transform="translate(260.855 291.111)">
          <g id="Group_82557" data-name="Group 82557" transform="translate(0 145.502)">
            <path id="Path_11992" data-name="Path 11992" d="M406.568,386.242H617.356l21.611,8.117H448.488Z" transform="translate(-406.568 -386.242)" fill="#8cc0fc"/>
            <path id="Rectangle_3967" data-name="Rectangle 3967" d="M0,0H190.479a0,0,0,0,1,0,0V9.951a3.02,3.02,0,0,1-3.02,3.02H0a0,0,0,0,1,0,0V0A0,0,0,0,1,0,0Z" transform="translate(41.92 8.117)" fill="#4975ce"/>
            <path id="Path_11993" data-name="Path 11993" d="M509.2,400.767l33.889,6.562v-12.97l-41.918-8.117V390.9A10,10,0,0,0,509.2,400.767Z" transform="translate(-501.17 -386.241)" fill="#0d1c81"/>
          </g>
          <g id="Group_82558" data-name="Group 82558" transform="translate(40.162)">
            <path id="Path_11994" data-name="Path 11994" d="M487.242,472.4c28.756,0,57.517-.153,86.271.135,5.424.055,7.953-2.3,9.308-6.936,11.1-37.931,21.045-76.854,29.038-115.583,1.6-7.761,3.3-15.5,4.822-23.281,1.105-5.662-1.474-8.113-7.258-8.009-15.188.274-30.351-.882-45.547-.976-23.36-.143-46.712-.89-70.056-1.743-13.134-.481-26.276-.8-39.418-.853q-10.039-.043-20.076.133c-5.116.094-12.7-1.69-14.314,4.849-2,8.115-3.417,16.367-5.118,24.545-3.832,18.4-8.237,36.654-12.371,54.977-4.367,19.36-8.751,38.719-13.325,58.03-1.935,8.168,1.5,14.554,11.334,14.452,28.9-.295,57.807-.1,86.71-.1Z" transform="translate(-388.682 -315.13)" fill="url(#linear-gradient-13)"/>
            <path id="Path_11995" data-name="Path 11995" d="M449.8,384.843c10.577-.1,19.784-9.41,20.576-20.261,2-27.408-39.3-28.59-39.859-.7-.189,9.527,5.738,18.427,15.123,20.518A18.383,18.383,0,0,0,449.8,384.843Z" transform="translate(-326.425 -285.464)" fill="#e0e8f3" opacity="0.5"/>
          </g>
        </g>
      </g>
    </g>
  </g>
</svg>
